<?xml version="1.0" standalone="no"?>
<!DOCTYPE svg PUBLIC "-//W3C//DTD SVG 20010904//EN"
 "http://www.w3.org/TR/2001/REC-SVG-20010904/DTD/svg10.dtd">
<svg version="1.0" xmlns="http://www.w3.org/2000/svg"
 width="700.000000pt" height="700.000000pt" viewBox="0 0 700.000000 700.000000"
 preserveAspectRatio="xMidYMid meet">
<metadata>
Created by potrace 1.14, written by Peter Selinger 2001-2017
</metadata>
<g transform="translate(0.000000,700.000000) scale(0.100000,-0.100000)"
fill="#000000" stroke="none">
<path d="M2489 6066 c-2 -2 -37 -7 -77 -10 -40 -4 -78 -9 -85 -11 -7 -2 -30
-6 -52 -9 -109 -13 -400 -90 -480 -126 -11 -5 -38 -16 -60 -25 -87 -34 -103
-42 -201 -91 -488 -249 -879 -641 -1120 -1124 -34 -69 -72 -150 -84 -180 -11
-30 -24 -64 -29 -75 -31 -71 -74 -221 -105 -365 -41 -190 -51 -292 -51 -530 0
-214 11 -327 49 -515 46 -227 160 -529 273 -725 64 -111 188 -298 213 -320 3
-3 35 -41 72 -85 231 -279 591 -543 938 -690 99 -42 306 -111 390 -130 41 -9
84 -19 95 -21 227 -51 598 -64 860 -29 397 53 810 217 1132 449 48 35 90 62
92 60 3 -2 5 -122 5 -267 l1 -262 484 -3 484 -2 56 31 c31 18 76 43 101 57 25
14 77 44 115 67 39 23 77 45 85 49 8 4 24 12 35 19 67 41 203 117 209 117 3 0
6 -76 6 -170 l0 -170 485 0 485 0 0 1273 0 1274 -485 -1 -485 0 -1 -25 c0 -14
-1 -99 -1 -188 -1 -129 -4 -165 -15 -175 -14 -11 -148 -90 -221 -129 -18 -9
-38 -22 -45 -27 -7 -5 -36 -23 -65 -38 -29 -16 -61 -33 -70 -39 -97 -57 -182
-105 -184 -105 -2 0 -3 164 -2 365 l1 365 -789 0 -788 0 0 -52 c0 -29 -9 -94
-19 -144 -124 -603 -769 -941 -1336 -701 -207 88 -409 280 -495 473 -44 97
-49 110 -63 169 -35 137 -42 266 -22 400 60 391 349 702 745 801 108 27 344
25 452 -4 185 -50 334 -136 465 -269 l73 -74 117 69 c65 38 246 142 403 232
157 89 297 171 312 181 15 11 29 19 31 19 3 0 71 39 153 86 82 47 193 111 247
142 53 30 97 59 97 63 0 23 -202 270 -313 383 -147 150 -261 245 -405 339
-327 215 -655 341 -1047 402 -16 3 -46 8 -65 11 -42 6 -495 16 -501 10z"/>
</g>
</svg>
