<svg width="25" height="15" viewBox="0 0 25 15" xmlns="http://www.w3.org/2000/svg">
<path d="M0.00800002 14V1.04H2.824C3.784 1.04 4.54133 1.18933 5.096 1.488C5.66133 1.776 6.06133 2.21333 6.296 2.8C6.54133 3.38667 6.664 4.11733 6.664 4.992V9.76C6.664 10.6773 6.54133 11.4507 6.296 12.08C6.06133 12.7093 5.672 13.1893 5.128 13.52C4.59467 13.84 3.87467 14 2.968 14H0.00800002ZM1.816 12.704H2.84C3.50133 12.704 3.97067 12.576 4.248 12.32C4.52533 12.064 4.69067 11.6907 4.744 11.2C4.808 10.7093 4.84 10.1173 4.84 9.424V5.216C4.84 4.544 4.79733 4 4.712 3.584C4.62667 3.168 4.44 2.864 4.152 2.672C3.864 2.48 3.41067 2.384 2.792 2.384H1.816V12.704ZM12.0775 14.144C11.2028 14.144 10.5042 13.9733 9.9815 13.632C9.45883 13.2907 9.0855 12.8053 8.8615 12.176C8.6375 11.536 8.5255 10.7893 8.5255 9.936V5.024C8.5255 4.17067 8.6375 3.44 8.8615 2.832C9.09617 2.21333 9.4695 1.744 9.9815 1.424C10.5042 1.09333 11.2028 0.927999 12.0775 0.927999C12.9522 0.927999 13.6455 1.09333 14.1575 1.424C14.6695 1.75467 15.0375 2.224 15.2615 2.832C15.4962 3.44 15.6135 4.17067 15.6135 5.024V9.952C15.6135 10.7947 15.4962 11.5307 15.2615 12.16C15.0375 12.7893 14.6695 13.28 14.1575 13.632C13.6455 13.9733 12.9522 14.144 12.0775 14.144ZM12.0775 12.72C12.5575 12.72 12.9202 12.624 13.1655 12.432C13.4108 12.2293 13.5762 11.952 13.6615 11.6C13.7468 11.2373 13.7895 10.816 13.7895 10.336V4.656C13.7895 4.176 13.7468 3.76533 13.6615 3.424C13.5762 3.072 13.4108 2.80533 13.1655 2.624C12.9202 2.432 12.5575 2.336 12.0775 2.336C11.5975 2.336 11.2295 2.432 10.9735 2.624C10.7282 2.80533 10.5628 3.072 10.4775 3.424C10.3922 3.76533 10.3495 4.176 10.3495 4.656V10.336C10.3495 10.816 10.3922 11.2373 10.4775 11.6C10.5628 11.952 10.7282 12.2293 10.9735 12.432C11.2295 12.624 11.5975 12.72 12.0775 12.72ZM20.9585 14.144C20.0412 14.144 19.3265 13.952 18.8145 13.568C18.3132 13.184 17.9612 12.6667 17.7585 12.016C17.5665 11.3653 17.4705 10.64 17.4705 9.84V5.264C17.4705 4.38933 17.5665 3.62667 17.7585 2.976C17.9612 2.32533 18.3132 1.824 18.8145 1.472C19.3265 1.10933 20.0412 0.927999 20.9585 0.927999C21.7692 0.927999 22.4092 1.07733 22.8785 1.376C23.3585 1.67467 23.6998 2.10133 23.9025 2.656C24.1158 3.21067 24.2225 3.87733 24.2225 4.656V5.68H22.5105V4.768C22.5105 4.288 22.4838 3.86667 22.4305 3.504C22.3878 3.13067 22.2598 2.84267 22.0465 2.64C21.8332 2.43733 21.4758 2.336 20.9745 2.336C20.4625 2.336 20.0892 2.448 19.8545 2.672C19.6198 2.88533 19.4652 3.19467 19.3905 3.6C19.3265 3.99467 19.2945 4.45867 19.2945 4.992V10.128C19.2945 10.7787 19.3478 11.296 19.4545 11.68C19.5612 12.0533 19.7372 12.32 19.9825 12.48C20.2278 12.64 20.5585 12.72 20.9745 12.72C21.4652 12.72 21.8172 12.6133 22.0305 12.4C22.2438 12.176 22.3772 11.872 22.4305 11.488C22.4838 11.104 22.5105 10.656 22.5105 10.144V9.184H24.2225V10.144C24.2225 10.9333 24.1265 11.632 23.9345 12.24C23.7425 12.8373 23.4118 13.3067 22.9425 13.648C22.4732 13.9787 21.8118 14.144 20.9585 14.144Z"/>
</svg>
