<svg width="195" height="70" viewBox="0 0 195 70" fill="none" xmlns="http://www.w3.org/2000/svg">
<g clip-path="url(#clip0_1630_32747)">
<path fill-rule="evenodd" clip-rule="evenodd" d="M13.2487 0L9.93443 9.08538H55.8623L59.1766 0H13.2487ZM8.27628 13.626L4.96205 22.7093H50.8899L54.2042 13.626H8.27628ZM3.31423 27.252L0 36.3354H45.9279L49.2401 27.252H3.31423Z" fill="#CCCED7"/>
<path fill-rule="evenodd" clip-rule="evenodd" d="M97.6396 39.7977V39.9894C99.7385 40.7604 101.743 42.1085 102.794 42.9743C106.039 45.6707 107.472 49.2329 107.472 53.8547C107.472 61.4635 103.462 66.9511 96.8752 68.6847C94.8702 69.2619 92.7713 69.4557 88.8554 69.4557H68.9062V13.8008H86.5664C90.1941 13.8008 92.6752 13.9925 94.8702 14.5697C101.267 16.3034 105.467 20.7334 105.467 27.7609C105.467 31.5168 104.131 34.6956 101.936 36.8127C100.981 37.7754 99.6445 38.9319 97.6396 39.7977ZM79.9794 45.6707V60.307H87.6169C89.9059 60.307 92.0069 60.1153 93.5357 58.6702C95.0624 57.2251 95.7307 55.3966 95.7307 52.9889C95.7307 51.1604 95.2524 49.4267 94.298 48.1754C92.6752 46.1531 90.6703 45.6707 87.2348 45.6707H79.9794ZM79.8833 36.0417H86.0882C87.997 36.0417 88.9515 36.0417 89.9059 35.7531C92.4852 34.9821 94.1079 32.6733 94.1079 29.4946C94.1079 25.7407 92.3891 24.1018 89.9059 23.3329C88.8554 23.0443 87.807 22.9474 85.706 22.9474H79.8833V36.0417ZM124.082 69.4557V23.1391H108.14V13.8008H152.435L149.286 23.1391H135.155V69.4557H124.082ZM155.871 69.4557V13.8008H191.765L188.616 23.1391H166.85V35.4645H175.728C182.887 35.4645 186.611 37.1982 189.188 39.4122C191.193 41.1459 194.629 44.9966 194.629 52.6055C194.629 60.1153 191.097 64.2547 188.138 66.3739C184.702 68.7795 181.074 69.4557 173.723 69.4557H155.871ZM166.85 60.1153H175.156C178.305 60.1153 180.214 59.3443 181.551 57.6106C182.219 56.7448 183.173 55.2028 183.173 52.3148C183.173 49.4267 182.219 47.4044 180.31 45.9593C179.165 45.0935 177.637 44.6132 175.06 44.6132H166.85V60.1153Z" fill="#CCCED7"/>
</g>
</svg>
