<svg width="63" height="32" viewBox="0 0 63 32" fill="none" xmlns="http://www.w3.org/2000/svg">
<rect width="63" height="32" rx="4" fill="#65C94F" fill-opacity="0.85"/>
<path d="M9.008 23V10.04H16.144V23H14.336V11.336H10.816V23H9.008ZM18.1643 23V10.04H21.3802C22.1589 10.04 22.7776 10.184 23.2363 10.472C23.7056 10.7493 24.0469 11.1547 24.2603 11.688C24.4736 12.2213 24.5803 12.8667 24.5803 13.624C24.5803 14.3067 24.4576 14.8987 24.2123 15.4C23.9776 15.9013 23.6256 16.2907 23.1563 16.568C22.6869 16.8347 22.1003 16.968 21.3963 16.968H19.9723V23H18.1643ZM19.9723 15.672H20.8043C21.3269 15.672 21.7376 15.6133 22.0363 15.496C22.3349 15.3787 22.5483 15.176 22.6763 14.888C22.8043 14.5893 22.8683 14.1733 22.8683 13.64C22.8683 13.0213 22.8203 12.5467 22.7243 12.216C22.6389 11.8853 22.4523 11.656 22.1643 11.528C21.8763 11.4 21.4283 11.336 20.8203 11.336H19.9723V15.672ZM29.1638 23.144C28.2891 23.144 27.5904 22.9733 27.0678 22.632C26.5451 22.2907 26.1718 21.8053 25.9478 21.176C25.7238 20.536 25.6118 19.7893 25.6118 18.936V14.024C25.6118 13.1707 25.7238 12.44 25.9478 11.832C26.1824 11.2133 26.5558 10.744 27.0678 10.424C27.5904 10.0933 28.2891 9.928 29.1638 9.928C30.0384 9.928 30.7318 10.0933 31.2438 10.424C31.7558 10.7547 32.1238 11.224 32.3478 11.832C32.5824 12.44 32.6998 13.1707 32.6998 14.024V18.952C32.6998 19.7947 32.5824 20.5307 32.3478 21.16C32.1238 21.7893 31.7558 22.28 31.2438 22.632C30.7318 22.9733 30.0384 23.144 29.1638 23.144ZM29.1638 21.72C29.6438 21.72 30.0064 21.624 30.2518 21.432C30.4971 21.2293 30.6624 20.952 30.7478 20.6C30.8331 20.2373 30.8758 19.816 30.8758 19.336V13.656C30.8758 13.176 30.8331 12.7653 30.7478 12.424C30.6624 12.072 30.4971 11.8053 30.2518 11.624C30.0064 11.432 29.6438 11.336 29.1638 11.336C28.6838 11.336 28.3158 11.432 28.0598 11.624C27.8144 11.8053 27.6491 12.072 27.5638 12.424C27.4784 12.7653 27.4358 13.176 27.4358 13.656V19.336C27.4358 19.816 27.4784 20.2373 27.5638 20.6C27.6491 20.952 27.8144 21.2293 28.0598 21.432C28.3158 21.624 28.6838 21.72 29.1638 21.72ZM34.4768 23V10.04H39.5008V11.384H36.2848V15.672H38.8928V16.952H36.2848V21.704H39.5328V23H34.4768ZM40.9924 23V10.04H42.8004V15.8H43.4724L45.7924 10.04H47.6004L45.0404 16.2L47.9204 23H46.1124L43.4884 16.68H42.8004V23H40.9924ZM50.5414 23V11.384H48.3494V10.04H54.4774V11.384H52.3494V23H50.5414Z" fill="#FCFCFC"/>
</svg>
