<svg width="48" height="48" viewBox="0 0 48 48" fill="none" xmlns="http://www.w3.org/2000/svg">
<path d="M14.25 21C17.9779 21 21 17.9779 21 14.25C21 10.5221 17.9779 7.5 14.25 7.5C10.5221 7.5 7.5 10.5221 7.5 14.25C7.5 17.9779 10.5221 21 14.25 21Z" stroke="#007AFF" stroke-width="2" stroke-linecap="round" stroke-linejoin="round"/>
<path d="M33.75 21C37.4779 21 40.5 17.9779 40.5 14.25C40.5 10.5221 37.4779 7.5 33.75 7.5C30.0221 7.5 27 10.5221 27 14.25C27 17.9779 30.0221 21 33.75 21Z" stroke="#007AFF" stroke-width="2" stroke-linecap="round" stroke-linejoin="round"/>
<path d="M14.25 40.5C17.9779 40.5 21 37.4779 21 33.75C21 30.0221 17.9779 27 14.25 27C10.5221 27 7.5 30.0221 7.5 33.75C7.5 37.4779 10.5221 40.5 14.25 40.5Z" stroke="#007AFF" stroke-width="2" stroke-linecap="round" stroke-linejoin="round"/>
<path d="M33.75 40.5C37.4779 40.5 40.5 37.4779 40.5 33.75C40.5 30.0221 37.4779 27 33.75 27C30.0221 27 27 30.0221 27 33.75C27 37.4779 30.0221 40.5 33.75 40.5Z" stroke="#007AFF" stroke-width="2" stroke-linecap="round" stroke-linejoin="round"/>
</svg>
