<svg width="440" height="70" viewBox="0 0 440 70" fill="none" xmlns="http://www.w3.org/2000/svg">
<g clip-path="url(#clip0_1630_32756)">
<path d="M111.325 6.20266V8.75899H133.193C134.65 8.75899 136.837 8.75899 138.273 10.221C139.709 11.683 139.731 13.8761 139.731 15.316V37.2463C139.731 38.7084 139.731 40.9014 138.273 42.3413C136.815 43.8033 134.628 43.8033 133.193 43.8033H122.634C120.814 43.8033 118.442 43.8033 117.554 41.7919C116.644 39.7805 117.918 37.9552 119.012 36.4754L133.237 17.4691H111.369L102.622 29.1653C101.156 31.1235 99.8877 32.8204 99.8877 35.0134C99.8877 37.2065 101.067 38.7837 102.622 40.8615L104.809 43.7856C106.996 46.7096 109.182 49.6337 112.098 51.0957C115.014 52.5577 118.46 52.5577 123.231 52.5577H132.684C138.162 52.5577 146.335 52.5577 151.813 47.0641C157.291 41.5704 157.291 33.5514 157.291 30.6273V21.8552C157.291 18.9311 157.291 10.9122 151.813 5.41848C146.335 -0.0751901 138.162 -0.0751901 132.684 -0.0751901L117.576 -0.0800635C116.118 -0.0805065 114.298 -0.0800634 112.849 1.38196C111.391 2.84399 111.391 4.6693 111.391 6.12247" fill="#CCCED7"/>
<path d="M85.2615 17.5439H106.908L80.8439 52.7212H59.1973L85.2615 17.5439Z" fill="#CCCED7"/>
<path d="M0 23.7465C0 22.2845 0 20.4591 1.45783 19.006C2.91566 17.5528 4.73574 17.5439 6.18474 17.5439H42.8072C47.5341 17.5439 51.0241 17.5439 53.9398 19.006C56.8554 20.468 59.0201 23.392 61.2289 26.3161L63.4157 29.2401C64.9663 31.3136 66.1502 32.8952 66.1502 35.0882C66.1502 37.2813 64.8823 38.9781 63.4157 40.9364L54.6687 52.6326H32.8012L47.0261 33.6262C48.1173 32.1642 49.394 30.3389 48.4839 28.3098C47.5739 26.2984 45.206 26.2984 43.4036 26.2984H26.2631V70.1591H8.76908V26.2984H0.0220884V23.7376" fill="#CCCED7"/>
<path d="M178.032 46.5197C176.72 48.3096 175.381 50.0729 174.069 51.8362V52.8374H177.767C179.578 50.4184 180.524 49.1558 180.524 47.6982H184.146V52.8374H187.609V47.6982H191.232C191.232 49.1469 192.177 50.4096 193.989 52.8374H197.686V51.8362L193.697 46.5197C197.054 43.9944 197.054 43.9944 197.054 40.6716V39.5684H193.277V40.6716C193.277 44.6988 193.277 44.6988 189.341 44.6988H187.609V39.5596H184.146V44.6988H182.414C178.478 44.6988 178.478 44.6988 178.478 40.6716V39.5684H174.701V40.6716C174.701 43.9855 174.701 43.9855 178.032 46.5197Z" fill="#CCCED7"/>
<path fill-rule="evenodd" clip-rule="evenodd" d="M204.538 44.7475C204.538 41.8279 204.538 41.8279 207.762 41.8279C210.987 41.8279 210.987 41.8279 210.987 44.7475H204.538ZM204.538 47.1133H207.762C211.146 47.0867 212.145 47.1399 213.285 46.8763L214.623 46.5608V45.2716C214.623 43.0874 214.623 38.9805 208.394 38.9805H207.135C200.906 38.9805 200.906 43.083 200.906 45.3159V46.5786C200.906 48.9444 200.958 52.914 207.798 52.914C208.823 52.914 211.129 52.914 213.629 52.2849V49.445H212.922L210.404 50.0741H207.727C204.502 50.0733 204.502 50.0733 204.502 47.1545L204.538 47.1133Z" fill="#CCCED7"/>
<path d="M220.441 39.3418C220.441 41.3399 220.284 47.3608 217.137 51.5696V52.5975H220.993C223.277 49.545 223.277 45.5532 223.277 42.2747H228.711V52.5975H232.174V39.3507H220.468" fill="#CCCED7"/>
<path fill-rule="evenodd" clip-rule="evenodd" d="M239.879 44.7475C239.879 41.8279 239.879 41.8279 243.109 41.8279C246.334 41.8279 246.334 41.8279 246.334 44.7475H239.884M239.884 47.1133H243.113C246.497 47.0867 247.495 47.1399 248.635 46.8763L249.974 46.5608V45.2716C249.974 43.0874 249.974 38.9805 243.745 38.9805H242.486C236.257 38.9805 236.257 43.083 236.257 45.3159V46.5786C236.257 48.9444 236.309 52.914 243.148 52.914C244.173 52.914 246.479 52.914 248.98 52.2849V49.445H248.273L245.755 50.0741H243.078C239.853 50.0733 239.853 50.0733 239.853 47.1545L239.884 47.1133Z" fill="#CCCED7"/>
<path d="M262.852 46.0764V45.6817C265.529 44.9994 265.529 43.3424 265.529 42.7089C265.529 41.4462 265.529 38.9209 259.167 38.9209C258.222 38.9209 256.018 38.9209 253.513 39.5544V42.3943H254.22L256.738 41.7608H259.649C261.668 41.7608 261.774 41.7608 261.774 43.2317C261.774 44.6804 261.774 44.6804 259.649 44.6804H256.738V47.0462H259.649C261.668 47.0462 261.774 47.0462 261.774 48.4949C261.774 49.9703 261.774 49.9703 259.649 49.9703H256.738L254.22 49.3367H253.513V52.1766C256.031 52.8057 258.24 52.8057 259.167 52.8057C265.529 52.8057 265.529 50.2804 265.529 49.0177C265.529 48.3886 265.529 46.7317 262.852 46.0715" fill="#CCCED7"/>
<path d="M280.08 39.3418V44.3038H273.012V39.3418H269.478V52.7215H273.012V47.4051H280.08V52.7215H283.172V39.3418H280.08Z" fill="#CCCED7"/>
<path fill-rule="evenodd" clip-rule="evenodd" d="M294.217 46.0752C296.973 46.0752 296.973 46.0752 296.973 48.1264C296.973 50.1777 296.973 50.1777 294.217 50.1777H291.46V46.0752H294.217ZM306.586 39.4296H303.123V52.6764H306.586V39.4296ZM294.702 52.6764C298.873 52.6764 300.622 51.7549 300.622 48.1574C300.622 46.1859 300.622 43.3283 295.188 43.3283C294.402 43.3283 293.064 43.4081 291.491 43.8024V39.3809H288.027V52.6277H294.698L294.702 52.6764Z" fill="#CCCED7"/>
<path fill-rule="evenodd" clip-rule="evenodd" d="M314.538 44.7465C314.538 41.8269 314.538 41.8269 317.762 41.8269C320.987 41.8269 320.987 41.8269 320.987 44.7465H314.538ZM314.538 47.1123H317.762C321.146 47.0858 322.145 47.1389 323.285 46.8753L324.623 46.5599V45.2706C324.623 43.0865 324.623 38.9795 318.394 38.9795H317.135C310.906 38.9795 310.906 43.082 310.906 45.3149V46.5776C310.906 48.9434 310.959 52.913 317.798 52.913C318.823 52.913 321.129 52.913 323.629 52.2839V49.444H322.922L320.404 50.0732H317.727C314.502 50.0723 314.502 50.0723 314.502 47.1535L314.538 47.1123Z" fill="#CCCED7"/>
<path fill-rule="evenodd" clip-rule="evenodd" d="M338.835 45.6324C338.835 42.0793 338.835 42.159 343.517 42.159C344.149 42.159 345.015 42.2374 346.062 42.4745V48.1453L342.705 48.9871C338.821 48.9876 338.821 48.9876 338.821 45.62M336.776 54.7909V57.7903C339.294 58.4238 341.326 58.4238 342.121 58.4238C349.278 58.4238 349.499 55.3181 349.499 51.7783V39.4618H348.368L346.689 40.7245C345.536 39.2226 342.727 39.1738 341.83 39.1738C335.159 39.1738 335.159 43.3827 335.159 45.2878V45.9213C335.159 48.1321 335.159 51.7694 340.814 51.7694C342.519 51.7694 344.538 51.2953 346.027 50.1922V51.2953C346.027 55.3713 345.948 55.3979 341.777 55.3979H339.966L337.448 54.7643H336.741L336.776 54.7909Z" fill="#CCCED7"/>
<path fill-rule="evenodd" clip-rule="evenodd" d="M360.04 39.0312C353.369 39.0312 353.369 42.9787 353.369 45.3667V46.6294C353.369 48.9952 353.369 52.9648 360.04 52.9648H361.299C367.97 52.9648 367.97 49.0173 367.97 46.6294V45.3667C367.97 43.0009 367.97 39.0312 361.299 39.0312H360.04ZM360.667 41.9509C364.365 41.9509 364.365 41.9509 364.365 45.9781C364.365 50.0053 364.365 50.0053 360.667 50.0053C356.97 50.0053 356.97 50.0053 356.97 45.9781C356.97 41.9509 356.97 41.9509 360.667 41.9509Z" fill="#CCCED7"/>
<path fill-rule="evenodd" clip-rule="evenodd" d="M382.57 46.0758C382.57 50.0233 382.57 50.0233 378.713 50.0233C377.768 50.0233 376.562 50.0233 375.329 49.7074V43.0618L378.687 42.2201C382.57 42.2201 382.57 42.2724 382.57 46.0612M371.879 39.4156V58.0232H375.342V52.2637C376.915 52.6585 378.174 52.9726 380.069 52.9726C386.21 52.9726 386.21 48.4536 386.21 46.6372V45.3745C386.21 43.1637 386.21 39.0391 380.467 39.0391C377.529 39.0391 375.828 40.3283 374.901 41.0372L373.642 39.3536H371.91L371.879 39.4156Z" fill="#CCCED7"/>
<path fill-rule="evenodd" clip-rule="evenodd" d="M396.707 39.0312C390.036 39.0312 390.036 42.9787 390.036 45.3667V46.6294C390.036 48.9952 390.036 52.9648 396.707 52.9648H397.966C404.637 52.9648 404.637 49.0173 404.637 46.6294V45.3667C404.637 43.0009 404.637 39.0312 397.966 39.0312H396.707ZM397.334 41.9509C401.032 41.9509 401.032 41.9509 401.032 45.9781C401.032 50.0053 401.032 50.0053 397.334 50.0053C393.637 50.0053 393.637 50.0053 393.637 45.9781C393.637 41.9509 393.637 41.9509 397.334 41.9509Z" fill="#CCCED7"/>
<path d="M414.819 39.0312C413.56 39.0312 411.908 39.0313 409.385 39.6648V42.5047H410.092L412.61 41.8756H415.835C417.567 41.8756 417.567 41.8756 417.567 42.8768C417.567 43.5591 417.567 43.7718 416.228 44.0066L413.078 44.7952C411.267 45.2426 408.749 45.9249 408.749 48.6629C408.749 50.4794 408.749 52.9249 415.11 52.9249C416.369 52.9249 418.022 52.9249 420.544 52.2958V49.4559H419.837C418.786 49.7452 417.792 49.9831 417.399 50.0895H414.094C412.363 50.0895 412.363 50.0895 412.363 49.0882C412.363 48.4857 412.363 48.3528 413.096 48.1401L414.854 47.6661L416.847 47.1654C418.658 46.718 421.176 46.0623 421.176 43.2977C421.175 41.4813 421.175 39.0357 414.814 39.0357" fill="#CCCED7"/>
<path d="M437.349 53.1646L439.92 51.2418C438.975 49.9791 438.975 49.9791 438.975 47.7418V39.5456H435.511V49.1595L432.154 50.0013C428.585 50.0013 428.585 50.0013 428.585 46.3462V39.5234H425.121V46.8779C425.121 49.4829 425.121 53.1247 430.378 53.1247C433.135 53.1247 434.84 51.8355 435.768 51.1266L437.314 53.1779" fill="#CCCED7"/>
<path fill-rule="evenodd" clip-rule="evenodd" d="M174.939 7.66442V26.272H178.717V21.1328H181.707C186.832 21.1328 190.852 21.1328 190.852 14.3986C190.852 7.62012 186.836 7.62012 181.707 7.62012H174.948M178.725 17.81V10.9429H183.276C186.66 10.9429 186.819 10.9429 186.819 14.3897C186.819 17.7302 186.819 17.81 183.276 17.81H178.725Z" fill="#CCCED7"/>
<path fill-rule="evenodd" clip-rule="evenodd" d="M200.562 12.7148C193.892 12.7148 193.892 16.6623 193.892 19.0503V20.3129C193.892 22.6788 193.892 26.6484 200.562 26.6484H201.821C208.492 26.6484 208.492 22.7009 208.492 20.3129V19.0503C208.492 16.6845 208.492 12.7148 201.821 12.7148H200.562ZM201.19 15.6345C204.887 15.6345 204.887 15.6345 204.887 19.6617C204.887 23.6889 204.887 23.6889 201.19 23.6889C197.492 23.6889 197.492 23.6889 197.492 19.6617C197.492 15.6345 197.492 15.6345 201.19 15.6345Z" fill="#CCCED7"/>
<path d="M218.675 26.626C219.62 26.626 222.059 26.626 224.594 25.9925V23.1526H223.887L221.343 23.7817H219.85C215.467 23.7817 215.467 23.7817 215.467 19.6792C215.467 15.5767 215.467 15.5767 218.692 15.5767C221.422 15.5767 221.422 15.5767 222.076 18.1817L225.226 17.3931C225.226 16.1305 225.226 12.7412 219.306 12.7412H218.047C211.818 12.7412 211.818 16.6887 211.818 19.0767V20.3393C211.818 22.7051 211.818 26.6748 218.666 26.6748" fill="#CCCED7"/>
<path d="M235.462 26.626C236.407 26.626 238.846 26.626 241.381 25.9925V23.1526H240.675L238.13 23.7817H236.637C232.254 23.7817 232.254 23.7817 232.254 19.6792C232.254 15.5767 232.254 15.5767 235.479 15.5767C238.209 15.5767 238.209 15.5767 238.863 18.1817L242.013 17.3931C242.013 16.1305 242.013 12.7412 236.093 12.7412H234.834C228.605 12.7412 228.605 16.6887 228.605 19.0767V20.3393C228.605 22.7051 228.605 26.6748 235.453 26.6748" fill="#CCCED7"/>
<path d="M257.55 26.6704L260.121 24.7477C259.176 23.485 259.176 23.485 259.176 21.2477V13.0514H255.713V22.6654L252.355 23.5071C248.786 23.5071 248.786 23.5071 248.786 19.8521V13.0293H245.322V20.3837C245.322 22.9888 245.322 26.6306 250.579 26.6306C253.336 26.6306 255.041 25.3413 255.969 24.6325L257.515 26.6837" fill="#CCCED7"/>
<path fill-rule="evenodd" clip-rule="evenodd" d="M269.919 8.32896C268.214 8.32896 268.214 8.32896 267.375 7.38086L265.855 8.56377C267.507 10.6948 268.347 10.8543 270.759 10.8543H271.337C273.723 10.8543 274.589 10.6961 276.197 8.56377L274.677 7.38086C273.864 8.32896 273.864 8.32896 272.133 8.32896H269.902M276.307 26.715L278.878 24.7923C277.933 23.5296 277.933 23.5296 277.933 21.2923V13.096H274.469V22.71L271.112 23.5517C267.622 23.5517 267.543 23.5517 267.543 19.8967V13.0739H264.079V20.4283C264.079 23.0334 264.079 26.6752 269.336 26.6752C272.093 26.6752 273.798 25.3859 274.726 24.6771L276.272 26.7283L276.307 26.715Z" fill="#CCCED7"/>
<path d="M288.915 26.626C289.861 26.626 292.299 26.626 294.835 25.9925V23.1526H294.128L291.584 23.7817H290.086C285.704 23.7817 285.704 23.7817 285.704 19.6792C285.704 15.5767 285.704 15.5767 288.929 15.5767C291.659 15.5767 291.659 15.5767 292.313 18.1817L295.462 17.3931C295.462 16.1305 295.462 12.7412 289.543 12.7412H288.284C282.055 12.7412 282.055 16.6887 282.055 19.0767V20.3393C282.055 22.7051 282.055 26.6748 288.902 26.6748" fill="#CCCED7"/>
<path d="M299.518 13.0691V26.3159H302.982V21.1767H307.231C307.231 22.6254 308.177 23.8881 309.984 26.3159H313.681V25.3147L309.692 19.9982C313.049 17.4729 313.049 17.4729 313.049 14.1501V13.0469H309.272V14.1501C309.272 18.1773 309.272 18.1773 305.336 18.1773H302.977V13.0381H299.514" fill="#CCCED7"/>
<path d="M329.558 26.6704L332.129 24.7477C331.184 23.485 331.184 23.485 331.184 21.2477V13.0514H327.72V22.6654L324.363 23.5071C320.794 23.5071 320.794 23.5071 320.794 19.8521V13.0293H317.33V20.3837C317.33 22.9888 317.33 26.6306 322.587 26.6306C325.344 26.6306 327.049 25.3413 327.977 24.6325L329.523 26.6837" fill="#CCCED7"/>
<path fill-rule="evenodd" clip-rule="evenodd" d="M338.835 18.4741C338.835 15.5544 338.835 15.5544 342.065 15.5544C345.29 15.5544 345.29 15.5544 345.29 18.4741H338.84M338.84 20.8399H342.069C345.453 20.8133 346.451 20.8665 347.591 20.6029L348.93 20.2874V18.9982C348.93 16.814 348.93 12.707 342.701 12.707H341.442C335.213 12.707 335.213 16.8096 335.213 19.0425V20.3051C335.213 22.671 335.265 26.6406 342.104 26.6406C343.129 26.6406 345.435 26.6406 347.936 26.007V23.1672H347.229L344.711 23.7963H342.034C338.804 23.7958 338.804 23.7958 338.804 20.8767L338.84 20.8399Z" fill="#CCCED7"/>
</g>
</svg>
