<svg width="48" height="48" viewBox="0 0 48 48" fill="none" xmlns="http://www.w3.org/2000/svg">
<path d="M28.5 15V38.1972C28.5 38.4442 28.561 38.6873 28.6775 38.905C28.794 39.1227 28.9625 39.3083 29.1679 39.4453L31.229 40.8193C31.429 40.9526 31.6581 41.036 31.897 41.0622C32.136 41.0885 32.3777 41.057 32.6019 40.9703C32.8261 40.8836 33.0262 40.7444 33.1853 40.5642C33.3444 40.384 33.4579 40.1682 33.5162 39.935L36 30" stroke="#007AFF" stroke-width="2" stroke-linecap="round" stroke-linejoin="round"/>
<path d="M36 29.9997C37.9891 29.9997 39.8968 29.2095 41.3033 27.803C42.7098 26.3965 43.5 24.4888 43.5 22.4997C43.5 20.5106 42.7098 18.6029 41.3033 17.1964C39.8968 15.7899 37.9891 14.9997 36 14.9997H28.5C28.5 14.9997 18.2903 14.9997 8.46543 6.75954C8.24692 6.57563 7.98044 6.45794 7.69733 6.42031C7.41422 6.38267 7.12625 6.42666 6.86728 6.5471C6.60832 6.66754 6.38912 6.85942 6.23549 7.10017C6.08185 7.34093 6.00015 7.62055 6 7.90615V37.0933C6.00015 37.3789 6.08185 37.6585 6.23549 37.8993C6.38912 38.14 6.60832 38.3319 6.86728 38.4523C7.12625 38.5728 7.41422 38.6168 7.69733 38.5791C7.98044 38.5415 8.24692 38.4238 8.46543 38.2399C18.2903 29.9997 28.5 29.9997 28.5 29.9997H36Z" stroke="#007AFF" stroke-width="2" stroke-linecap="round" stroke-linejoin="round"/>
</svg>
