<svg fill="none" xmlns="http://www.w3.org/2000/svg" viewBox="0 0 48 48"><path d="M24 33a9 9 0 1 0 0-18 9 9 0 0 0 0 18Z" stroke="#007AFF" stroke-width="2" stroke-linecap="round" stroke-linejoin="round"/><path d="M37.01 15.12c.45.65.84 1.34 1.18 2.05l4.87 2.7c.6 2.72.6 5.54 0 8.26l-4.86 2.7c-.35.71-.74 1.4-1.19 2.05l.1 5.56a19.48 19.48 0 0 1-7.15 4.13l-4.78-2.86c-.78.06-1.57.06-2.36 0l-4.77 2.86a19.48 19.48 0 0 1-7.16-4.12l.1-5.57c-.45-.65-.84-1.34-1.18-2.05l-4.87-2.7c-.59-2.72-.6-5.54 0-8.26l4.87-2.7c.34-.71.73-1.4 1.18-2.04l-.1-5.57a19.48 19.48 0 0 1 7.16-4.13l4.77 2.86a15.5 15.5 0 0 1 2.36 0l4.77-2.86a19.4 19.4 0 0 1 7.16 4.13l-.1 5.56Z" stroke="#007AFF" stroke-width="2" stroke-linecap="round" stroke-linejoin="round"/></svg>