<svg width="48" height="37" viewBox="0 0 48 37" fill="none" xmlns="http://www.w3.org/2000/svg">
<path fill-rule="evenodd" clip-rule="evenodd" d="M36.4022 18.7304V23.3873L40.6985 20.9087V18.1775H47.6489V36.3571H40.7128V33.8832L36.4165 36.3571H29.4518V32.4771C26.5662 34.7399 23.0633 36.0793 19.4021 36.3199C15.7409 36.5604 12.0924 35.6909 8.93478 33.8251C5.77712 31.9594 3.25768 29.1846 1.7067 25.8644C0.155708 22.5442 -0.354455 18.8336 0.243077 15.2189C0.840608 11.6042 2.51795 8.25412 5.05525 5.60774C7.59255 2.96137 10.8714 1.14219 14.462 0.388676C18.0527 -0.364835 21.7875 -0.017518 25.177 1.38508C28.5666 2.78768 31.4526 5.18013 33.4569 8.24883L23.6757 13.8829C22.659 12.5886 21.2157 11.696 19.6023 11.3638C17.9888 11.0315 16.3097 11.2811 14.8631 12.0682C13.4165 12.8552 12.2962 14.1288 11.7011 15.6627C11.106 17.1966 11.0747 18.8914 11.6128 20.4461C12.1508 22.0009 13.2234 23.3148 14.6399 24.1546C16.0564 24.9944 17.7252 25.3056 19.3498 25.033C20.9745 24.7604 22.4497 23.9216 23.5135 22.6656C24.5773 21.4096 25.1608 19.8177 25.1603 18.1728V18.1489H36.4118V18.1728C36.4118 18.3586 36.4118 18.5445 36.4118 18.7257L36.4022 18.7304Z" fill="#007BFB"/>
</svg>
