<svg width="24" height="24" viewBox="0 0 24 24" fill="none" xmlns="http://www.w3.org/2000/svg">
<path d="M21.1294 22L2 22" stroke="url(#icon-gradient-2)" stroke-width="2" stroke-linecap="round" stroke-linejoin="round"/>
<path d="M13.3027 7.21778L13.3027 17.652C13.3027 18.1322 13.692 18.5215 14.1723 18.5215H18.5198C19.0001 18.5215 19.3893 18.1322 19.3893 17.652V7.21778C19.3893 6.73756 19.0001 6.34826 18.5198 6.34826H14.1723C13.692 6.34826 13.3027 6.73756 13.3027 7.21778Z" stroke="url(#icon-gradient-2)" stroke-width="2" stroke-linecap="round" stroke-linejoin="round"/>
<path d="M8.95538 2L4.6078 2C4.12758 2 3.73828 2.3893 3.73828 2.86952L3.73828 17.6513C3.73828 18.1315 4.12758 18.5208 4.6078 18.5208H8.95538C9.4356 18.5208 9.82489 18.1315 9.82489 17.6513L9.82489 2.86952C9.82489 2.3893 9.4356 2 8.95538 2Z" stroke="url(#icon-gradient-2)" stroke-width="2" stroke-linecap="round" stroke-linejoin="round"/>
</svg>
