<svg width="255" height="74" viewBox="0 0 255 74" fill="none" xmlns="http://www.w3.org/2000/svg">
<g clip-path="url(#clip0_1630_32902)">
<path fill-rule="evenodd" clip-rule="evenodd" d="M44.7078 22.2631L23.0465 71.2193C32.0188 74.8888 42.0751 74.9278 51.0759 71.3281L45.6912 22.4154C45.359 22.3983 45.0295 22.3473 44.7078 22.2631ZM47.5487 22.1587C47.9709 22.0223 48.3724 21.8291 48.7419 21.5842L72.877 47.4331C70.1015 56.7831 63.7411 64.6697 55.1712 69.3872L47.5487 22.1587ZM50.9753 17.6329L67.584 15.6355C72.0159 21.8696 74.3924 29.3209 74.3848 36.9587C74.3881 38.8861 74.242 40.8109 73.9478 42.7159L50.1187 20.2352C50.6531 19.4651 50.9563 18.5595 50.9928 17.6242L50.9753 17.6329ZM46.0714 12.4109C47.0447 12.4332 47.9905 12.7362 48.7942 13.283C49.5979 13.8299 50.225 14.5972 50.5995 15.4919L64.7999 12.1368C58.3063 4.95994 49.2463 0.602794 39.5634 0L44.8083 12.5502C45.2228 12.4475 45.6487 12.3978 46.0758 12.4022L46.0714 12.4109ZM42.8021 13.5467C42.0078 14.1887 41.4298 15.0573 41.1456 16.0359L9.49737 12.2586C16.0395 4.97064 25.2168 0.562362 35.0179 0L42.8021 13.5511V13.5467ZM40.9839 17.9724C41.0218 18.4013 41.1189 18.823 41.2724 19.2256L0.515569 43.0814C-1.07567 33.684 1.04147 24.0378 6.42476 16.1577L40.9839 17.9724ZM42.2689 20.814C42.4961 21.0621 42.748 21.2866 43.0207 21.4842L19.1173 69.3524C10.622 64.6374 4.31481 56.8022 1.54268 47.5201L42.2689 20.814ZM188.517 52.085H206.223V46.1276H194.859V39.6871H204.649V33.8994H194.859V27.633H206.223V21.7975H188.517V52.085ZM209.719 27.5417H216.227V52.085H222.525V27.5417H229.025V21.7975H209.706V27.5417H209.719ZM249.274 21.7975L240.576 39.3825H240.489V21.7975H234.195V52.085H240.139L248.619 35.5966H248.667V52.085H255V21.7975H249.274ZM105.478 24.1039C104.583 23.3038 103.522 22.7096 102.37 22.3632C101.096 21.9732 99.7697 21.7809 98.4368 21.7931H88.7776V52.0807H95.1107V41.0362H98.7777C100.121 41.0547 101.456 40.8184 102.711 40.3399C103.829 39.9043 104.842 39.2384 105.683 38.386C106.516 37.512 107.156 36.4744 107.563 35.3398C108.012 34.0695 108.234 32.7307 108.218 31.3842C108.258 29.9215 108.021 28.4644 107.519 27.0891C107.083 25.9562 106.396 24.9358 105.509 24.1039H105.478ZM100.963 34.2911C100.269 34.8646 99.3915 35.1731 98.4893 35.1614H95.1238V27.6287H98.4499C99.4031 27.5788 100.34 27.8897 101.072 28.499C101.716 29.0793 102.038 30.0163 102.038 31.3102C102.038 32.7245 101.676 33.7254 100.967 34.3085L100.963 34.2911ZM130.05 24.6522C129.22 23.7017 128.191 22.9441 127.034 22.4328C125.673 21.8393 124.198 21.5497 122.712 21.5842C121.156 21.5308 119.608 21.8284 118.184 22.4546C117.01 22.9895 115.967 23.7703 115.124 24.7435C114.348 25.6529 113.769 26.7122 113.424 27.855C113.076 28.9623 112.898 30.1153 112.895 31.2754V42.0762C112.89 43.4012 113.075 44.7201 113.446 45.9927C113.786 47.1954 114.374 48.3144 115.172 49.2782C116.001 50.254 117.049 51.0217 118.232 51.5193C120.92 52.5728 123.899 52.6269 126.623 51.6716C127.772 51.2433 128.815 50.5757 129.683 49.7134C130.557 48.8296 131.243 47.7785 131.698 46.6237C132.193 45.3246 132.436 43.9441 132.415 42.5549V31.2928C132.413 30.0922 132.214 28.8999 131.825 27.7636C131.442 26.6225 130.841 25.5659 130.055 24.6522H130.05ZM126.029 42.9944C126.052 43.4408 125.975 43.8865 125.805 44.3002C125.635 44.7138 125.376 45.0851 125.046 45.3878C124.406 45.9604 123.572 46.2713 122.712 46.2582C121.453 46.2582 120.557 45.8883 120.015 45.1311C119.45 44.2819 119.169 43.2768 119.211 42.259V31.023C119.216 30.6464 119.283 30.2732 119.407 29.9177C119.542 29.5213 119.748 29.1526 120.015 28.8298C120.306 28.4847 120.664 28.2019 121.068 27.9986C121.577 27.7694 122.132 27.6593 122.69 27.6766C123.244 27.6585 123.792 27.7861 124.281 28.0465C124.677 28.2675 125.026 28.5631 125.308 28.9168C125.566 29.2476 125.759 29.6242 125.876 30.0265C125.969 30.3524 126.02 30.6887 126.029 31.0273V42.9944ZM145.042 29.9394C145.161 29.5245 145.367 29.1392 145.645 28.8086C145.924 28.478 146.269 28.2094 146.659 28.0203C147.166 27.7924 147.719 27.6823 148.276 27.6983C148.821 27.6818 149.362 27.8015 149.849 28.0465C150.259 28.257 150.629 28.5368 150.942 28.8733C151.227 29.1807 151.444 29.5438 151.58 29.9394C151.693 30.2752 151.787 30.6166 151.864 30.9621L157.835 29.1561C157.627 28.1587 157.273 27.197 156.786 26.3014C156.293 25.3897 155.642 24.5721 154.863 23.8863C154.025 23.1625 153.063 22.5963 152.022 22.2152C149.322 21.2928 146.376 21.3841 143.739 22.472C142.582 23.0065 141.557 23.7879 140.736 24.761C139.972 25.6755 139.4 26.7336 139.054 27.8724C138.708 28.9799 138.531 30.1329 138.529 31.2928V42.0762C138.522 43.4014 138.707 44.7206 139.08 45.9927C139.416 47.1907 139.993 48.3084 140.776 49.2782C141.59 50.2526 142.623 51.0219 143.792 51.5237C145.213 52.1061 146.74 52.3877 148.276 52.3505C150.543 52.4182 152.764 51.7101 154.57 50.3444C156.302 48.9727 157.449 47.0003 157.782 44.8221L151.742 43.0814C151.674 43.954 151.275 44.768 150.625 45.3575C149.975 45.9469 149.124 46.2675 148.245 46.2538C146.995 46.2538 146.108 45.8796 145.601 45.1267C145.063 44.2672 144.797 43.2667 144.836 42.2546V31.023C144.84 30.648 144.899 30.2757 145.011 29.9177L145.042 29.9394ZM169.697 29.9394C169.812 29.5428 170.005 29.1729 170.265 28.8515C170.548 28.4999 170.906 28.2159 171.314 28.0203C171.821 27.7916 172.374 27.6814 172.931 27.6983C173.475 27.6822 174.015 27.8018 174.5 28.0465C174.908 28.2593 175.278 28.5387 175.593 28.8733C175.879 29.1795 176.097 29.543 176.231 29.9394C176.343 30.2752 176.438 30.6166 176.515 30.9621L182.485 29.1561C182.278 28.1587 181.924 27.197 181.436 26.3014C180.944 25.3908 180.294 24.5734 179.518 23.8863C178.679 23.1644 177.717 22.5984 176.677 22.2152C173.97 21.2885 171.016 21.3798 168.372 22.472C167.212 23.0072 166.182 23.7884 165.357 24.761C164.592 25.6755 164.02 26.7336 163.674 27.8724C163.332 28.9808 163.155 30.1333 163.149 31.2928V42.0762C163.146 43.4011 163.332 44.7197 163.7 45.9927C164.036 47.1917 164.615 48.3098 165.4 49.2782C166.214 50.2526 167.247 51.0219 168.416 51.5237C169.837 52.1061 171.364 52.3877 172.901 52.3505C175.168 52.4215 177.392 51.7148 179.199 50.3487C180.941 48.9805 182.098 47.0057 182.437 44.8221L176.401 43.0814C176.332 43.9532 175.932 44.766 175.282 45.3551C174.633 45.9441 173.783 46.2654 172.905 46.2538C171.65 46.2538 170.763 45.8796 170.261 45.1267C169.719 44.2686 169.451 43.2673 169.491 42.2546V31.023C169.501 30.6472 169.566 30.2749 169.684 29.9177L169.697 29.9394Z" fill="#CCCED7"/>
</g>
</svg>
