<svg width="48" height="48" viewBox="0 0 48 48" fill="none" xmlns="http://www.w3.org/2000/svg">
<path d="M16.5 30C21.8848 30 26.25 25.6348 26.25 20.25C26.25 14.8652 21.8848 10.5 16.5 10.5C11.1152 10.5 6.75 14.8652 6.75 20.25C6.75 25.6348 11.1152 30 16.5 30Z" stroke="#007AFF" stroke-width="2" stroke-miterlimit="10"/>
<path d="M29.1396 10.8635C30.4807 10.4856 31.8871 10.3996 33.2642 10.611C34.6413 10.8225 35.9571 11.3267 37.123 12.0895C38.2888 12.8523 39.2777 13.8561 40.023 15.0333C40.7682 16.2105 41.2525 17.5337 41.4433 18.9138C41.6341 20.294 41.5269 21.6989 41.129 23.0342C40.7311 24.3694 40.0517 25.6038 39.1365 26.6543C38.2213 27.7049 37.0916 28.5471 35.8236 29.1242C34.5555 29.7014 33.1784 30.0001 31.7852 30.0003" stroke="#007AFF" stroke-width="2" stroke-linecap="round" stroke-linejoin="round"/>
<path d="M2.99902 37.0119C4.52177 34.8459 6.54332 33.0781 8.89299 31.8577C11.2427 30.6372 13.8515 30.0001 16.4992 30C19.1469 29.9999 21.7557 30.6368 24.1055 31.8571C26.4553 33.0773 28.477 34.845 29.9999 37.0109" stroke="#007AFF" stroke-width="2" stroke-linecap="round" stroke-linejoin="round"/>
<path d="M31.7852 30C34.4331 29.9981 37.0425 30.6343 39.3925 31.8546C41.7424 33.075 43.7637 34.8437 45.2852 37.0109" stroke="#007AFF" stroke-width="2" stroke-linecap="round" stroke-linejoin="round"/>
</svg>
