<svg width="235" height="70" viewBox="0 0 235 70" fill="none" xmlns="http://www.w3.org/2000/svg">
<g clip-path="url(#clip0_1630_32788)">
<path fill-rule="evenodd" clip-rule="evenodd" d="M103.687 62.0898H146.835C148.313 62.0898 149.522 63.2992 149.522 64.7773C149.522 66.2553 148.313 67.4644 146.835 67.4644H103.687C102.208 67.4644 100.999 66.2553 100.999 64.7773C100.999 63.2992 102.208 62.0898 103.687 62.0898Z" fill="white" stroke="#CCCED7" stroke-width="1.00223" stroke-miterlimit="2.61313"/>
<path fill-rule="evenodd" clip-rule="evenodd" d="M2.6872 62.0898H45.8354C47.3135 62.0898 48.5229 63.2992 48.5229 64.7773C48.5229 66.2553 47.3135 67.4644 45.8354 67.4644H2.6872C1.20908 67.4644 0 66.2553 0 64.7773C0 63.2992 1.20908 62.0898 2.6872 62.0898Z" fill="#CCCED7"/>
<path fill-rule="evenodd" clip-rule="evenodd" d="M53.1872 62.0898H96.3355C97.8135 62.0898 99.0231 63.2992 99.0231 64.7773C99.0231 66.2553 97.8135 67.4644 96.3355 67.4644H53.1872C51.7092 67.4644 50.5 66.2553 50.5 64.7773C50.5 63.2992 51.7092 62.0898 53.1872 62.0898Z" fill="#CCCED7"/>
<path d="M165.476 58.525L164.111 69.797H160.379C160.176 68.42 159.942 66.6081 159.675 64.3613C159.585 65.3469 159.457 66.3442 159.292 67.3501L158.912 69.797H155.181L153.729 58.525H156.686C156.709 58.8206 156.958 60.9689 157.434 64.973C157.466 64.5642 157.721 62.4159 158.196 58.525H161.043L161.739 64.973C161.846 63.0912 162.107 60.943 162.522 58.525H165.476ZM177.123 58.525L175.757 69.797H172.026C171.823 68.42 171.588 66.6081 171.321 64.3613C171.232 65.3469 171.104 66.3442 170.939 67.3501L170.559 69.797H166.827L165.375 58.525H168.332C168.355 58.8206 168.605 60.9689 169.08 64.973C169.112 64.5642 169.367 62.4159 169.843 58.525H172.69L173.386 64.973C173.493 63.0912 173.754 60.943 174.169 58.525H177.123ZM188.769 58.525L187.404 69.797H183.672C183.469 68.42 183.235 66.6081 182.968 64.3613C182.878 65.3469 182.75 66.3442 182.585 67.3501L182.205 69.797H178.474L177.021 58.525H179.979C180.002 58.8206 180.251 60.9689 180.727 64.973C180.758 64.5642 181.014 62.4159 181.489 58.525H184.336L185.032 64.973C185.139 63.0912 185.4 60.943 185.815 58.525H188.769ZM191.617 66.9936V69.797H189.024V66.9936H191.617ZM195.974 58.525L195.838 60.0038C196.337 58.9455 197.058 58.3831 198.003 58.3222V62.2882C197.375 62.2882 196.914 62.3724 196.618 62.5434C196.325 62.7145 196.142 62.9492 196.075 63.2537C196.006 63.5551 195.974 64.2537 195.974 65.3469V69.797H192.541V58.525H195.974ZM202.697 57.0234V58.7977H203.623V60.5807H202.697V66.6107C202.697 67.3529 202.735 67.7675 202.814 67.8517C202.889 67.9358 203.208 67.9793 203.767 67.9793V69.797H202.384C201.601 69.797 201.045 69.7653 200.709 69.6985C200.375 69.6349 200.082 69.4841 199.827 69.2489C199.572 69.0143 199.413 68.7447 199.352 68.4433C199.288 68.1388 199.256 67.4284 199.256 66.3063V60.5807H198.52V58.7977H199.256V57.0234H202.697ZM207.812 58.525L207.676 60.0038C208.174 58.9455 208.897 58.3831 209.842 58.3222V62.2882C209.212 62.2882 208.751 62.3724 208.456 62.5434C208.163 62.7145 207.98 62.9492 207.914 63.2537C207.844 63.5551 207.812 64.2537 207.812 65.3469V69.797H204.379V58.525H207.812ZM217.612 62.1257H214.57V61.517C214.57 60.9952 214.541 60.6648 214.48 60.5255C214.422 60.3863 214.274 60.3168 214.037 60.3168C213.843 60.3168 213.698 60.3804 213.602 60.5081C213.506 60.6357 213.457 60.827 213.457 61.0821C213.457 61.4271 213.483 61.6823 213.529 61.8417C213.579 62.0043 213.723 62.1807 213.964 62.3724C214.205 62.5664 214.698 62.8476 215.446 63.2129C216.443 63.7002 217.095 64.161 217.408 64.5901C217.719 65.0222 217.875 65.6453 217.875 66.4688C217.875 67.385 217.756 68.0778 217.519 68.5445C217.281 69.0115 216.881 69.3707 216.324 69.6232C215.767 69.8755 215.095 69.9999 214.306 69.9999C213.436 69.9999 212.688 69.8638 212.068 69.5941C211.448 69.3215 211.022 68.9533 210.79 68.4894C210.558 68.0255 210.442 67.3214 210.442 66.3819V65.8396H213.483V66.5529C213.483 67.1588 213.521 67.553 213.599 67.733C213.674 67.9157 213.825 68.0053 214.051 68.0053C214.295 68.0053 214.466 67.9444 214.561 67.8226C214.657 67.7009 214.707 67.4428 214.707 67.0545C214.707 66.5152 214.646 66.179 214.521 66.0425C214.39 65.9063 213.724 65.5063 212.523 64.8365C211.515 64.2712 210.9 63.758 210.679 63.2941C210.459 62.8332 210.349 62.2852 210.349 61.6505C210.349 60.7517 210.468 60.088 210.706 59.6585C210.943 59.2326 211.346 58.9021 211.917 58.6701C212.486 58.4381 213.147 58.3222 213.901 58.3222C214.646 58.3222 215.283 58.4179 215.805 58.6065C216.33 58.7977 216.733 59.0468 217.012 59.3571C217.293 59.6702 217.464 59.9572 217.522 60.2241C217.583 60.4906 217.612 60.9083 217.612 61.4736L217.612 62.1257ZM221.076 66.9936V69.797H218.484V66.9936H221.076ZM225.619 57.0234V58.7977H226.544V60.5807H225.619V66.6107C225.619 67.3529 225.657 67.7675 225.735 67.8517C225.811 67.9358 226.13 67.9793 226.689 67.9793V69.797H225.306C224.524 69.797 223.967 69.7653 223.63 69.6985C223.297 69.6349 223.004 69.4841 222.749 69.2489C222.494 69.0143 222.334 68.7447 222.274 68.4433C222.21 68.1388 222.178 67.4284 222.178 66.3063V60.5807H221.442V58.7977H222.178V57.0234H225.619ZM234.706 58.525L233.103 69.797H228.626L226.901 58.525H229.965L230.928 66.7472C231.001 66.1469 231.125 64.6742 231.299 62.3316C231.404 61.0243 231.517 59.7543 231.641 58.525H234.706Z" fill="#CCCED7"/>
<path fill-rule="evenodd" clip-rule="evenodd" d="M5.48134 0H54.6838L54.7006 49.2176C54.7006 52.1967 52.2632 54.6341 49.2841 54.6341H5.48136C2.50193 54.6341 0.0644531 52.197 0.0644531 49.2176V5.41668C0.0644531 2.43737 2.50191 0 5.48134 0ZM17.6741 8.21881H27.6766C30.3826 8.21881 32.4683 8.42821 33.9181 8.85524C35.3756 9.28179 36.4712 9.89397 37.1959 10.6911C37.9288 11.4965 38.4279 12.4709 38.686 13.6064C38.9436 14.7503 39.0726 16.5135 39.0726 18.9054V22.2317C39.0726 24.6715 38.8227 26.4512 38.3236 27.5628C37.8162 28.6819 36.89 29.536 35.5451 30.1398C34.2001 30.7359 32.4441 31.0339 30.2779 31.0339H27.6122V46.4152H17.6741V8.21881ZM27.6122 14.7503V24.4703C27.8938 24.4863 28.1357 24.4942 28.3369 24.4942C29.2549 24.4942 29.8831 24.2691 30.2376 23.826C30.592 23.375 30.7693 22.4407 30.7693 21.0314V17.8906C30.7693 16.586 30.5678 15.7325 30.1571 15.3459C29.7463 14.9513 28.9008 14.7503 27.6122 14.7503Z" fill="#CCCED7"/>
<path fill-rule="evenodd" clip-rule="evenodd" d="M65.5806 0H114.783L114.8 49.2176C114.8 52.1967 112.362 54.6341 109.383 54.6341H65.5806C62.6015 54.6341 60.1641 52.197 60.1641 49.2176V5.41668C60.164 2.43737 62.6015 0 65.5806 0ZM98.4751 8.21881V15.8615H92.58V46.4152H82.6498V15.8615H76.771V8.21881H98.4751Z" fill="#CCCED7"/>
<path fill-rule="evenodd" clip-rule="evenodd" d="M125.681 0H174.883L174.9 49.2176C174.9 52.1967 172.462 54.6341 169.483 54.6341H125.681C122.701 54.6341 120.264 52.197 120.264 49.2176V5.41668C120.264 2.43737 122.701 0 125.681 0ZM137.873 8.21881H147.876C150.582 8.21881 152.668 8.42821 154.117 8.85524C155.575 9.28179 156.67 9.89397 157.395 10.6911C158.128 11.4965 158.627 12.4709 158.885 13.6064C159.143 14.7503 159.271 16.5135 159.271 18.9054V22.2317C159.271 24.6715 159.022 26.4512 158.522 27.5628C158.015 28.6819 157.089 29.536 155.744 30.1398C154.399 30.7359 152.643 31.0339 150.477 31.0339H147.811V46.4152H137.873V8.21881ZM147.811 14.7503V24.4703C148.093 24.4863 148.335 24.4942 148.536 24.4942C149.454 24.4942 150.082 24.2691 150.437 23.826C150.791 23.375 150.968 22.4407 150.968 21.0314V17.8906C150.968 16.586 150.767 15.7325 150.356 15.3459C149.945 14.9513 149.1 14.7503 147.811 14.7503Z" fill="#CCCED7"/>
<path fill-rule="evenodd" clip-rule="evenodd" d="M185.78 0H234.982L235 49.2176C235 52.1967 232.562 54.6341 229.583 54.6341H185.78C182.801 54.6341 180.363 52.197 180.363 49.2176V5.41668C180.363 2.43737 182.801 0 185.78 0ZM219.183 24.6704H209.65V18.2844C209.65 16.429 209.542 15.2693 209.341 14.8057C209.14 14.3495 208.691 14.1173 207.995 14.1173C207.207 14.1173 206.712 14.3958 206.495 14.9524C206.287 15.5169 206.178 16.7229 206.178 18.5783V35.6099C206.178 37.3959 206.287 38.5554 206.495 39.0966C206.712 39.6458 207.184 39.9164 207.926 39.9164C208.637 39.9164 209.101 39.6458 209.317 39.0966C209.534 38.5554 209.65 37.2799 209.65 35.2698V30.6773H219.183V32.0999C219.183 35.8885 218.912 38.5786 218.379 40.1637C217.845 41.7485 216.654 43.14 214.822 44.3306C212.99 45.5212 210.725 46.1241 208.042 46.1241C205.243 46.1241 202.939 45.6139 201.13 44.6013C199.321 43.5885 198.115 42.1891 197.527 40.4032C196.939 38.6093 196.646 35.9192 196.646 32.3244V21.6165C196.646 18.9725 196.739 16.9935 196.916 15.6715C197.102 14.3495 197.635 13.0738 198.54 11.8523C199.437 10.6306 200.682 9.6644 202.274 8.96097C203.867 8.26503 205.699 7.90921 207.763 7.90921C210.578 7.90921 212.897 8.45827 214.722 9.54045C216.546 10.6306 217.745 11.9837 218.324 13.6071C218.897 15.2305 219.183 17.7589 219.183 21.1837V24.6704Z" fill="#CCCED7"/>
</g>
</svg>
