<svg width="25" height="24" viewBox="0 0 25 24" fill="none" xmlns="http://www.w3.org/2000/svg">
<path d="M3.11182 5H21.7785V18.2222C21.7785 18.4285 21.6965 18.6263 21.5507 18.7722C21.4048 18.9181 21.207 19 21.0007 19H3.88959C3.68331 19 3.48548 18.9181 3.33962 18.7722C3.19376 18.6263 3.11182 18.4285 3.11182 18.2222V5Z" stroke="url(#icon-gradient-1)" stroke-width="2" stroke-linecap="round" stroke-linejoin="round"/>
<path d="M3.11182 5H21.7785V18.2222C21.7785 18.4285 21.6965 18.6263 21.5507 18.7722C21.4048 18.9181 21.207 19 21.0007 19H3.88959C3.68331 19 3.48548 18.9181 3.33962 18.7722C3.19376 18.6263 3.11182 18.4285 3.11182 18.2222V5Z" stroke="url(#icon-gradient-2)" stroke-width="2" stroke-linecap="round" stroke-linejoin="round"/>
<path d="M21.4446 5.64258L12.8766 13.7867L3.54327 5.38672" stroke="url(#icon-gradient-3)" stroke-width="2" stroke-linecap="square" stroke-linejoin="round"/>
</svg>
