<svg width="60" height="28" viewBox="0 0 60 28" fill="none" xmlns="http://www.w3.org/2000/svg">
<path d="M23.2718 27.9685C26.4433 28.1896 30.4798 27.2053 34.6966 26.3208C41.1189 24.9798 49.2424 23.2679 50.3885 26.1995C50.5327 24.7729 50.2948 23.2108 47.8513 22.1765C44.0238 20.5573 36.5779 22.0125 32.1017 22.6616C26.8037 23.4248 18.5289 24.8585 17.4477 21.4275C15.5808 25.3293 19.7615 27.7188 23.2718 27.9685ZM10.5424 18.6457C10.4775 16.7911 13.2382 15.9922 14.9969 16.2205C14.6221 18.5458 12.921 19.6158 11.7317 19.6158C11.0686 19.6158 10.564 19.2805 10.5424 18.6457ZM21.2391 15.657C21.3328 14.3302 22.2555 11.8194 23.7619 11.4414C24.8143 11.1775 25.0882 13.0891 23.9998 14.3659C23.4664 15.0007 22.7384 15.6641 21.4121 15.6641C21.3544 15.657 21.304 15.657 21.2391 15.657ZM51.0877 4.05161C51.4625 3.05299 51.7869 2.1899 52.5365 2.01158C53.4015 1.80472 54.2088 3.26698 53.1059 4.08727C52.9041 4.23707 52.6374 4.34406 52.277 4.34406C51.9526 4.34406 51.5706 4.2656 51.0877 4.05161ZM48.4207 2.9674L48.3991 2.96026C45.9411 1.90458 43.476 0.963029 40.4125 1.99731C36.4121 3.44531 36.8229 6.96187 38.452 7.21152C39.944 4.58658 44.3193 4.72211 47.3034 5.30701C46.9575 6.19864 46.4673 8.49546 46.2078 9.76513C45.5014 13.246 44.6004 15.3075 43.5553 16.3346C42.6254 17.2476 41.3496 17.4117 40.6504 16.9694C39.6557 16.3417 39.4178 13.9451 40.29 11.6482C41.883 7.43977 43.6345 11.0633 42.1497 12.6183C43.4904 13.3744 44.4202 12.3615 44.7302 11.3772C45.7105 8.26007 44.1968 5.32841 40.8378 7.0118C38.3871 8.2458 37.4356 11.7695 37.1833 14.2732C37.0464 15.6356 36.8806 16.9552 36.1742 17.4117C35.2083 18.0394 34.0118 17.4117 34.4371 14.9722C34.5956 14.052 34.8191 13.2246 34.7542 12.5541C34.6533 11.4913 33.5505 10.6068 32.4837 11.4128C32.8729 12.818 31.2583 18.1535 29.413 18.0536C28.1877 17.9823 28.822 12.8608 31.5683 10.9278C33.0531 9.88639 35.4822 10.1218 35.5039 12.2973C38.0555 11.7624 36.8806 6.22004 32.3684 7.5539C28.6995 8.63811 27.4525 11.4271 26.5154 13.9522C25.8667 15.7069 25.0378 18.3818 22.8249 18.8026C21.5346 19.0523 20.9868 17.8682 21.1022 16.8125C22.6879 16.7982 23.9493 16.1991 24.9224 14.9294C27.5462 11.5198 25.7946 6.83347 21.9455 8.93057C19.5236 10.2502 18.6658 12.8894 18.3415 15.393C18.1685 15.3574 17.909 15.336 17.7288 15.3003C18.1036 11.8622 17.354 8.17447 13.5625 6.3199C10.3405 4.74351 5.2949 5.30701 2.53421 8.30287C-0.0102289 11.0633 -0.74545 17.4259 5.28769 16.2989C4.42993 12.4257 7.49336 9.99338 9.90085 9.62247C13.2238 9.10176 15.4006 11.4842 15.1411 14.9793C13.2093 14.8723 11.4362 15.2647 10.427 15.9993C11.119 12.4685 11.9696 12.1903 12.9715 12.0263C12.0705 10.4428 9.44674 11.1061 8.37274 13.7525C7.73843 15.7069 7.0825 19.0879 5.85713 20.8854C4.47318 22.9255 1.21514 23.1609 1.46742 20.7642C-1.11306 21.3919 -0.320175 27.1839 4.08395 26.8201C7.03925 26.5776 9.02867 24.1951 9.55486 21.9126C9.74227 21.3206 9.84318 20.7 9.98734 20.0865C10.6505 22.4832 13.6923 22.4476 15.3718 21.021C16.698 19.894 17.2891 18.0251 17.5558 16.5343C17.6567 16.5557 18.0604 16.6057 18.2045 16.6199C17.8585 22.098 23.9566 22.9469 25.9244 18.1892C25.7874 19.3519 27.1281 20.757 28.6057 20.6501C30.8475 20.3861 31.8277 18.503 31.9647 17.1906C32.2746 21.5916 37.241 20.7285 37.4789 17.4973C38.6538 20.807 43.4904 20.8355 45.0041 16.1705C44.7158 19.9154 48.673 21.3633 50.3741 18.4032C47.4548 17.4117 50.1074 10.0504 51.9382 9.55114C53.0122 9.25869 52.8392 11.5698 52.8825 14.1091C52.9257 16.57 52.9546 21.9982 56.6811 22.0053C58.548 22.0053 60.3789 19.9796 59.932 18.1535C56.6955 18.8953 56.8757 15.8567 56.8613 12.9607C57.0415 8.03181 55.362 5.90618 53.3726 6.3413C51.2463 6.80494 49.9272 8.77364 48.7379 12.4471C48.8388 11.1489 49.3866 8.45979 50.3597 5.81346C52.0968 5.93472 54.461 5.22142 54.5836 3.06726C54.6629 1.63353 53.9997 0.642045 53.0411 0.235465C52.659 0.0714068 52.2842 7.71119e-05 51.931 7.71119e-05C50.093 -0.0141888 48.7306 1.95451 48.4207 2.9674Z" fill="#252525"/>
</svg>
