<svg width="25" height="24" viewBox="0 0 25 24" fill="none" xmlns="http://www.w3.org/2000/svg">
<path d="M19.542 18.8079H21.8345C22.4903 18.8079 22.8235 18.546 22.9859 18.3239C23.1452 18.1133 23.2971 17.7403 23.1253 17.1472C22.9189 16.506 22.2528 15.6781 21.0164 14.2878C20.7356 13.9556 19.8287 13.3588 19.6679 12.4742C19.3889 10.9396 22.4065 8.19111 22.702 6.83008C22.8633 6.29154 22.725 5.94683 22.5804 5.753C22.3636 5.46173 22.0021 5.31295 21.5065 5.31295L19.214 5.31295C18.5162 5.31295 18.0049 5.64718 17.7315 6.2863C17.7199 6.31459 16.5062 9.25167 15.0283 10.6806C14.8034 10.8979 14.4925 10.7576 14.4875 10.4449C14.4777 9.82423 14.4652 9.02078 14.4647 9.00694C14.401 7.23433 14.4971 6.55767 14.4971 6.55767C14.4971 5.4282 13.8569 5.19141 13.3184 5.19141L9.71621 5.31399C9.03203 5.31399 8.60874 5.85987 8.60874 6.36488C8.60874 6.76093 8.8162 7.01763 8.99955 7.24394C9.22377 7.52055 9.47732 7.83487 9.52028 8.59868L9.52028 11.9745C9.52028 12.1236 9.37159 12.1976 9.26398 12.0945C8.47826 11.3416 6.89723 9.229 5.98073 6.55767C5.77223 5.95626 5.80916 5.31399 4.80333 5.31399L2.51086 5.31399C1.67894 5.31399 1.20117 5.74147 1.20117 6.48642C1.20117 7.33195 2.13681 10.4961 4.91334 14.3885C6.84119 17.1556 9.61563 18.8079 12.3356 18.8079C13.6337 18.8079 14.4971 18.5669 14.4971 17.3924C14.4971 17.3924 14.3158 15.0758 14.5107 15.0758C14.7056 15.0758 15.2357 15.1974 16.4868 16.4033C16.927 16.8446 17.2617 17.2159 17.5358 17.5199L17.5607 17.5475L17.5651 17.5524C18.2697 18.3353 18.6951 18.8079 19.542 18.8079Z" stroke="currentColor" stroke-width="2"/>
</svg>
