<svg xmlns="http://www.w3.org/2000/svg" width="24" height="24" fill="none" viewBox="0 0 24 24">
  <path stroke="url(#icon-gradient-2)" stroke-linecap="square" stroke-linejoin="round" stroke-width="2" d="M16.5 12H21a.75.75 0 0 1 .75.75v6a.75.75 0 0 1-.75.75H3a.75.75 0 0 1-.75-.75v-6A.75.75 0 0 1 3 12h4.5M12 2.25V12"/>
  <path stroke="url(#icon-gradient-2)" stroke-linecap="square" stroke-linejoin="round" stroke-width="2" d="M7.5 7.5 12 12l4.5-4.5"/>
  <path fill="url(#icon-gradient-2)" d="M17.625 16.875a1.125 1.125 0 1 0 0-2.25 1.125 1.125 0 0 0 0 2.25Z"/>
</svg>
