<svg width="48" height="48" viewBox="0 0 48 48" fill="none" xmlns="http://www.w3.org/2000/svg">
<path d="M41.5526 28.004C41.8621 26.6398 42.0121 25.2443 41.9994 23.8455C41.9162 13.94 33.7203 5.90114 23.8149 6.00092C19.5843 6.04514 15.5043 7.57797 12.2911 10.3304C9.07794 13.0828 6.93678 16.879 6.24343 21.0527C5.55008 25.2264 6.34883 29.511 8.49951 33.1545C10.6502 36.798 14.0154 39.5676 18.0045 40.9773C18.6832 41.2164 19.4094 41.2892 20.1221 41.1897C20.8348 41.0902 21.5132 40.8212 22.1005 40.4053C22.6877 39.9895 23.1667 39.4388 23.4972 38.7996C23.8278 38.1604 24.0002 37.4513 24 36.7317V36C24 34.8065 24.4741 33.6619 25.318 32.818C26.162 31.9741 27.3066 31.5 28.5 31.5H37.1643C38.1836 31.5007 39.173 31.1551 39.9703 30.52C40.7675 29.8848 41.3255 28.9977 41.5526 28.004V28.004Z" stroke="#007AFF" stroke-width="2" stroke-linecap="round" stroke-linejoin="round"/>
<path d="M24 16.5C25.2426 16.5 26.25 15.4926 26.25 14.25C26.25 13.0074 25.2426 12 24 12C22.7574 12 21.75 13.0074 21.75 14.25C21.75 15.4926 22.7574 16.5 24 16.5Z" fill="#007AFF"/>
<path d="M15.5566 21.375C16.7993 21.375 17.8066 20.3676 17.8066 19.125C17.8066 17.8824 16.7993 16.875 15.5566 16.875C14.314 16.875 13.3066 17.8824 13.3066 19.125C13.3066 20.3676 14.314 21.375 15.5566 21.375Z" fill="#007AFF"/>
<path d="M15.5566 31.125C16.7993 31.125 17.8066 30.1176 17.8066 28.875C17.8066 27.6324 16.7993 26.625 15.5566 26.625C14.314 26.625 13.3066 27.6324 13.3066 28.875C13.3066 30.1176 14.314 31.125 15.5566 31.125Z" fill="#007AFF"/>
<path d="M32.4434 21.375C33.686 21.375 34.6934 20.3676 34.6934 19.125C34.6934 17.8824 33.686 16.875 32.4434 16.875C31.2007 16.875 30.1934 17.8824 30.1934 19.125C30.1934 20.3676 31.2007 21.375 32.4434 21.375Z" fill="#007AFF"/>
</svg>
