<svg width="349" height="74" viewBox="0 0 349 74" fill="none" xmlns="http://www.w3.org/2000/svg">
<g clip-path="url(#clip0_1630_32880)">
<path fill-rule="evenodd" clip-rule="evenodd" d="M0 37C0 57.4257 16.4984 74 36.8305 74C57.1626 74 73.661 57.4257 73.661 37C73.661 16.5743 57.1626 0 36.8305 0C16.4984 0 0 16.5743 0 37ZM1.30071 37C1.30071 17.2621 17.2515 1.23792 36.899 1.23792C56.5465 1.23792 72.4973 17.2621 72.4973 37C72.4973 56.6691 56.5465 72.6933 36.899 72.6933C17.2515 72.7621 1.30071 56.7379 1.30071 37Z" fill="#CCCED7"/>
<path fill-rule="evenodd" clip-rule="evenodd" d="M11.5012 26.8897C20.9484 20.7001 31.3541 17.0551 49.0163 20.1499C49.9747 19.5997 50.5224 19.0495 50.7962 17.8804C46.4149 16.2986 41.6228 15.7484 35.4616 15.8172C29.9165 15.9547 19.9216 18.0179 14.5818 21.1815L16.2248 19.1183C19.99 16.9176 29.7111 14.0291 36.9677 13.8228C42.102 13.754 44.7719 14.0291 50.8647 15.6796C50.317 14.648 49.0848 14.0979 47.2364 13.2726C41.349 10.5904 30.2587 10.3841 21.2223 14.373C22.3861 13.6164 23.4814 12.9287 24.9875 12.241C27.9996 10.8655 32.8602 9.55883 38.9529 9.6276C43.8135 9.69637 49.6324 11.4157 53.1922 14.9231C53.8084 15.6109 54.1507 16.3674 54.2876 16.9863C57.0944 18.4306 58.7374 19.7373 59.6273 21.3191C59.9696 22.1443 60.175 23.0384 59.9696 24.0012C61.1334 24.6889 61.6811 25.3079 62.2972 26.0644C62.7079 26.6834 63.0502 27.4399 63.1187 28.1276C63.2556 29.0217 63.3241 29.9845 62.4341 31.1536C63.3925 31.635 64.1456 32.9417 64.2825 33.5607C64.6932 35.6927 63.3925 37.7559 61.5442 39.4064C59.4904 41.2633 54.9037 43.3953 51.207 44.3581C43.8135 46.215 37.3099 47.0402 32.1071 48.0031C34.4347 48.5533 37.5838 49.3098 42.7866 49.3098C53.8084 49.3098 63.5294 44.083 63.5294 44.083C63.5294 44.083 63.3241 44.7707 63.1187 45.3897C56.1359 49.6536 44.9773 51.4417 40.2536 51.2354C35.3931 51.0291 31.3541 50.2726 27.3835 49.0347C26.1513 49.3785 24.9875 49.7224 23.8237 50.2726C29.848 53.0235 34.4347 53.6425 39.6375 54.0551C44.9088 54.4677 53.603 53.1611 60.9965 50.4789C60.6542 50.8228 60.5173 51.373 60.175 51.648C56.4098 53.6425 48.4002 55.6369 44.4296 55.7744C40.459 55.912 35.5985 55.7744 31.3541 55.0179C27.7258 54.3302 24.7136 53.1611 21.633 51.7856C21.0853 52.1982 20.8115 52.7484 20.6746 53.3674C32.5179 59.6945 43.8819 59.8321 56.8205 55.7744L55.6567 56.9436C41.4174 62.7205 30.3272 60.451 21.7015 56.3246C21.4276 56.1871 21.0853 56.0495 20.8115 55.912C21.633 57.2875 28.205 62.1016 35.53 62.7205C40.5959 63.1332 46.7572 62.2391 50.4539 60.7949L48.2633 61.8953C46.4833 62.7893 41.7597 64.7837 35.1877 64.3023C26.4251 63.6834 21.4961 59.8321 19.237 57.7689C18.2101 56.806 17.7309 55.7057 17.3886 54.3302C15.4033 53.2986 14.1711 52.1982 13.1442 50.6165C12.5281 49.6536 12.665 48.622 12.8019 47.728L13.0073 46.9027C12.0489 46.215 11.0904 45.4585 10.6797 44.702C9.78974 43.1202 10.3374 41.8135 10.9535 40.7131C10.4059 40.0941 9.92666 39.544 9.72128 38.925C9.51591 38.1685 9.44745 37.4808 9.51591 36.7243C9.65282 35.4176 10.4059 34.1796 11.2958 33.148C13.2127 30.9473 16.2248 29.228 21.4276 27.5086C26.4935 25.8581 28.4788 25.583 32.3125 24.6889C36.7623 23.6573 42.102 23.3135 46.5518 21.7317C34.1609 19.5309 21.2223 21.5254 10.7482 28.8153L11.5012 26.8897ZM53.7399 19.1871C53.603 19.806 52.9184 20.4938 52.5077 20.9752C53.8768 21.3191 55.246 21.8005 56.5467 22.3506C56.3413 21.1127 54.9722 19.9436 53.7399 19.1871ZM15.5402 44.083C14.7187 43.6016 14.1711 43.3265 13.5549 42.8451C13.2126 43.6016 13.8972 44.4956 14.5818 44.9083C14.8556 44.6332 15.1979 44.3581 15.5402 44.083ZM57.3682 27.7837C58.2582 28.1964 59.0797 28.5402 59.8327 29.0904C60.3804 27.9901 60.0381 27.3023 58.8743 26.3395C58.4635 26.8897 57.9159 27.3711 57.3682 27.7837ZM54.6983 29.4343C52.9184 30.2596 50.2485 31.1536 46.5518 32.1164C43.5396 32.873 36.0777 33.9733 28.0681 35.6927C25.5351 36.2428 18.6893 37.8934 15.3349 40.7131C16.2933 41.4696 16.8409 41.6759 17.9363 42.2261C19.3054 41.3321 21.2223 40.5068 24.029 39.7503C28.958 38.4436 32.5863 37.8934 37.0361 37.1369C41.4174 36.4492 49.6324 34.7298 54.2191 33.0793C55.7252 32.5291 57.0944 31.8414 58.1212 31.0161C57.7789 30.741 54.8352 29.2967 54.6983 29.4343ZM20.1954 48.622C20.88 48.2094 21.7015 47.7967 22.5914 47.4529C21.2907 46.9027 19.99 46.3525 18.6893 45.7336C18.0732 46.0774 17.5255 46.4901 17.1148 46.9027C18.1416 47.4529 19.1001 48.0718 20.1954 48.622ZM15.951 49.0347C15.951 49.8599 16.4302 50.6165 17.5255 51.5105C17.6624 51.0291 17.8678 50.754 18.2101 50.3414C17.3886 49.9287 16.704 49.4473 15.951 49.0347ZM22.1807 33.767C31.1487 31.1536 40.5959 30.3283 50.1801 27.7837C46.4149 26.7521 44.4296 26.3395 40.459 26.8209C34.7085 27.5086 28.4104 28.7466 23.0022 30.3283C20.88 30.9473 9.72128 34.1109 12.9388 38.5811C12.9388 38.6499 14.8556 35.9678 22.1807 33.767ZM55.8621 24.5514C54.4245 23.8637 52.5761 23.2447 50.5908 22.6945C49.7009 23.3822 48.7425 24.0012 47.2364 24.5514C49.6324 24.964 51.4808 25.6518 53.5345 26.2707C53.9453 26.477 55.5883 24.8953 55.8621 24.5514ZM60.3119 33.2168C60.0381 33.4231 59.7642 33.6982 59.4219 33.9046C57.3682 35.4863 54.1507 36.7243 49.7009 37.9622C40.459 40.438 33.7501 40.8506 26.0828 42.7075C24.5767 43.0514 23.0706 43.6016 21.633 44.1518C23.0706 44.9083 24.5767 45.5272 26.1513 46.1462C29.2319 45.2521 30.738 44.8395 35.2562 44.083C36.9677 43.8079 42.2389 42.8451 46.0726 42.0198C52.9184 40.6443 62.9818 37.412 60.3119 33.2168Z" fill="#CCCED7"/>
<path fill-rule="evenodd" clip-rule="evenodd" d="M108.917 53.0924H116.516L117.406 47.5218H122.609L123.499 53.0924H131.097L124.662 20.7002H115.215L108.917 53.0924ZM120.076 30.466L121.513 40.3693H118.707L120.076 30.466Z" fill="#CCCED7"/>
<path fill-rule="evenodd" clip-rule="evenodd" d="M138.354 33.2861C139.586 33.2861 141.777 32.5296 141.777 30.1225C141.777 27.3028 139.175 27.0965 138.491 27.0965C137.601 27.0965 136.026 27.234 134.383 27.9905L134.315 20.9757C136.848 20.3567 138.696 20.1504 140.818 20.1504C146.911 20.1504 149.718 24.4831 149.718 28.6783C149.718 32.8047 147.322 35.2805 145.063 36.2433V36.5872C147.253 37.2749 150.197 39.4069 150.197 44.3586C150.197 50.4794 145.953 53.8493 140.544 53.8493C137.601 53.8493 135.752 53.4366 133.493 52.1987L133.63 45.4589C135.752 46.353 137.19 46.4218 138.628 46.4218C141.024 46.4218 141.982 44.6337 141.982 43.327C141.982 41.5389 140.818 40.3009 138.285 40.3009H135.205V33.2861H138.354Z" fill="#CCCED7"/>
<path fill-rule="evenodd" clip-rule="evenodd" d="M174.157 53.0924H166.627V28.4716H161.219V53.0924H153.688V20.7002H174.157V53.0924Z" fill="#CCCED7"/>
<path fill-rule="evenodd" clip-rule="evenodd" d="M178.401 53.0924H185.863V42.4325H188.396C195.79 42.4325 198.117 35.7615 198.117 31.4976C198.117 27.3024 195.516 20.7002 188.396 20.7002H178.401V53.0924ZM185.863 27.8526H187.643C189.355 27.8526 190.382 28.8842 190.382 31.5664C190.382 35.0738 188.602 35.2801 187.643 35.2801H185.863V27.8526Z" fill="#CCCED7"/>
<path fill-rule="evenodd" clip-rule="evenodd" d="M211.946 53.506C220.845 53.506 223.789 45.1844 223.789 36.8629C223.789 28.5413 220.777 20.2197 211.946 20.2197C203.046 20.2197 200.103 28.5413 200.103 36.8629C200.103 45.1844 203.115 53.506 211.946 53.506ZM211.946 45.6658C209.344 45.6658 207.975 42.571 207.975 36.8629C207.975 31.1547 209.344 28.0599 211.946 28.0599C214.616 28.0599 215.916 31.1547 215.916 36.8629C215.985 42.571 214.616 45.6658 211.946 45.6658Z" fill="#CCCED7"/>
<path fill-rule="evenodd" clip-rule="evenodd" d="M256.375 53.0924H265.343C267.26 53.0924 275.338 52.2671 275.406 42.5013C275.406 34.2485 269.108 32.8043 265.069 32.8043H263.768V28.5403H273.695V20.7002H256.443V53.0924H256.375ZM263.768 46.6277V39.269H264.864C265.754 39.269 268.081 39.3377 268.081 42.6389C268.081 46.0775 265.685 46.6277 264.864 46.6277H263.768Z" fill="#CCCED7"/>
<path fill-rule="evenodd" clip-rule="evenodd" d="M322.163 53.0924H314.907V40.163H309.636V53.0924H302.311V20.7002H309.636V32.3916H314.907V20.7002H322.163V53.0924Z" fill="#CCCED7"/>
<path fill-rule="evenodd" clip-rule="evenodd" d="M348.178 20.7002L342.427 36.1054L348.999 53.0924H340.374L336.198 40.0942H334.418V53.0924H327.093V20.7002H334.418V32.3916H335.992L340.237 20.7002H348.178Z" fill="#CCCED7"/>
<path fill-rule="evenodd" clip-rule="evenodd" d="M94.4717 20.7002H109.806V28.8154H102.071V53.0924H94.4717V20.7002Z" fill="#CCCED7"/>
<path fill-rule="evenodd" clip-rule="evenodd" d="M243.916 53.0924V33.3545L239.398 38.9939L234.88 33.3545V53.0924H227.418V20.7002H233.785L239.398 28.334L245.012 20.7002H251.378V53.0924H243.916Z" fill="#CCCED7"/>
<path fill-rule="evenodd" clip-rule="evenodd" d="M276.844 53.1617H284.443L285.333 47.5911H290.535L291.494 53.1617H299.093L292.658 20.7695H283.21L276.844 53.1617ZM288.002 30.5353L289.44 40.4387H286.633L288.002 30.5353Z" fill="#CCCED7"/>
</g>
</svg>
