<svg width="253" height="82" viewBox="0 0 253 82" fill="none" xmlns="http://www.w3.org/2000/svg">
<path d="M71.1974 10.1602H9.37012V72.531H71.1974V10.1602Z" fill="#CCCED7"/>
<path d="M61.2127 16.3735C59.7918 16.3735 58.7158 17.3245 58.1797 18.4672L50.3949 31.3963C49.8551 32.592 49.461 33.9354 49.4611 34.8246C49.4611 35.6192 49.5691 36.3213 49.8577 36.9683L58.2789 57.2628H25.5777C24.4005 57.2628 23.429 56.0701 23.429 54.9689V20.0104C23.1816 15.2312 16.3726 15.2338 16.2227 20.1605L16.3714 57.2628C16.3714 61.2965 19.4626 64.5281 23.429 64.5281H68.0141L57.1467 36.4762C56.8468 35.4318 56.7132 34.4847 57.4442 33.2397L64.634 21.4451C64.7352 21.1991 64.8819 20.1592 64.8819 19.8602C64.7395 17.7185 63.0759 16.2789 61.2127 16.3735ZM43.5605 16.3902C41.8116 16.402 40.0647 17.6208 40.0647 20.0104V45.0261C40.0647 48.6586 35.2219 48.3597 35.2219 45.0261V20.0104C35.2219 15.2312 28.2139 15.2312 28.2139 20.0104V45.2262C28.2139 50.993 32.4824 54.8271 37.5772 54.8271C42.8107 54.8271 47.0644 50.993 47.0644 45.2262V20.0104C47.0644 17.5735 45.3093 16.3784 43.5605 16.3902Z" fill="white"/>
<path d="M83.3103 17.4902V33.992C83.3103 38.1165 82.8941 40.4096 79.5651 40.4096C78.9428 40.4096 78.5266 40.4096 77.9043 40.1826V47.285C79.1489 47.7467 79.9812 47.7467 81.0234 47.7467C90.3807 47.7467 90.7969 40.6404 90.7969 36.5121V24.5965H96.2028V47.285H103.686V17.4902H83.3103Z" fill="#CCCED7"/>
<path d="M106.183 17.4902L116.372 39.036L112.631 47.285H120.74L132.8 17.4902H124.691L120.324 30.0946L115.124 17.4902H106.183Z" fill="#CCCED7"/>
<path d="M135.087 47.2841H142.574V34.4489L150.266 47.2841H159.83L149.228 31.9288L159.624 17.4893H150.682L142.574 30.0936V17.4893H135.087V47.2841Z" fill="#CCCED7"/>
<path d="M172.099 48.2038C182.079 48.2038 186.652 40.4088 186.652 32.3869C186.652 24.5957 182.079 16.8008 172.099 16.8008C162.326 16.8008 157.752 24.5957 157.752 32.3869C157.752 40.4088 162.326 48.2038 172.099 48.2038ZM172.099 41.0975C168.77 41.0975 165.445 38.1158 165.445 32.3869C165.445 26.658 168.77 23.907 172.099 23.907C175.634 23.907 178.96 26.658 178.96 32.3869C178.96 38.1158 175.634 41.0975 172.099 41.0975Z" fill="#CCCED7"/>
<path d="M190.398 17.4897V47.2845H197.675L208.071 29.4092V47.2845H215.351V17.4897H208.071L197.675 35.3689V17.4897H190.398ZM203.081 15.8853C206.2 15.8853 209.319 14.7388 210.778 11.2992L206.41 9.46777C205.784 11.7608 203.913 11.9879 203.081 11.9879C202.459 11.9879 200.378 11.7608 199.962 9.46777L195.598 11.2992C196.843 14.7388 200.172 15.8853 203.081 15.8853Z" fill="#CCCED7"/>
<path d="M223.254 17.4893V33.9911C223.254 38.1156 222.835 40.4086 219.509 40.4086C218.887 40.4086 218.471 40.4086 217.845 40.1816V47.2841C219.093 47.7457 219.925 47.7457 220.964 47.7457C230.321 47.7457 230.737 40.6394 230.737 36.5112V24.5955H236.143V47.2841H243.63V17.4893H223.254Z" fill="#CCCED7"/>
<path d="M77.9639 64.0062H79.0173V58.4778H85.1693V64.0062H86.2228V53.1689H85.1693V57.6075H79.0173V53.1689H77.9639V64.0062Z" fill="#CCCED7"/>
<path d="M88.9033 64.0062H94.6729V63.1359H89.9568V58.3719H94.4855V57.5016H89.9568V54.043H94.6729V53.1689H88.9033V64.0062Z" fill="#CCCED7"/>
<path d="M101.616 64.006H102.659V62.5151H103.097C106.569 62.5151 108.005 60.4415 108.005 58.2696C108.005 55.7267 106.141 54.0429 103.097 54.0429H102.659V52.7412H101.616V54.0429H101.193C98.13 54.0429 96.2705 55.7267 96.2705 58.2696C96.2705 60.4415 97.7063 62.5151 101.193 62.5151H101.616V64.006ZM102.659 54.9132C106.141 54.9586 106.906 56.6008 106.906 58.2696C106.906 60.8729 105.193 61.5502 102.659 61.6411V54.9132ZM101.616 61.6411C99.0822 61.5502 97.3689 60.8729 97.3689 58.2696C97.3689 56.6008 98.13 54.9586 101.616 54.9132V61.6411Z" fill="#CCCED7"/>
<path d="M111.81 64.0062H112.822V54.043H115.679V53.1689H108.957V54.043H111.81V64.0062Z" fill="#CCCED7"/>
<path d="M116.923 64.0062H118.107L120.964 59.246H121.871V64.0062H122.928V53.1689H120.45C117.2 53.1689 116.731 55.3447 116.731 56.3058C116.731 58.1373 118.152 59.246 119.824 59.1854L116.923 64.0062ZM121.871 58.3719H120.349C119.487 58.3719 117.774 58.2697 117.774 56.1999C117.774 54.1906 119.588 54.043 120.45 54.043H121.871V58.3719Z" fill="#CCCED7"/>
<path d="M125.624 64.0062H126.677V58.4778H132.829V64.0062H133.883V53.1689H132.829V57.6075H126.677V53.1689H125.624V64.0062Z" fill="#CCCED7"/>
<path d="M135.421 64.0059H136.478L137.955 60.4868H142.48L143.961 64.0059H145.014L140.197 52.8887L135.421 64.0059ZM138.338 59.6317L140.197 55.1969L142.102 59.6317H138.338Z" fill="#CCCED7"/>
<path d="M146.232 64.0062H147.417L150.274 59.246H151.181V64.0062H152.234V53.1689H149.76C146.51 53.1689 146.041 55.3447 146.041 56.3058C146.041 58.1373 147.462 59.246 149.13 59.1854L146.232 64.0062ZM151.181 58.3719H149.659C148.793 58.3719 147.079 58.2697 147.079 56.1999C147.079 54.1906 148.898 54.043 149.76 54.043H151.181V58.3719Z" fill="#CCCED7"/>
<path d="M158.491 64.0062H159.545V58.7578L164.362 64.0062H165.738L160.538 58.4173L165.652 53.1689H164.362L159.545 58.2243V53.1689H158.491V64.0062Z" fill="#CCCED7"/>
<path d="M172.535 64.3465C175.729 64.3465 178.35 62.0269 178.35 58.61C178.35 55.1969 175.729 52.8887 172.535 52.8887C169.386 52.8887 166.766 55.1969 166.766 58.61C166.766 62.0269 169.386 64.3465 172.535 64.3465ZM172.535 63.4307C169.915 63.4307 167.864 61.448 167.864 58.61C167.864 55.772 169.915 53.7476 172.535 53.7476C175.159 53.7476 177.251 55.772 177.251 58.61C177.251 61.448 175.159 63.4307 172.535 63.4307Z" fill="#CCCED7"/>
<path d="M179.801 64.006H180.813L181.806 56.0068L185.762 64.4942L189.672 56.0068L190.729 64.006H191.677L190.2 52.7412L185.762 62.4243L181.278 52.7412L179.801 64.006Z" fill="#CCCED7"/>
<path d="M193.656 53.1689V64.0062H194.71V54.043H200.862V64.0062H201.915V53.1689H193.656Z" fill="#CCCED7"/>
<path d="M203.456 64.0059H204.51L205.987 60.4868H210.515L211.992 64.0059H213.046L208.228 52.8887L203.456 64.0059ZM206.369 59.6317L208.228 55.1969L210.133 59.6317H206.369Z" fill="#CCCED7"/>
<path d="M214.541 64.0062H215.594V58.4778H221.746V64.0062H222.804V53.1689H221.746V57.6075H215.594V53.1689H214.541V64.0062Z" fill="#CCCED7"/>
<path d="M225.481 53.1688V64.4942L232.837 55.4316V64.006H233.875V52.7412L226.539 61.7432V53.1688H225.481Z" fill="#CCCED7"/>
<path d="M236.248 64.0062H237.432L240.289 59.246H241.196V64.0062H242.254V53.1689H239.779C236.525 53.1689 236.057 55.3447 236.057 56.3058C236.057 58.1373 237.477 59.246 239.149 59.1854L236.248 64.0062ZM241.196 58.3719H239.674C238.812 58.3719 237.099 58.2697 237.099 56.1999C237.099 54.1906 238.913 54.043 239.779 54.043H241.196V58.3719Z" fill="#CCCED7"/>
</svg>
