<svg width="24" height="26" viewBox="0 0 24 26" fill="none" xmlns="http://www.w3.org/2000/svg">
<g opacity="0.95">
<path d="M16.5 20.5455V7.45455C16.5 6.65122 15.8284 6 15 6L9 6C8.17157 6 7.5 6.65122 7.5 7.45455L7.5 20.5455C7.5 21.3488 8.17157 22 9 22H15C15.8284 22 16.5 21.3488 16.5 20.5455Z" stroke="currentColor" stroke-width="2" stroke-linecap="round" stroke-linejoin="round"/>
<path d="M16.5 20.5455V7.45455C16.5 6.65122 15.8284 6 15 6L9 6C8.17157 6 7.5 6.65122 7.5 7.45455L7.5 20.5455C7.5 21.3488 8.17157 22 9 22H15C15.8284 22 16.5 21.3488 16.5 20.5455Z" stroke="currentColor" stroke-width="2" stroke-linecap="round" stroke-linejoin="round"/>
<path d="M4.54981 11.459C3.89605 12.1434 3.53125 13.0535 3.53125 14C3.53125 14.9465 3.89605 15.8565 4.54981 16.541" stroke="currentColor" stroke-width="2" stroke-linecap="round" stroke-linejoin="round"/>
<path d="M3.03711 9C1.73115 10.3367 1 12.1313 1 14C1 15.8687 1.73115 17.6633 3.03712 19" stroke="currentColor" stroke-width="2" stroke-linecap="round" stroke-linejoin="round"/>
<path d="M19.4502 11.459C20.1039 12.1434 20.4687 13.0535 20.4687 14C20.4687 14.9465 20.1039 15.8565 19.4502 16.541" stroke="currentColor" stroke-width="2" stroke-linecap="square" stroke-linejoin="round"/>
<path d="M20.9629 9C22.2688 10.3367 23 12.1313 23 14C23 15.8687 22.2688 17.6633 20.9629 19" stroke="currentColor" stroke-width="2" stroke-linecap="square" stroke-linejoin="round"/>
</g>
</svg>
