<svg width="48" height="48" viewBox="0 0 48 48" fill="none" xmlns="http://www.w3.org/2000/svg">
<path d="M24.001 33C28.9715 33 33.001 28.9706 33.001 24C33.001 19.0294 28.9715 15 24.001 15C19.0304 15 15.001 19.0294 15.001 24C15.001 28.9706 19.0304 33 24.001 33Z" stroke="#007AFF" stroke-width="2" stroke-linecap="round" stroke-linejoin="round"/>
<path d="M37.0148 15.122C37.4584 15.7734 37.8525 16.4572 38.1937 17.1676L43.0586 19.8683C43.6512 22.5898 43.6532 25.4067 43.0646 28.1291L38.1969 30.8312C37.8546 31.5411 37.4595 32.2243 37.0148 32.875L37.1085 38.4384C35.0478 40.3124 32.6093 41.7226 29.9574 42.574L25.1835 39.7096C24.3975 39.7681 23.6083 39.7675 22.8224 39.7077L18.0512 42.5706C15.398 41.723 12.9574 40.3163 10.8941 38.4453L10.9878 32.8788C10.5441 32.2274 10.1501 31.5436 9.8089 30.8331L4.94398 28.1325C4.35142 25.411 4.34939 22.5941 4.93801 19.8717L9.80564 17.1696C10.1479 16.4597 10.5431 15.7765 10.9878 15.1258L10.8941 9.56233C12.9547 7.68841 15.3933 6.27818 18.0452 5.42676L22.8191 8.29118C23.6051 8.23267 24.3943 8.23329 25.1801 8.29305L29.9514 5.43021C32.6046 6.27779 35.0452 7.6845 37.1085 9.55545L37.0148 15.122Z" stroke="#007AFF" stroke-width="2" stroke-linecap="round" stroke-linejoin="round"/>
</svg>
