<svg width="187" height="92" viewBox="0 0 187 92" fill="none" xmlns="http://www.w3.org/2000/svg">
<path d="M58.4873 59.5615H70.1132V63.3649H64.5827V90.0883H58.4873V59.5615Z" fill="#CCCED7"/>
<path d="M77.006 78.6282L78.0506 63.3649H78.4005L79.4451 78.6282H77.006ZM70.2559 90.0883H76.2238L76.7886 81.9812H79.6626L80.2299 90.0883H86.1953L83.0164 59.5615H73.4347L70.2559 90.0883Z" fill="#CCCED7"/>
<path d="M94.924 79.4039V85.159C94.924 85.9346 95.5238 86.1598 95.8737 86.1598C96.4485 86.1598 96.8484 85.6844 96.8484 85.159V78.0527C96.8484 77.1019 96.6734 76.051 94.3992 76.051H91.9251V72.698H94.4992C96.2236 72.698 96.8484 72.2977 96.8484 70.421V64.3657C96.8484 63.8403 96.4485 63.3649 95.8737 63.3649C95.5238 63.3649 94.924 63.5651 94.924 64.3657V69.3451H88.8262V65.0163C88.8262 62.8894 89.0761 59.5615 93.3496 59.5615H98.3978C102.671 59.5615 102.946 62.8894 102.946 65.0163V69.8956C102.946 73.2235 100.622 74.1243 98.7977 74.0492V74.3495C102.896 74.2494 102.946 77.4022 102.946 78.4781V84.6335C102.946 86.7854 102.671 90.0883 98.3978 90.0883H93.3496C89.0761 90.0883 88.8262 86.7854 88.8262 84.6335V79.4039H94.924Z" fill="#CCCED7"/>
<path d="M106.945 59.5615H121.065V90.0883H114.968V63.3649H113.043V90.0883H106.945V59.5615Z" fill="#CCCED7"/>
<path d="M131.161 76.3512V63.3649H131.961C132.611 63.3649 133.086 63.9153 133.086 64.8912V74.8249C133.086 75.8008 132.611 76.3512 131.961 76.3512H131.161ZM125.063 90.0883H131.161V79.7042H134.66C138.909 79.7042 139.184 76.4013 139.184 74.2494V65.0163C139.184 62.8894 138.909 59.5615 134.66 59.5615H125.063V90.0883Z" fill="#CCCED7"/>
<path d="M151.205 85.159C151.205 85.6844 150.805 86.1598 150.23 86.1598C149.88 86.1598 149.28 85.9346 149.28 85.159V64.3657C149.28 63.5651 149.88 63.3649 150.23 63.3649C150.805 63.3649 151.205 63.8403 151.205 64.3657V85.159ZM143.183 84.6335C143.183 86.7854 143.458 90.0883 147.706 90.0883H152.779C157.028 90.0883 157.303 86.7854 157.303 84.6335V65.0163C157.303 62.8894 157.028 59.5615 152.779 59.5615H147.706C143.458 59.5615 143.183 62.8894 143.183 65.0163V84.6335Z" fill="#CCCED7"/>
<path d="M177.146 59.5615H185.093V90.0883H178.996V70.9465H178.771L175.622 90.0883H170.748L167.625 70.9465H167.4V90.0883H161.302V59.5615H169.224L173.198 81.0303L177.146 59.5615Z" fill="#CCCED7"/>
<path d="M50.5845 17.8251C48.7176 9.6429 44.0393 2.98708 43.3945 1.91113C42.3748 3.43747 38.6436 9.31761 36.7468 15.8233C34.675 23.1047 34.3701 29.5603 35.0849 35.8909C35.7947 42.2464 38.4762 48.7772 38.4762 48.7772C39.9007 52.1801 42.035 55.8584 43.4245 57.66C45.4613 55.0076 50.1421 47.1007 51.6016 36.7917C52.4138 31.0366 52.4488 26.0072 50.5845 17.8251ZM43.3945 55.6082C42.4773 53.8816 41.0528 50.6038 40.9179 45.4993C40.8829 40.595 42.8497 36.3663 43.4245 35.4905C43.9368 36.3663 45.6312 40.0445 45.8336 45.0739C45.9711 49.9782 44.3417 53.8566 43.3945 55.6082ZM50.0422 31.7122C49.9722 34.84 49.5998 38.1429 49.125 40.1196C49.2949 36.7166 48.8876 31.9374 48.1078 28.1841C47.3281 24.4559 45.1214 18.2004 43.3595 15.3229C41.7326 18.0753 39.7283 23.48 38.6786 28.1591C37.624 32.8382 37.594 38.5182 37.594 40.2197C37.3141 38.7934 36.6144 33.6639 36.8118 28.5344C36.9767 24.3057 37.9664 19.9269 38.5087 17.9252C40.578 11.2443 42.9197 6.96556 43.3595 6.28996C43.7993 6.96556 46.7483 12.2452 48.2778 17.775C49.7998 23.3049 50.1071 28.6095 50.0422 31.7122Z" fill="#CCCED7"/>
<path d="M46.5616 59.5616H32.3691V69.095C32.3816 69.095 32.3916 69.07 32.4041 69.07C35.7479 65.7171 41.171 65.7171 44.5173 69.07C47.8611 72.3979 47.8611 77.8276 44.5173 81.1806C44.5023 81.2056 44.4873 81.2056 44.4723 81.2306C44.4548 81.2306 44.4373 81.2557 44.4223 81.2807C41.086 84.5836 36.7276 86.235 32.3691 86.235C27.9906 86.235 23.6121 84.5836 20.2733 81.2306C14.3854 75.3505 13.6881 66.2175 18.1765 59.5616C18.7813 58.6609 19.4786 57.8101 20.2733 57.0094C23.6121 53.6565 27.9906 52.005 32.3691 52.005V29.085C15.545 29.085 1.90723 42.7219 1.90723 59.5616C1.90723 76.4014 15.545 90.0634 32.3691 90.0634C41.141 90.0634 49.0432 86.3351 54.6013 80.4049V59.5616H46.5616Z" fill="#CCCED7"/>
</svg>
