<svg width="342" height="88" viewBox="0 0 342 88" fill="none" xmlns="http://www.w3.org/2000/svg">
<g clip-path="url(#clip0_1630_32743)">
<path d="M269.747 63.1404L281.644 76.648H273.916L264.714 66.2376V76.648H258.309V51.4598H264.714V60.6L273.763 51.4598H281.339L269.747 63.1404ZM78.0684 58.2684C82.746 58.2684 84.88 56.0342 84.88 52.683C84.88 49.3318 82.746 47.0976 78.0684 47.0976H68.8126V58.2684H78.0649M78.2687 41.105C86.2999 41.105 91.5889 45.2184 91.5889 52.683C91.5889 60.1476 86.2999 64.2592 78.2687 64.2592H68.8126V76.648H62.1055V41.1016H78.2722M106.738 71.3636C110.501 71.3636 114.008 68.6736 114.008 64.0556C114.008 59.4377 110.501 56.7476 106.738 56.7476C102.975 56.7476 99.4737 59.4325 99.4737 64.0522C99.4737 68.6719 102.982 71.3602 106.743 71.3602M106.743 50.7464C113.658 50.7464 120.52 55.2147 120.52 64.0487C120.52 72.8827 113.653 77.3562 106.738 77.3562C99.8238 77.3562 92.9617 72.8844 92.9617 64.0522C92.9617 55.2199 99.8221 50.7499 106.738 50.7499M136.877 71.3654C133.013 71.3654 130.166 68.5814 130.166 64.0574C130.166 59.5891 133.115 56.7494 136.877 56.7494C139.164 56.7494 141.147 57.816 142.723 60.2033L148.207 57.0504C146.376 53.1406 142.411 50.7551 136.92 50.7551C129.751 50.7551 123.652 56.036 123.652 64.0574C123.652 72.0788 129.448 77.3562 136.929 77.3562C142.317 77.3562 145.927 74.9202 148.47 70.6033L143.181 67.7096C141.657 69.8411 140.03 71.3636 136.878 71.3636M205.082 65.7278C204.777 69.5854 204.012 70.4484 202.692 70.4484C202.034 70.4612 201.377 70.3731 200.746 70.1874L200.777 76.7054C200.777 76.7054 201.573 76.949 203.042 76.949C208.481 76.949 210.514 73.4447 211.023 65.987L211.634 57.2018H218.852V76.5941H225.254V51.4598H206.141L205.082 65.7278ZM193.258 60.7044C192.649 57.5567 190.26 55.6271 186.701 55.6271C183.346 55.6271 180.804 57.8612 179.888 60.7044H193.258ZM186.903 50.7533C194.122 50.7533 199.208 55.9838 199.208 63.3457V65.5764H179.785C180.191 69.4357 182.936 71.8717 186.699 71.8717C190.105 71.8717 191.528 70.3997 193.103 68.4196L198.188 70.9582C195.647 75.2734 192.138 77.3562 186.596 77.3562C179.583 77.3562 173.633 72.0248 173.633 64.0522C173.633 56.0795 179.583 50.7499 186.901 50.7499M248.464 60.7044C247.854 57.5567 245.466 55.6271 241.907 55.6271C238.551 55.6271 236.01 57.8612 235.093 60.7044H248.464ZM242.11 50.7533C249.33 50.7533 254.413 55.9838 254.413 63.3457V65.5764H234.992C235.4 69.4357 238.145 71.8717 241.907 71.8717C245.312 71.8717 246.736 70.3997 248.312 68.4196L253.396 70.9582C250.854 75.2734 247.345 77.3562 241.806 77.3562C234.788 77.3562 228.841 72.0248 228.841 64.0522C228.841 56.0795 234.788 50.7499 242.11 50.7499M150.453 57.0504H157.977V76.6463H164.383V57.0504H171.907V51.4615H150.453V57.0504ZM294.361 71.3706C298.123 71.3706 301.631 68.6788 301.631 64.0626C301.631 59.4464 298.123 56.7546 294.361 56.7546C290.6 56.7546 287.092 59.4464 287.092 64.0626C287.092 68.6788 290.598 71.3706 294.361 71.3706ZM294.361 50.7551C301.274 50.7551 308.138 55.2234 308.138 64.0591C308.138 72.8948 301.274 77.3614 294.361 77.3614C287.449 77.3614 280.585 72.8931 280.585 64.0591C280.585 55.2251 287.447 50.7551 294.361 50.7551ZM333.625 51.4615L326.674 69.0999L319.721 51.4615H311.349V76.5958H317.446V60.68L324.197 76.5958H329.169L335.918 60.68V76.5958H342.015V51.4563L333.625 51.4615Z" fill="#CCCED7"/>
<path d="M19.0416 64.2292L52.5005 31.0196L21.862 0.5L4.51587 17.7904C-0.668644 22.946 0.0316832 26.3303 0.0316832 33.2625V80.6983C0.0316832 84.368 3.07689 87.5 6.91301 87.5H42.3527L41.3562 86.5047L19.0416 64.2292ZM6.91823 86.9171C1.91316 86.9171 1.10656 82.0451 3.23716 79.9206L18.6147 64.6538L40.9398 86.9171H6.91823Z" fill="#CCCED7"/>
</g>
</svg>
