<svg width="48" height="48" viewBox="0 0 48 48" fill="none" xmlns="http://www.w3.org/2000/svg">
<path d="M39 7.5H9C8.17157 7.5 7.5 8.17157 7.5 9V39C7.5 39.8284 8.17157 40.5 9 40.5H39C39.8284 40.5 40.5 39.8284 40.5 39V9C40.5 8.17157 39.8284 7.5 39 7.5Z" stroke="#007AFF" stroke-width="2" stroke-linecap="round" stroke-linejoin="round"/>
<path d="M40.5 29.9997L32.5607 22.0604C32.2793 21.7791 31.8978 21.6211 31.5 21.6211C31.1022 21.6211 30.7206 21.7791 30.4393 22.0604L22.0607 30.4391C21.7793 30.7204 21.3978 30.8785 21 30.8785C20.6022 30.8785 20.2206 30.7204 19.9393 30.4391L16.0607 26.5604C15.7793 26.2791 15.3978 26.1211 15 26.1211C14.6022 26.1211 14.2206 26.2791 13.9393 26.5604L7.5 32.9998" stroke="#007AFF" stroke-width="2" stroke-linecap="round" stroke-linejoin="round"/>
<path d="M18.75 19.5C19.9926 19.5 21 18.4926 21 17.25C21 16.0074 19.9926 15 18.75 15C17.5074 15 16.5 16.0074 16.5 17.25C16.5 18.4926 17.5074 19.5 18.75 19.5Z" fill="#007AFF"/>
</svg>
