<svg width="102" height="88" viewBox="0 0 102 88" fill="none" xmlns="http://www.w3.org/2000/svg">
<g clip-path="url(#clip0_1630_32754)">
<path d="M49.3229 86.9756C48.6234 86.9316 48.5707 86.9061 48.6254 86.6385C48.6579 86.4792 48.7208 85.7203 48.7652 84.952L48.846 83.5551L48.4276 83.4713C48.1975 83.4252 47.8166 83.3875 47.581 83.3875C47.092 83.3875 46.9954 83.5842 46.9924 84.5857C46.9914 84.9189 46.9527 85.5546 46.9064 85.9982L46.8222 86.8048L45.4277 86.7246C44.6607 86.6804 43.9957 86.6074 43.95 86.5624C43.9042 86.5174 44.0048 84.4668 44.1734 82.0055C44.3421 79.5443 44.483 77.4564 44.4866 77.366C44.4941 77.1788 45.0008 77.1588 46.5056 77.2861L47.5062 77.3708L47.4498 77.9113C47.4188 78.2086 47.3605 78.9404 47.3204 79.5377L47.2473 80.6235H48.1705H49.0937V80.0511C49.0937 79.7363 49.132 79.025 49.1788 78.4705L49.2639 77.4624L50.7233 77.5475C51.5259 77.5943 52.1938 77.6406 52.2075 77.6504C52.2261 77.6636 51.6279 86.8609 51.5968 87.0399C51.5902 87.0778 50.4272 87.0449 49.3229 86.9756ZM57.1818 86.3818C57.1525 86.2914 56.6735 84.2415 56.1171 81.8265C55.4513 78.936 55.153 77.4064 55.2441 77.35C55.4864 77.2 61.4622 75.8543 61.54 75.9321C61.6477 76.04 62.1097 78.0319 62.0426 78.0991C62.0116 78.1301 61.23 78.3303 60.3058 78.544C59.3816 78.7576 58.6062 78.9515 58.5829 78.9749C58.5298 79.0281 58.8125 80.097 58.8796 80.097C58.9523 80.097 61.7421 79.4401 61.9965 79.3631C62.1753 79.3089 62.2617 79.4951 62.4721 80.388C62.6135 80.9881 62.71 81.5011 62.6865 81.5281C62.6631 81.5551 61.9258 81.7434 61.0482 81.9465C60.1706 82.1496 59.4329 82.3356 59.4087 82.3598C59.3846 82.3839 59.4227 82.6753 59.4934 83.0072L59.6219 83.6106L60.6342 83.3721C61.191 83.2409 62.0102 83.0493 62.4548 82.9463L63.263 82.759L63.5272 83.8959C63.6725 84.5211 63.782 85.0406 63.7705 85.0502C63.7342 85.0805 57.4191 86.5464 57.3248 86.5464C57.2754 86.5464 57.211 86.4723 57.1818 86.3818ZM37.7276 85.0912C35.759 84.7575 34.3604 83.6948 33.8397 82.1371C33.3918 80.7969 33.7882 78.6995 34.7667 77.2322C36.0757 75.2695 38.2972 74.7605 40.613 75.8927C42.0109 76.5762 41.9703 76.4847 41.4709 77.8222C41.2335 78.4581 41.0244 78.9965 41.0062 79.0187C40.988 79.0409 40.6956 78.8632 40.3564 78.6238C39.8284 78.2512 39.6292 78.1886 38.9705 78.1886C38.2967 78.1886 38.149 78.2376 37.7811 78.5834C36.8913 79.4199 36.5398 81.0393 37.0881 81.7759C37.4825 82.3058 38.0779 82.6059 38.9043 82.6913C39.4978 82.7526 39.6229 82.8067 39.5682 82.9785C39.2432 83.9983 38.7094 85.1679 38.5621 85.1832C38.4625 85.1935 38.087 85.1521 37.7276 85.0912ZM71.6735 80.8245L71.3184 80.2358L70.6229 80.56C69.7708 80.9572 68.7178 80.989 67.9558 80.6405C66.8639 80.1411 65.6955 78.4362 65.564 77.1505C65.4502 76.0381 65.7002 75.3965 66.5751 74.5555L67.3423 73.818L67.0118 73.2631C66.8301 72.958 66.702 72.6934 66.7271 72.6752C66.7522 72.657 67.3257 72.2967 68.0015 71.8747C68.9893 71.2577 69.2542 71.1434 69.3525 71.2916C69.4197 71.393 69.5746 71.6389 69.6966 71.838C69.9599 72.2676 69.9935 72.2718 70.6228 71.9525C71.9146 71.297 73.2535 71.5286 74.3146 72.5911C75.2521 73.5298 75.7018 74.5301 75.7069 75.6878C75.7103 76.4646 75.6531 76.7077 75.3422 77.2373C75.1394 77.5828 74.7402 78.02 74.455 78.209C74.1698 78.398 73.9383 78.5892 73.9406 78.6338C73.9428 78.6785 74.0904 78.952 74.2685 79.2415C74.4466 79.5311 74.5926 79.8043 74.593 79.8487C74.5937 79.925 72.2095 81.4132 72.0865 81.4132C72.0547 81.4132 71.8688 81.1483 71.6735 80.8245ZM70.0622 78.0182C69.8588 77.4874 68.7591 75.8803 68.629 75.9236C68.5479 75.9505 68.4272 76.1266 68.3607 76.315C68.1879 76.8045 68.7369 77.8501 69.3223 78.1461C69.8098 78.3926 70.1811 78.3284 70.0622 78.0182ZM72.8763 76.301C73.0023 75.9964 72.9904 75.8255 72.812 75.3792C72.4708 74.5253 71.5121 73.868 71.2432 74.3037C71.159 74.4402 72.4626 76.675 72.6264 76.675C72.6788 76.675 72.7912 76.5067 72.8763 76.301ZM26.4315 79.6267L25.286 78.7615L25.599 78.3434C25.7711 78.1135 26.2185 77.5167 26.593 77.0173C26.9676 76.5179 27.2741 76.0715 27.2741 76.0253C27.2741 75.9792 26.9845 75.7249 26.6305 75.4603L25.9869 74.9792L25.0203 76.2466C24.4887 76.9436 23.9906 77.5338 23.9134 77.5581C23.8362 77.5824 23.2588 77.2138 22.6301 76.739L21.4872 75.8757L24.3009 72.1623C25.9638 69.9676 27.1968 68.4556 27.3156 68.4654C27.6701 68.4946 29.6536 70.1154 29.5315 70.2762C28.3553 71.8251 27.8013 72.5993 27.8074 72.6857C27.8115 72.7443 28.0972 73.0074 28.4424 73.2703L29.0699 73.7484L29.9849 72.5464C30.4931 71.8789 30.991 71.3511 31.1048 71.3594C31.3813 71.3797 33.3211 72.8513 33.318 73.0385C33.3149 73.2283 27.8223 80.4919 27.682 80.4919C27.6243 80.4919 27.0616 80.1026 26.4315 79.6267ZM48.1428 74.6865C43.681 74.3429 39.1666 72.951 35.2982 70.7262C23.1421 63.7348 17.2155 49.7332 20.6411 36.0982C20.8191 35.3895 20.9648 34.7824 20.9648 34.7491C20.9648 34.7158 17.7372 34.6886 13.7923 34.6886C7.02252 34.6886 6.62369 34.6756 6.68922 34.4582C6.72741 34.3316 7.21196 32.4066 7.76601 30.1806L8.77337 26.1334H16.9622H25.151L26.2285 24.7357C30.2945 19.4617 36.2867 15.5084 42.7844 13.8134C46.0005 12.9744 50.3531 12.6328 53.6348 12.9619C60.7427 13.6746 67.328 16.7771 72.3713 21.7893C77.8633 27.2473 81.0263 34.2546 81.5062 42.0263L81.5976 43.507H87.9627C93.9625 43.507 94.3241 43.5203 94.2614 43.7374C94.1154 44.243 92.2071 51.7833 92.2071 51.8544C92.2071 51.8963 90.0333 51.931 87.3765 51.9314C84.7197 51.9319 82.0728 51.9703 81.4944 52.017L80.4429 52.1017L79.8779 53.8344C78.8258 57.0606 76.6908 60.888 74.4421 63.5789C68.9474 70.1541 61.3459 74.055 52.7741 74.6985C50.8033 74.8464 50.1983 74.8448 48.1428 74.6865ZM54.3514 72.9293C60.1918 72.1386 65.3451 69.8208 69.7979 65.9819C73.6074 62.6976 76.702 58.1367 78.327 53.4113L78.791 52.0623H77.1639H75.5368L75.1734 53.0165C73.8471 56.4995 72.0691 59.294 69.4698 61.9808C65.9736 65.5948 62.0354 67.9253 57.3196 69.1709C54.994 69.7851 53.2568 69.9995 50.6053 69.9995C46.2598 69.9995 42.5965 69.1484 38.8408 67.2663C36.3964 66.0412 34.4836 64.6647 32.3517 62.5961C26.2436 56.6695 23.4458 48.308 24.7125 39.7655C24.8863 38.5938 25.5985 35.6804 25.8974 34.9189C25.9806 34.707 25.8565 34.6886 24.3486 34.6886H22.7095L22.3715 35.9061C21.6083 38.6551 21.3181 40.8405 21.3186 43.8361C21.3191 46.5848 21.5558 48.4794 22.2307 51.1374C25.1637 62.6879 35.155 71.4755 47.0563 72.9722C48.556 73.1608 52.8267 73.1357 54.3514 72.9293ZM51.6175 67.5794C54.1253 67.0558 56.0465 65.0434 56.4658 62.501C56.6654 61.2909 56.4833 60.2107 55.8693 58.9623C54.7211 56.6278 52.0342 55.1908 49.604 55.6117C46.3187 56.1807 43.9622 59.3502 44.4819 62.501C45.0474 65.9298 48.3298 68.2659 51.6175 67.5794ZM49.3566 65.5036C48.2218 65.1301 47.4068 64.4341 46.8287 63.3449C46.4179 62.5709 46.4075 60.8247 46.8086 59.9527C47.2108 59.0782 47.8286 58.4397 48.6755 58.0233C49.3038 57.7143 49.5891 57.656 50.4738 57.656C51.3604 57.656 51.6434 57.7141 52.2778 58.026C55.1777 59.4519 55.2063 63.7153 52.3259 65.1883C51.8195 65.4473 51.4171 65.5404 50.671 65.5711C50.1288 65.5935 49.5373 65.5631 49.3566 65.5036ZM33.8927 48.6731C34.0748 47.8949 34.9818 43.9863 35.9081 39.9873L37.5924 32.7164L43.0144 32.7153C45.9966 32.7148 48.4365 32.7417 48.4365 32.7753C48.4365 32.8088 47.5492 36.651 46.4648 41.3136C45.3804 45.9761 44.4932 49.8577 44.4932 49.9394C44.4932 50.0456 45.3919 50.088 47.6453 50.088H50.7974L50.8907 49.726C50.942 49.5269 51.4324 47.4391 51.9804 45.0865L52.9768 40.8088L57.6074 40.7743C60.6764 40.7513 62.238 40.7847 62.238 40.8733C62.238 40.9732 60.8525 47.0387 60.205 49.773L60.1393 50.0504L75.3517 49.987C83.7185 49.9521 90.5845 49.9055 90.6096 49.8834C90.6346 49.8613 90.9088 48.8322 91.2189 47.5965L91.7828 45.3497H85.9034H80.024L79.9433 43.1995C79.8461 40.6116 79.5856 38.7577 78.9945 36.447C76.5425 26.8629 69.2045 19.0226 59.7797 15.917C51.3398 13.136 42.1108 14.3269 34.7282 19.1496C31.4284 21.3053 28.7676 23.876 26.5368 27.0638L25.8063 28.1076H18.0672H10.3281L10.1985 28.6012C10.1272 28.8727 9.86536 29.9092 9.61659 30.9045L9.16428 32.7143H20.1997C30.6487 32.7143 31.2314 32.7265 31.165 32.9446C31.1265 33.0713 30.2976 36.6102 29.323 40.8088C28.3485 45.0075 27.4645 48.8129 27.3586 49.2654L27.166 50.088H30.3637H33.5614L33.8927 48.6731ZM67.6763 45.1194C67.7703 44.7953 71.5705 28.3881 71.5705 28.3063C71.5705 27.7428 73.1579 30.1841 74.2042 32.3567C75.9612 36.0053 76.8282 39.8245 76.8282 43.9158V45.3497H72.2188C67.8911 45.3497 67.6135 45.3356 67.6763 45.1194ZM54.0885 36.0819C54.0885 36.0056 55.7959 28.6199 55.8785 28.3386C55.9424 28.1213 55.2339 28.1071 42.7692 28.0754L29.5924 28.0418L30.6001 26.8392C36.9931 19.2095 47.3253 15.9122 57.1121 18.3786C62.4072 19.713 67.1817 22.7163 70.7263 26.9424C71.1906 27.4959 71.5705 27.9835 71.5705 28.0259C71.5705 28.0683 70.1418 28.1188 68.3957 28.1382L65.2208 28.1735L64.2968 32.1549L63.3728 36.1364H58.7307C56.1775 36.1364 54.0885 36.1119 54.0885 36.0819ZM80.4777 70.2885C79.1233 69.1681 77.9699 68.2532 77.9146 68.2554C77.8593 68.2577 77.6213 68.5094 77.3857 68.8148C77.1501 69.1202 76.815 69.5425 76.6411 69.7531L76.3248 70.1361L75.2292 69.2377C74.6266 68.7436 74.1124 68.323 74.0865 68.303C74.0477 68.2731 78.4535 62.821 79.0124 62.2073C79.157 62.0486 79.3373 62.1464 80.2071 62.8553C80.7706 63.3145 81.2838 63.7352 81.3477 63.7903C81.4116 63.8454 81.1776 64.235 80.8277 64.656C80.4778 65.0771 80.114 65.5161 80.0193 65.6317C79.8685 65.8157 80.1576 66.0943 82.3409 67.8692C83.7124 68.9843 84.8372 69.9486 84.8404 70.0121C84.8453 70.1097 83.0435 72.3371 82.9666 72.3286C82.9521 72.327 81.8322 71.409 80.4777 70.2885ZM16.958 70.9479L16.0863 69.6958L16.7633 68.9164L17.4403 68.137L17.0136 67.5032C16.2309 66.3407 16.3284 66.3845 15.3473 66.7543C14.8725 66.9332 14.4129 67.0522 14.3259 67.0188C14.1535 66.9526 12.6839 64.9049 12.6839 64.7309C12.6839 64.5555 21.8003 61.4139 21.9495 61.5379C22.0236 61.5995 22.5488 62.3308 23.1165 63.163L24.1487 64.6762L21.0912 68.4381C19.4096 70.5071 17.9878 72.1999 17.9318 72.1999C17.8757 72.1999 17.4375 71.6365 16.958 70.9479ZM20.5733 64.8111L20.8304 64.4638L19.7475 64.8601C19.1519 65.0781 18.6134 65.3034 18.5508 65.3608C18.4882 65.4181 18.6044 65.6848 18.809 65.9534L19.1809 66.4416L19.7486 65.8C20.0608 65.4471 20.4319 65.0021 20.5733 64.8111ZM84.7934 61.727C82.4148 60.757 80.4502 59.9448 80.4277 59.9222C80.3877 59.8822 81.4102 57.3144 81.5087 57.2073C81.5479 57.1647 82.6043 57.5503 83.8676 58.0683C83.9438 58.0996 84.2017 57.651 84.4407 57.0714C84.9482 55.8405 85.707 55.0303 86.4901 54.8832C88.997 54.4123 91.3977 56.2139 91.1057 58.3471C91.0422 58.811 89.5634 62.702 89.2182 63.3136C89.1408 63.4508 88.1414 63.0925 84.7934 61.727ZM88.2682 59.5563C88.6357 58.8687 88.3543 58.1342 87.626 57.88C87.0212 57.6689 86.4762 58.0475 86.2412 58.8421C86.1741 59.0688 86.2899 59.1572 87.049 59.459C88.135 59.8906 88.0913 59.8871 88.2682 59.5563ZM13.8692 58.3781C13.5452 58.2264 13.1692 58.0019 13.0335 57.8791C12.7003 57.5777 12.2386 56.6344 11.9741 55.7147C11.8544 55.2984 11.7404 54.9579 11.7208 54.9579C11.7012 54.9579 11.1282 55.1327 10.4475 55.3464C9.76683 55.5601 9.19886 55.723 9.18536 55.7083C9.03942 55.5504 8.347 52.9326 8.43083 52.8558C8.56041 52.737 17.2935 50.0518 17.3506 50.1132C17.3713 50.1355 17.702 51.1607 18.0854 52.3913C19.0698 55.5512 19.0396 56.4706 17.9141 57.5976C16.9626 58.5503 15.0324 58.9227 13.8692 58.3781ZM15.9022 55.3308C16.2349 55.0688 16.258 54.9926 16.1869 54.3916C16.1444 54.0319 16.079 53.707 16.0417 53.6696C15.964 53.5919 14.4136 53.9925 14.1422 54.1604C13.9983 54.2495 13.9926 54.3573 14.1136 54.7049C14.1966 54.9432 14.3617 55.2457 14.4804 55.3771C14.7744 55.7024 15.4588 55.6801 15.9022 55.3308ZM14.1298 46.3368V45.0865H10.8437H7.55761V43.5595V42.0326L10.8437 42.0788L14.1298 42.125L14.1298 40.8373L14.1298 39.5496L15.5428 39.5869L16.9558 39.6243L16.9906 43.6057L17.0254 47.5872H15.5776H14.1298V46.3368ZM90.2352 40.0832C90.1414 39.4278 90.0178 38.8626 89.9606 38.8272C89.9034 38.7918 88.451 38.9989 86.7332 39.2874C85.0154 39.576 83.59 39.7922 83.5657 39.7679C83.5195 39.7216 83.0177 36.8693 83.052 36.848C83.0629 36.8413 84.4913 36.6021 86.2264 36.3166L89.381 35.7975L89.3715 35.3417C89.3662 35.0911 89.3154 34.526 89.2585 34.086L89.155 33.2859L90.5018 33.0619C91.2426 32.9388 91.8796 32.869 91.9174 32.9069C91.9553 32.9447 92.2747 34.7037 92.6272 36.8158C93.0664 39.4469 93.2237 40.6833 93.1269 40.7432C93.0492 40.7913 92.4999 40.9029 91.9062 40.9912C91.3126 41.0794 90.7322 41.1794 90.6163 41.2133C90.4423 41.2642 90.3762 41.0683 90.2352 40.0832ZM84.2299 29.6099C83.8151 28.7462 83.4365 28.1165 83.3519 28.1495C83.2701 28.1814 82.596 28.4901 81.8539 28.8356C81.1117 29.181 80.4823 29.4398 80.4552 29.4108C80.3655 29.3149 79.1918 26.7498 79.2262 26.725C79.4295 26.5785 87.7555 22.688 87.7848 22.7258C87.8067 22.754 88.4363 24.0735 89.1839 25.658C90.4413 28.3226 90.526 28.5516 90.312 28.7083C90.0164 28.9247 88.4034 29.6136 88.3577 29.5429C88.3387 29.5136 87.9946 28.8042 87.5929 27.9664L86.8627 26.4432L86.3145 26.7091C86.013 26.8553 85.7663 27.0309 85.7663 27.0992C85.7663 27.1675 86.0715 27.867 86.4446 28.6536C86.8176 29.4402 87.0985 30.1078 87.0689 30.1372C87.0393 30.1667 86.5525 30.4017 85.9871 30.6596L84.9591 31.1284L84.2299 29.6099ZM20.5048 23.1659C19.1312 22.1228 17.9778 21.2696 17.9416 21.2701C17.9055 21.2705 17.5557 21.7109 17.1642 22.2487C16.7624 22.8009 16.3904 23.1899 16.3099 23.1424C15.5831 22.714 14.1408 21.4823 14.2157 21.3541C14.4504 20.9528 18.8659 15.0774 18.9328 15.0774C18.9891 15.0774 20.455 16.147 21.2133 16.7413C21.2416 16.7635 20.926 17.2322 20.5121 17.7829C20.0981 18.3336 19.7793 18.8001 19.8035 18.8196C19.8277 18.8391 20.9714 19.6966 22.345 20.7251C23.7186 21.7536 24.8622 22.6512 24.8865 22.7198C24.9455 22.8868 23.3141 25.0828 23.1395 25.0715C23.064 25.0666 21.8784 24.209 20.5048 23.1659ZM75.7889 22.2946C74.2375 20.485 73.6657 19.7302 73.7515 19.6051C73.8171 19.5095 75.4234 18.0942 77.3212 16.4601L80.7716 13.4889L81.1486 13.9212C81.3559 14.159 82.3361 15.3011 83.3267 16.4594L85.1278 18.5653L84.297 19.3177C83.84 19.7316 83.4267 20.0721 83.3785 20.0745C83.3303 20.0769 82.7642 19.4655 82.1206 18.7159L80.9503 17.3529L80.5233 17.7349L80.0963 18.117L81.0583 19.2386C82.5068 20.9275 82.4582 20.7066 81.5473 21.4622C81.1118 21.8235 80.7053 22.137 80.6438 22.1589C80.5824 22.1809 80.0449 21.6331 79.4496 20.9415C78.8542 20.2499 78.3391 19.684 78.305 19.684C78.271 19.684 78.0435 19.8595 77.7995 20.074L77.356 20.4639L78.535 21.8179C79.1834 22.5626 79.7153 23.2091 79.717 23.2546C79.7199 23.3368 78.0777 24.8203 77.991 24.8137C77.966 24.8118 76.975 23.6782 75.7889 22.2946ZM25.1873 15.6514C23.7142 13.6526 22.4876 11.9209 22.4616 11.8033C22.4289 11.6553 23.0229 11.1442 24.3933 10.1417C26.8215 8.3652 27.1549 8.18408 27.997 8.18386C28.8255 8.18364 29.4036 8.48516 29.9059 9.17955C30.528 10.0394 30.6802 10.9775 30.3412 11.8621C30.2878 12.0015 30.3833 12.0516 30.7104 12.0557C30.9531 12.0587 31.3356 12.1624 31.5604 12.286C32.0098 12.5332 34.3258 14.6467 34.2329 14.7248C34.201 14.7516 33.6204 15.1777 32.9427 15.6718L31.7106 16.5702L30.705 15.4947C29.6132 14.3271 29.3506 14.2197 28.8002 14.7154L28.4714 15.0116L29.3844 16.2289C29.8865 16.8984 30.2948 17.4907 30.2918 17.5451C30.2852 17.6628 28.1146 19.29 27.9675 19.2874C27.9114 19.2865 26.6603 17.6503 25.1873 15.6514ZM27.5981 12.8262C28.133 12.356 28.1865 11.9799 27.7903 11.4756C27.4483 11.0402 27.0762 11.0367 26.4498 11.4629L25.9588 11.797L26.5008 12.5159C26.7989 12.9112 27.0632 13.2347 27.0882 13.2347C27.1131 13.2347 27.3426 13.0509 27.5981 12.8262ZM70.0251 16.8871C69.0736 16.2899 68.2927 15.7304 68.2897 15.6438C68.2868 15.5573 68.7277 14.2885 69.2695 12.8243C69.8114 11.3602 70.2402 10.15 70.2225 10.135C70.2048 10.12 69.5101 11.1938 68.6787 12.5213C67.8473 13.8487 67.1269 14.9373 67.0778 14.9403C66.8328 14.9553 64.8815 13.5803 64.9608 13.4486C65.1752 13.0923 69.8967 5.66179 69.9363 5.61823C69.9679 5.58352 73.3011 7.63944 73.6447 7.90557C73.665 7.92128 73.2362 9.13777 72.6918 10.6089C72.1474 12.08 71.7019 13.3126 71.7019 13.3479C71.7019 13.3833 72.3871 12.3354 73.2246 11.0192C74.2063 9.47641 74.8017 8.65886 74.9005 8.71803C75.1586 8.8726 76.8914 9.97483 76.9334 10.0111C76.9974 10.0664 71.945 17.973 71.8457 17.973C71.7959 17.973 70.9767 17.4844 70.0251 16.8871ZM35.3684 13.5967C35.2457 12.9935 34.7864 4.21586 34.8733 4.13653C34.9672 4.05084 38.3098 2.90751 38.4755 2.90441C38.5678 2.90269 43.944 10.5198 44.0552 10.8099C44.1053 10.9405 41.6268 11.9185 41.2455 11.9185C41.1672 11.9185 40.9046 11.6127 40.6622 11.239C40.4197 10.8652 40.181 10.4981 40.1317 10.4232C40.073 10.3339 39.6971 10.3955 39.0377 10.6025L38.0332 10.918L38.1214 11.9783L38.2096 13.0387L36.9084 13.4657C36.1928 13.7006 35.5671 13.8928 35.5179 13.8928C35.4688 13.8928 35.4015 13.7596 35.3684 13.5967ZM38.3286 8.34529C38.5743 8.26215 38.7986 8.17476 38.8269 8.15108C38.8798 8.10692 37.5296 5.99569 37.4485 5.99569C37.3931 5.99569 37.5292 8.10362 37.5993 8.33192C37.6617 8.53492 37.7626 8.53677 38.3286 8.34529ZM59.8063 12.0923C58.7896 11.8645 57.1249 11.1989 56.4921 10.7673C56.3702 10.6842 56.4081 10.3834 56.6526 9.49352C56.8286 8.8528 57.0001 8.30114 57.0336 8.2676C57.0671 8.23406 57.2931 8.35832 57.5358 8.54372C58.0677 8.94996 59.25 9.49025 59.8419 9.59757C60.1739 9.65777 60.3359 9.61136 60.5532 9.39381L60.8345 9.11208L60.4372 8.77136C60.2186 8.58396 59.7064 8.2266 59.2988 7.97723C58.8913 7.72785 58.3951 7.28863 58.1963 7.00117C57.8829 6.54817 57.8354 6.35427 57.8405 5.54611C57.8552 3.16671 59.6206 2.00161 62.2682 2.62391C63.2237 2.84847 64.8669 3.54136 64.8669 3.71966C64.8669 3.82465 64.3919 5.62768 64.2775 5.95701C64.2408 6.06251 63.9727 5.96521 63.478 5.66692C62.7026 5.19938 61.4915 4.84786 61.132 4.986C61.0174 5.03005 60.9236 5.18365 60.9236 5.32732C60.9236 5.60079 60.9883 5.65594 62.3678 6.55729C63.79 7.48663 64.1547 8.63125 63.5468 10.2581C62.9943 11.7369 61.4968 12.4712 59.8063 12.0923ZM45.7626 8.34373C45.7151 7.0291 45.6762 4.89687 45.6762 3.60545V1.25741H47.037C47.7855 1.25741 48.754 1.22015 49.1891 1.17461L49.9803 1.0918L50.4696 3.18179C50.7387 4.33129 51.0569 5.67221 51.1767 6.16162L51.3945 7.05145L51.3471 4.08862L51.2997 1.1258H52.5602C53.7619 1.1258 53.8234 1.13959 53.8806 1.42194C53.9136 1.58482 53.9716 3.71846 54.0095 6.16337L54.0784 10.6087L51.8912 10.5726L49.704 10.5365L49.0691 7.83835C48.72 6.35435 48.405 5.08094 48.3691 5.00855C48.3333 4.93616 48.3283 6.19476 48.3579 7.80545L48.4118 10.734H47.1304H45.8491L45.7626 8.34373Z" fill="#CCCED7"/>
</g>
</svg>
