<svg width="24" height="24" viewBox="0 0 24 24" fill="none" xmlns="http://www.w3.org/2000/svg">
<path d="M22.0827 4.66406L1.91602 4.66407" stroke="currentColor" stroke-width="2" stroke-linecap="round" stroke-linejoin="round"/>
<path d="M9.25 10.1641V17.4974" stroke="currentColor" stroke-width="2" stroke-linecap="round" stroke-linejoin="round"/>
<path d="M14.75 10.1641V17.4974" stroke="currentColor" stroke-width="2" stroke-linecap="round" stroke-linejoin="round"/>
<path d="M20.25 4.66406V22.0807C20.25 22.3238 20.1534 22.557 19.9815 22.7289C19.8096 22.9008 19.5764 22.9974 19.3333 22.9974H4.66667C4.42355 22.9974 4.19039 22.9008 4.01849 22.7289C3.84658 22.557 3.75 22.3238 3.75 22.0807V4.66406" stroke="currentColor" stroke-width="2" stroke-linecap="round" stroke-linejoin="round"/>
<path d="M16.5827 4.66667V2.83333C16.5827 2.3471 16.3895 1.88079 16.0457 1.53697C15.7019 1.19315 15.2356 1 14.7493 1H9.24935C8.76312 1 8.2968 1.19315 7.95299 1.53697C7.60917 1.88079 7.41602 2.3471 7.41602 2.83333V4.66667" stroke="currentColor" stroke-width="2" stroke-linecap="round" stroke-linejoin="round"/>
</svg>
