<svg width="233" height="40" viewBox="0 0 233 40" fill="none" xmlns="http://www.w3.org/2000/svg">
<path fill-rule="evenodd" clip-rule="evenodd" d="M60.6592 26.7598H229.832V28.4852H60.6592V26.7598Z" fill="#007AFF"/>
<path d="M73.3663 12.0026L71.5761 13.6232C71.0543 13.0528 70.4206 12.5956 69.7144 12.2799C69.0082 11.9643 68.2445 11.7969 67.4708 11.7881C66.8745 11.7734 66.2811 11.8766 65.7248 12.0918C65.1686 12.3069 64.6604 12.6298 64.2295 13.0417C63.8023 13.4324 63.4634 13.9096 63.2354 14.4413C63.0074 14.9731 62.8955 15.5473 62.9072 16.1257C62.8926 16.9197 63.0956 17.7026 63.4944 18.3898C63.8852 19.054 64.4561 19.5943 65.1413 19.9484C65.8223 20.2879 66.568 20.4783 67.3287 20.5071C68.0893 20.5359 68.8473 20.4023 69.5521 20.1152C70.3044 19.7589 70.9893 19.2751 71.5761 18.6853L73.309 20.4155C72.4969 21.2158 71.5457 21.8618 70.5021 22.3222C69.5415 22.6973 68.5164 22.8803 67.4851 22.8608C65.5908 22.9279 63.7471 22.2422 62.3582 20.9542C61.2992 19.8881 60.62 18.5043 60.4251 17.0154C60.2302 15.5265 60.5303 14.0149 61.2794 12.7128C61.9101 11.6959 62.8084 10.8715 63.8763 10.3296C64.9974 9.72908 66.2511 9.41778 67.5233 9.42392C68.6226 9.424 69.7099 9.65119 70.7169 10.0912C71.7284 10.5267 72.6326 11.1774 73.3663 11.9978V12.0026Z" fill="#007AFF"/>
<path d="M75.3428 22.5419V13.0898H79.3335C80.6415 13.0898 81.5294 13.3345 81.9972 13.8239C82.2191 14.0406 82.3954 14.2994 82.5159 14.5851C82.6364 14.8707 82.6986 15.1775 82.699 15.4874C82.7058 15.9289 82.5702 16.361 82.3124 16.7197C82.0545 17.0785 81.688 17.3449 81.2669 17.4798C82.5748 17.9088 83.2288 18.7175 83.2288 19.906C83.2536 20.4609 83.0835 21.0069 82.748 21.4499C82.4124 21.8929 81.9324 22.2049 81.391 22.3321C80.6595 22.4942 79.9106 22.5647 79.1617 22.5419H75.3428ZM77.8251 16.822H78.7798C79.123 16.8452 79.4627 16.7417 79.7345 16.5313C79.8355 16.456 79.9183 16.3592 79.977 16.2479C80.0356 16.1365 80.0686 16.0135 80.0735 15.8878C80.0814 15.7414 80.0589 15.595 80.0075 15.4578C79.956 15.3205 79.8767 15.1953 79.7745 15.0901C79.6723 14.9849 79.5494 14.902 79.4135 14.8465C79.2777 14.791 79.1318 14.7642 78.9851 14.7677H78.6605H77.8107V16.8125L77.8251 16.822ZM77.8251 20.7211H79.0853C79.2718 20.7413 79.4604 20.723 79.6394 20.6672C79.8185 20.6114 79.9841 20.5194 80.126 20.3969C80.3004 20.2319 80.4061 20.0072 80.4219 19.7677C80.4206 19.456 80.3012 19.1563 80.0878 18.9288C79.9229 18.7855 79.7299 18.678 79.5212 18.6132C79.3125 18.5483 79.0925 18.5276 78.8753 18.5523H77.8251V20.7211Z" fill="#007AFF"/>
<path d="M87.0095 18.6621C86.4743 18.4897 86.0076 18.1523 85.6765 17.6984C85.3454 17.2445 85.167 16.6974 85.1669 16.1359C85.1552 15.4679 85.3782 14.817 85.797 14.296C86.1691 13.8008 86.6997 13.4475 87.3007 13.295C88.1995 13.1308 89.1131 13.0621 90.0264 13.0901H92.5278V22.5421H90.0407V19.1245H89.5634L87.1766 22.5421H84.2217L86.9808 18.6621H87.0095ZM90.0598 17.3418V15.0634H89.1863C88.2315 15.0634 87.7542 15.44 87.7542 16.1979C87.7542 16.9557 88.284 17.3418 89.3438 17.3418H90.0598Z" fill="#007AFF"/>
<path d="M96.7095 18.538V16.8459H97.1869C97.4937 16.8524 97.7963 16.7732 98.0604 16.6171C98.1832 16.5433 98.283 16.437 98.3487 16.3099C98.4145 16.1828 98.4436 16.04 98.4328 15.8973C98.4351 15.7607 98.4062 15.6253 98.3483 15.5014C98.2904 15.3775 98.205 15.2684 98.0986 15.1824C97.8673 14.9943 97.5757 14.8962 97.2776 14.9059C96.7246 14.9551 96.1943 15.1491 95.7405 15.4684L94.7857 13.8287C95.6073 13.201 96.6154 12.8654 97.6499 12.8754C98.5025 12.8459 99.3411 13.0972 100.037 13.5903C100.342 13.8095 100.589 14.1001 100.755 14.4367C100.922 14.7733 101.003 15.1456 100.991 15.5208C100.991 16.3406 100.514 17.008 99.5976 17.5132C100.839 17.9485 101.459 18.7318 101.459 19.8631C101.464 20.2699 101.372 20.6719 101.191 21.0364C101.01 21.4009 100.745 21.7175 100.419 21.9604C99.587 22.5558 98.5761 22.8486 97.5544 22.7897C96.3485 22.8393 95.1641 22.4592 94.2129 21.7173L95.5782 20.0633C96.0735 20.4435 96.6769 20.6571 97.3014 20.6734C97.6632 20.6907 98.0205 20.5886 98.3182 20.3827C98.4371 20.2977 98.5335 20.1853 98.5992 20.0549C98.6649 19.9246 98.6979 19.7802 98.6953 19.6343C98.6948 19.4886 98.6629 19.3447 98.602 19.2124C98.5411 19.08 98.4524 18.9622 98.3421 18.8669C98.0786 18.6377 97.7363 18.5198 97.3874 18.538H96.7095Z" fill="#007AFF"/>
<path d="M105.937 16.5074H106.677C107.479 16.4841 108.281 16.5609 109.064 16.7362C109.634 16.8867 110.138 17.222 110.496 17.6895C110.894 18.215 111.098 18.8616 111.074 19.5199C111.098 20.1651 110.916 20.8014 110.553 21.3359C110.233 21.7953 109.765 22.1316 109.226 22.2892C108.485 22.4706 107.722 22.5508 106.959 22.5276H103.455V13.0898H105.937V16.5074ZM105.937 20.7068H106.696C107.027 20.7208 107.358 20.6903 107.68 20.6162C107.885 20.5516 108.069 20.4311 108.21 20.2682C108.364 20.0952 108.447 19.8706 108.444 19.6391C108.444 18.8335 107.966 18.4283 106.973 18.4283H105.937V20.7068Z" fill="#007AFF"/>
<path d="M119.523 22.5419H118.201V13.0898H120.631V18.6381L125.71 13.0898H126.904V22.5419H124.479V17.1033L119.523 22.5419Z" fill="#007AFF"/>
<path d="M131.891 16.4884H135.629V13.0898H138.112V22.5419H135.629V18.6238H131.891V22.5419H129.409V13.0898H131.891V16.4884Z" fill="#007AFF"/>
<path d="M145.64 19.5008L145.363 19.2244L142.418 22.5419H139.119L143.597 17.68L139.172 13.0898H142.203L145.64 16.6266V13.0898H148.127V16.6361L151.578 13.0898H154.61L150.17 17.68L154.667 22.5419H151.359L148.394 19.2101L148.127 19.5008V22.5419H145.64V19.5008Z" fill="#007AFF"/>
<path d="M156.996 22.5419H155.674V13.0898H158.099V18.6381L163.178 13.0898H164.376V22.5419H161.946V17.1033L156.996 22.5419Z" fill="#007AFF"/>
<path d="M169.364 16.4884H173.097V13.0898H175.584V22.5419H173.097V18.6238H169.364V22.5419H166.882V13.0898H169.364V16.4884Z" fill="#007AFF"/>
<path d="M179.413 22.5419H178.091V13.0898H180.516V18.6381L185.595 13.0898H186.793V22.5419H184.363V17.1033L179.413 22.5419Z" fill="#007AFF"/>
<path d="M191.782 13.0888V14.1279C192.202 13.7205 192.696 13.397 193.238 13.1746C194.08 12.8425 195.003 12.7676 195.888 12.9593C196.774 13.1511 197.582 13.6009 198.212 14.2518C198.666 14.7275 199.02 15.2894 199.253 15.9043C199.486 16.5192 199.593 17.1746 199.567 17.8315C199.584 18.4829 199.469 19.131 199.227 19.7365C198.986 20.3419 198.624 20.8922 198.164 21.354C197.737 21.8112 197.219 22.1745 196.644 22.4207C196.069 22.667 195.448 22.7907 194.822 22.7839C194.277 22.7897 193.736 22.691 193.228 22.4932C192.685 22.2682 192.188 21.945 191.762 21.5398V26.0013H189.275V13.0888H191.782ZM194.388 15.0288C194.029 15.017 193.672 15.0786 193.338 15.2098C193.004 15.3409 192.7 15.5388 192.445 15.7914C192.184 16.0526 191.98 16.3649 191.846 16.7086C191.713 17.0524 191.651 17.4201 191.667 17.7886C191.651 18.1629 191.712 18.5365 191.846 18.8865C191.979 19.2364 192.183 19.5554 192.445 19.8239C192.962 20.3262 193.655 20.6072 194.376 20.6072C195.097 20.6072 195.79 20.3262 196.307 19.8239C196.566 19.5584 196.768 19.2433 196.902 18.8976C197.036 18.5519 197.098 18.1828 197.085 17.8124C197.098 17.4457 197.037 17.0801 196.905 16.7377C196.773 16.3952 196.573 16.0831 196.317 15.82C196.069 15.5663 195.772 15.3663 195.443 15.2326C195.114 15.0989 194.762 15.0344 194.407 15.0431L194.388 15.0288Z" fill="#007AFF"/>
<path d="M202.947 22.5419H201.625V13.0898H204.055V18.6381L209.134 13.0898H210.327V22.5419H207.902V17.1033L202.947 22.5419Z" fill="#007AFF"/>
<path d="M215.315 16.4884H219.053V13.0898H221.535V22.5419H219.053V18.6238H215.315V22.5419H212.833V13.0898H215.315V16.4884Z" fill="#007AFF"/>
<path d="M224.042 13.0898H229.832V15.3492H226.524V22.5419H224.042V13.0898Z" fill="#007AFF"/>
<path fill-rule="evenodd" clip-rule="evenodd" d="M38.037 20.3632V25.0202L42.3333 22.5415V19.8103H49.2837V37.9899H42.3476V35.516L38.0513 37.9899H31.0866V34.1099C28.201 36.3727 24.698 37.7122 21.0369 37.9527C17.3757 38.1932 13.7272 37.3237 10.5695 35.458C7.41189 33.5922 4.89245 30.8174 3.34146 27.4972C1.79047 24.177 1.28031 20.4664 1.87784 16.8517C2.47537 13.237 4.15272 9.88693 6.69002 7.24056C9.22731 4.59418 12.5062 2.775 16.0968 2.02149C19.6874 1.26798 23.4223 1.61529 26.8118 3.0179C30.2013 4.4205 33.0874 6.81294 35.0916 9.88164L25.3105 15.5157C24.2938 14.2214 22.8505 13.3288 21.237 12.9966C19.6236 12.6643 17.9444 12.9139 16.4979 13.701C15.0513 14.488 13.9309 15.7616 13.3359 17.2955C12.7408 18.8294 12.7095 20.5242 13.2475 22.0789C13.7856 23.6337 14.8581 24.9477 16.2747 25.7874C17.6912 26.6272 19.36 26.9384 20.9846 26.6658C22.6092 26.3932 24.0845 25.5544 25.1483 24.2984C26.2121 23.0424 26.7955 21.4505 26.7951 19.8056V19.7817H38.0465V19.8056C38.0465 19.9915 38.0465 20.1774 38.0465 20.3585L38.037 20.3632Z" fill="#007AFF"/>
<path d="M60.4297 37.9894V32.7891H61.2842V36.9169L64.1579 32.7891H65.0076V37.9894H64.1531V33.8615L61.2794 37.9894H60.4297Z" fill="#007AFF"/>
<path d="M71.0464 37.7275C70.4446 37.9915 69.7941 38.1263 69.1369 38.1232C68.3559 38.1722 67.5862 37.9177 66.9888 37.413C66.7284 37.1475 66.5268 36.8305 66.3969 36.4824C66.2669 36.1342 66.2116 35.7627 66.2345 35.3919C66.2121 35.0202 66.2694 34.6481 66.4028 34.3003C66.5362 33.9526 66.7425 33.6373 67.0079 33.3757C67.6138 32.8657 68.3938 32.6095 69.1846 32.6607C69.8146 32.6724 70.4417 32.7491 71.0559 32.8895V33.5807C70.4389 33.3728 69.7966 33.2493 69.1465 33.2136C68.8702 33.1969 68.5936 33.2393 68.3351 33.3379C68.0766 33.4365 67.8422 33.5892 67.6475 33.7856C67.2666 34.2348 67.0749 34.8141 67.1129 35.4015C67.097 35.6883 67.1391 35.9754 67.2367 36.2456C67.3343 36.5159 67.4854 36.7637 67.6809 36.9744C67.8877 37.1705 68.1324 37.3223 68.4 37.4207C68.6676 37.519 68.9524 37.5618 69.2372 37.5464C69.8662 37.5296 70.4838 37.375 71.0464 37.0936V37.7275Z" fill="#007AFF"/>
<path d="M73.6773 37.9894V33.342H71.5674V32.7891H76.6418V33.342H74.527V37.9894H73.6773Z" fill="#007AFF"/>
<path d="M79.9211 38.123C79.5503 38.141 79.1797 38.0844 78.8312 37.9567C78.4827 37.8289 78.1635 37.6327 77.8923 37.3795C77.4032 36.8326 77.1328 36.125 77.1328 35.3918C77.1328 34.6586 77.4032 33.951 77.8923 33.4042C78.4598 32.9238 79.1796 32.6602 79.9235 32.6602C80.6675 32.6602 81.3873 32.9238 81.9547 33.4042C82.4439 33.951 82.7142 34.6586 82.7142 35.3918C82.7142 36.125 82.4439 36.8326 81.9547 37.3795C81.6829 37.633 81.3628 37.8295 81.0135 37.9572C80.6642 38.085 80.2927 38.1413 79.9211 38.123ZM79.9211 37.5653C80.1819 37.5797 80.4426 37.5353 80.6839 37.4354C80.9251 37.3356 81.1408 37.1829 81.315 36.9886C81.6415 36.5181 81.8164 35.9594 81.8164 35.387C81.8164 34.8147 81.6415 34.256 81.315 33.7855C80.9449 33.419 80.4448 33.2134 79.9235 33.2134C79.4023 33.2134 78.9021 33.419 78.532 33.7855C78.2056 34.256 78.0307 34.8147 78.0307 35.387C78.0307 35.9594 78.2056 36.5181 78.532 36.9886C78.7055 37.1825 78.9204 37.335 79.1608 37.4349C79.4013 37.5347 79.6611 37.5793 79.9211 37.5653Z" fill="#007AFF"/>
<path d="M86.6993 37.9907V35.8982C86.2322 36.1173 85.7211 36.2265 85.2051 36.2175C84.7251 36.2481 84.2511 36.0966 83.8781 35.7933C83.7252 35.6669 83.6083 35.5025 83.5391 35.3166C83.4681 35.0592 83.4375 34.7922 83.4484 34.5254V32.8047H84.2981V34.5063C84.2675 34.6604 84.2754 34.8197 84.3212 34.97C84.3671 35.1203 84.4494 35.2569 84.5609 35.3678C84.6724 35.4786 84.8096 35.5603 84.9603 35.6054C85.111 35.6505 85.2705 35.6578 85.4247 35.6265C85.8695 35.6321 86.3084 35.5238 86.6993 35.3119V32.8047H87.549V38.005L86.6993 37.9907Z" fill="#007AFF"/>
<path d="M89.0859 37.9894V32.7891H89.9404V34.9817H92.7712V32.7891H93.6209V37.9894H92.7712V35.5393H89.9404V37.9894H89.0859Z" fill="#007AFF"/>
<path d="M95.1533 37.9894V32.7891H96.003V36.9169L98.8815 32.7891H99.7312V37.9894H98.8768V33.8615L96.003 37.9894H95.1533Z" fill="#007AFF"/>
<path d="M102.118 35.587V37.9703H101.269V32.7891H102.118V35.0341H102.161C102.341 35.0473 102.521 34.9967 102.667 34.8911C102.888 34.6569 103.084 34.4014 103.254 34.1285L103.512 33.7471L103.717 33.423C103.842 33.2331 104.005 33.0708 104.195 32.9464C104.38 32.8451 104.59 32.7957 104.801 32.8034H104.906V33.342H104.839C104.629 33.342 104.414 33.5231 104.185 33.8758L104.028 34.1237L103.904 34.3144C103.761 34.5454 103.602 34.7653 103.426 34.9721C103.306 35.1018 103.163 35.2099 103.006 35.2915C103.259 35.3566 103.493 35.4808 103.689 35.6538C103.928 35.922 104.132 36.22 104.295 36.5403L104.5 36.8978L104.725 37.3125C104.868 37.5747 105.006 37.7892 105.14 38.0084H104.243L104.176 37.9036L103.913 37.4269L103.574 36.8263C103.335 36.3325 102.973 35.9076 102.524 35.5918L102.118 35.587Z" fill="#007AFF"/>
<path d="M106.166 37.9894V32.7891H107.016V36.9169L109.894 32.7891H110.739V37.9894H109.889V33.8615L107.011 37.9894H106.166Z" fill="#007AFF"/>
<path d="M114.893 37.9894V32.7891H118.234V33.342H115.752V35.0198H116.205C116.55 35.0107 116.895 35.0282 117.236 35.0722C117.446 35.1155 117.646 35.1945 117.828 35.3058C118.039 35.4075 118.216 35.5676 118.338 35.7672C118.46 35.9667 118.522 36.197 118.516 36.4307C118.525 36.698 118.456 36.9621 118.318 37.1913C118.18 37.4205 117.978 37.6049 117.738 37.7224C117.178 37.955 116.572 38.0545 115.967 38.0132L114.893 37.9894ZM115.742 37.4507H116.038C116.453 37.4856 116.87 37.41 117.246 37.2315C117.381 37.1526 117.492 37.0388 117.568 36.902C117.643 36.7653 117.681 36.6107 117.676 36.4545C117.684 36.3179 117.655 36.1814 117.591 36.0603C117.527 35.9392 117.431 35.8381 117.313 35.7681C116.951 35.6033 116.554 35.5312 116.158 35.5584H115.742V37.465V37.4507Z" fill="#007AFF"/>
<path d="M119.69 37.9894V32.7891H123.027V33.342H120.545V35.0103H122.626V35.5679H120.545V37.4364H123.199V37.9894H119.69Z" fill="#007AFF"/>
<path d="M128.65 37.7274C128.048 37.992 127.398 38.1269 126.74 38.1231C125.959 38.1741 125.189 37.9193 124.592 37.4128C124.33 37.1484 124.127 36.8316 123.997 36.4833C123.866 36.135 123.81 35.7631 123.833 35.3918C123.811 35.0201 123.868 34.6479 124.002 34.3002C124.135 33.9525 124.341 33.6372 124.607 33.3756C125.213 32.8661 125.993 32.6099 126.783 32.6606C127.413 32.6723 128.04 32.749 128.655 32.8894V33.5805C128.045 33.3748 127.411 33.2514 126.769 33.2135C126.492 33.1964 126.215 33.2386 125.955 33.3372C125.696 33.4358 125.461 33.5887 125.265 33.7855C124.888 34.2364 124.698 34.8148 124.735 35.4014C124.718 35.6883 124.76 35.9757 124.858 36.2461C124.955 36.5165 125.107 36.7642 125.304 36.9743C125.509 37.1705 125.753 37.3224 126.02 37.4208C126.287 37.5192 126.571 37.5619 126.855 37.5463C127.484 37.5295 128.102 37.3749 128.664 37.0935V37.7274H128.65Z" fill="#007AFF"/>
<path d="M129.877 37.9894V32.7891H134.412V37.9894H133.562V33.342H130.727V37.9894H129.877Z" fill="#007AFF"/>
<path d="M135.944 37.9894V32.7891H139.281V33.342H136.794V35.0103H138.875V35.5679H136.794V37.4364H139.453V37.9894H135.944Z" fill="#007AFF"/>
<path d="M140.422 37.9892V32.7889H142.045C142.409 32.7786 142.773 32.8122 143.129 32.889C143.364 32.9471 143.579 33.0692 143.749 33.2418C143.86 33.3649 143.945 33.5087 144 33.665C144.055 33.8213 144.078 33.9868 144.069 34.1522C144.078 34.4054 144.024 34.6571 143.912 34.8843C143.799 35.1114 143.632 35.3071 143.424 35.4534C142.897 35.7985 142.273 35.9655 141.644 35.9301H141.272V37.994L140.422 37.9892ZM141.272 35.3724H141.611C142.017 35.3981 142.421 35.291 142.761 35.0673C142.894 34.969 143.001 34.8391 143.072 34.6894C143.143 34.5397 143.175 34.3747 143.167 34.2094C143.178 34.0797 143.155 33.9493 143.099 33.8319C143.042 33.7144 142.955 33.6143 142.847 33.542C142.516 33.3837 142.149 33.3147 141.782 33.3419H141.272V35.3724Z" fill="#007AFF"/>
<path d="M144.98 37.9894V32.7891H148.317V33.342H145.835V35.0103H147.916V35.5679H145.835V37.4364H148.489V37.9894H144.98Z" fill="#007AFF"/>
<path d="M149.459 37.9894V32.7891H152.801V33.342H150.29V35.0198H150.767C151.111 35.0107 151.456 35.0282 151.798 35.0722C152.012 35.106 152.219 35.1769 152.409 35.282C152.62 35.3836 152.797 35.5438 152.919 35.7433C153.041 35.9428 153.102 36.1732 153.096 36.4069C153.105 36.6742 153.037 36.9383 152.899 37.1675C152.76 37.3966 152.559 37.5811 152.318 37.6986C151.759 37.9312 151.152 38.0307 150.547 37.9894H149.459ZM150.29 37.4507H150.586C151 37.4856 151.417 37.41 151.793 37.2315C151.928 37.1526 152.04 37.0388 152.115 36.902C152.191 36.7653 152.228 36.6107 152.223 36.4545C152.232 36.3179 152.202 36.1814 152.138 36.0603C152.074 35.9392 151.978 35.8381 151.86 35.7681C151.499 35.6033 151.101 35.5312 150.705 35.5584H150.29V37.465V37.4507Z" fill="#007AFF"/>
<path d="M156.7 38.123C156.33 38.141 155.959 38.0844 155.611 37.9567C155.262 37.8289 154.943 37.6327 154.672 37.3795C154.182 36.8326 153.912 36.125 153.912 35.3918C153.912 34.6586 154.182 33.951 154.672 33.4042C155.239 32.9238 155.959 32.6602 156.703 32.6602C157.447 32.6602 158.167 32.9238 158.734 33.4042C159.223 33.951 159.494 34.6586 159.494 35.3918C159.494 36.125 159.223 36.8326 158.734 37.3795C158.462 37.6326 158.142 37.8288 157.792 37.9565C157.443 38.0842 157.072 38.1408 156.7 38.123ZM156.7 37.5653C156.961 37.5797 157.222 37.5353 157.463 37.4354C157.704 37.3356 157.92 37.1829 158.094 36.9886C158.418 36.5169 158.591 35.9586 158.591 35.387C158.591 34.8155 158.418 34.2572 158.094 33.7855C157.724 33.419 157.224 33.2134 156.703 33.2134C156.182 33.2134 155.681 33.419 155.311 33.7855C154.985 34.256 154.81 34.8147 154.81 35.387C154.81 35.9594 154.985 36.5181 155.311 36.9886C155.485 37.1825 155.7 37.335 155.94 37.4349C156.181 37.5347 156.44 37.5793 156.7 37.5653Z" fill="#007AFF"/>
<path d="M160.672 37.9896V32.7893H161.522V36.9171L164.386 32.7893H165.231V37.9896H164.381V33.876L161.517 38.0038L160.672 37.9896ZM161.588 31.3164H162.066C162.152 31.6644 162.433 31.8407 162.911 31.8407C163.388 31.8407 163.67 31.6644 163.756 31.3164H164.233C164.218 31.465 164.172 31.6088 164.099 31.7392C164.026 31.8695 163.927 31.9835 163.808 32.0743C163.544 32.27 163.221 32.3708 162.892 32.3603C162.564 32.372 162.242 32.271 161.98 32.0743C161.861 31.9834 161.761 31.8694 161.688 31.7392C161.614 31.6089 161.567 31.4651 161.55 31.3164H161.588Z" fill="#007AFF"/>
<path d="M166.792 37.9894V32.7891H167.642V34.9817H170.472V32.7891H171.322V37.9894H170.472V35.5393H167.642V37.9894H166.792Z" fill="#007AFF"/>
<path d="M175.303 38.123C174.931 38.1413 174.56 38.085 174.211 37.9572C173.861 37.8295 173.541 37.633 173.269 37.3795C172.78 36.8326 172.51 36.125 172.51 35.3918C172.51 34.6586 172.78 33.951 173.269 33.4042C173.837 32.9238 174.557 32.6602 175.3 32.6602C176.044 32.6602 176.764 32.9238 177.332 33.4042C177.821 33.951 178.091 34.6586 178.091 35.3918C178.091 36.125 177.821 36.8326 177.332 37.3795C177.061 37.6327 176.741 37.8289 176.393 37.9567C176.044 38.0844 175.674 38.141 175.303 38.123ZM175.303 37.5653C175.563 37.5793 175.823 37.5347 176.063 37.4349C176.304 37.335 176.519 37.1825 176.692 36.9886C177.018 36.5181 177.193 35.9594 177.193 35.387C177.193 34.8147 177.018 34.256 176.692 33.7855C176.322 33.419 175.822 33.2134 175.3 33.2134C174.779 33.2134 174.279 33.419 173.909 33.7855C173.583 34.256 173.408 34.8147 173.408 35.387C173.408 35.9594 173.583 36.5181 173.909 36.9886C174.083 37.1829 174.299 37.3356 174.54 37.4354C174.781 37.5353 175.042 37.5797 175.303 37.5653Z" fill="#007AFF"/>
<path d="M179.27 37.9894V32.7891H182.606V33.342H180.119V37.9894H179.27Z" fill="#007AFF"/>
<path d="M185.92 38.123C185.549 38.1405 185.177 38.0838 184.828 37.9561C184.479 37.8284 184.159 37.6324 183.886 37.3795C183.397 36.8326 183.127 36.125 183.127 35.3918C183.127 34.6586 183.397 33.951 183.886 33.4042C184.454 32.9238 185.174 32.6602 185.918 32.6602C186.662 32.6602 187.381 32.9238 187.949 33.4042C188.438 33.951 188.708 34.6586 188.708 35.3918C188.708 36.125 188.438 36.8326 187.949 37.3795C187.678 37.6327 187.358 37.8289 187.01 37.9567C186.661 38.0844 186.291 38.141 185.92 38.123ZM185.92 37.5653C186.18 37.58 186.44 37.5357 186.681 37.4358C186.921 37.336 187.136 37.1831 187.309 36.9886C187.636 36.5181 187.811 35.9594 187.811 35.387C187.811 34.8147 187.636 34.256 187.309 33.7855C186.939 33.419 186.439 33.2134 185.918 33.2134C185.396 33.2134 184.896 33.419 184.526 33.7855C184.203 34.2572 184.03 34.8155 184.03 35.387C184.03 35.9586 184.203 36.5169 184.526 36.9886C184.7 37.1829 184.916 37.3356 185.157 37.4354C185.399 37.5353 185.659 37.5797 185.92 37.5653Z" fill="#007AFF"/>
<path d="M192.502 37.9894V32.7891H197.032V37.9894H196.182V33.342H193.352V37.9894H192.502Z" fill="#007AFF"/>
<path d="M198.564 37.9894V32.7891H199.419V36.9169L202.293 32.7891H203.142V37.9894H202.288V33.8615L199.414 37.9894H198.564Z" fill="#007AFF"/>
<path d="M206.103 37.9894V33.342H203.988V32.7891H209.067V33.342H206.953V37.9894H206.103Z" fill="#007AFF"/>
<path d="M209.2 37.9894L211.563 32.7891H212.403L214.733 37.9894H213.821L213.172 36.5594H210.651L209.988 37.9894H209.2ZM210.895 35.9969H212.924L211.907 33.7614L210.914 35.9969H210.895Z" fill="#007AFF"/>
<path d="M215.598 37.9894V32.7891H216.452V34.9817H219.283V32.7891H220.133V37.9894H219.283V35.5393H216.452V37.9894H215.598Z" fill="#007AFF"/>
<path d="M221.665 37.9894V32.7891H222.515V36.9169L225.393 32.7891H226.238V37.9894H225.388V33.8615L222.515 37.9894H221.665Z" fill="#007AFF"/>
<path d="M230.515 35.7839H229.98C229.462 36.2797 229.003 36.8331 228.61 37.4331L228.314 37.8526L228.209 38.0004H227.111C227.353 37.7532 227.576 37.4887 227.78 37.2091L227.951 36.9756L228.061 36.8278L228.3 36.5132C228.539 36.1627 228.852 35.8683 229.217 35.6505C228.835 35.5903 228.48 35.4157 228.2 35.15C228.076 35.0328 227.976 34.8917 227.908 34.7353C227.84 34.5788 227.805 34.4102 227.804 34.2396C227.802 34.0208 227.854 33.805 227.954 33.6107C228.055 33.4164 228.201 33.2494 228.381 33.1242C228.559 32.996 228.763 32.9081 228.978 32.8668C229.319 32.8154 229.664 32.7931 230.009 32.8001H231.365V38.0004H230.515V35.7839ZM230.515 33.3387H230.009C229.677 33.3099 229.344 33.3831 229.054 33.5484C228.943 33.6314 228.852 33.7392 228.79 33.8634C228.727 33.9875 228.695 34.1245 228.695 34.2634C228.695 34.4023 228.727 34.5393 228.79 34.6634C228.852 34.7876 228.943 34.8954 229.054 34.9784C229.404 35.1665 229.799 35.2524 230.195 35.2262H230.482V33.3196L230.515 33.3387Z" fill="#007AFF"/>
</svg>
