<svg width="1635" height="1588" viewBox="0 0 1635 1588" fill="none" xmlns="http://www.w3.org/2000/svg">
<path d="M1287.54 481.424C1243.77 475.884 1212.66 464.223 1201.31 445.25C1199.65 443.308 1199.74 441.516 1198.08 439.573C1193.38 428.369 1195.7 417.765 1199.03 404.547C1203.19 392.3 1212.72 378.711 1225.75 365.421C1263.73 329.958 1179.24 311.037 1268.37 291.646C1294.23 285.754 1311.67 306.148 1324.58 328.856C1327.81 334.533 1331.04 340.21 1332.51 345.737C1338.78 360.676 1350.96 380.62 1369.79 391.231C1387.79 400.871 1396 412.374 1398.21 420.665C1400.42 428.956 1391 440.753 1384.43 448.294C1381.66 450.757 1370.02 454.264 1357.46 458.592C1342.22 463.591 1326.89 470.382 1319.49 476.952C1314.78 482.851 1300.65 483.444 1287.54 481.424Z" stroke="#EEF0F4" stroke-width="0.602224" stroke-miterlimit="10"/>
<path d="M1269.7 502.398C1221.59 495.587 1186.23 480.863 1176.82 458.455C1175.16 456.513 1175.26 454.72 1174.52 451.957C1170.74 439.932 1173.98 428.506 1177.41 413.496C1180.74 400.278 1191.28 384.075 1206.99 370.114C1245.9 333.829 1166.77 313.566 1255.9 294.175C1283.51 288.433 1303.35 313.533 1316.17 338.033C1320.23 344.681 1322.53 351.18 1323.18 355.735C1325.94 370.374 1337.93 393.903 1359.34 405.635C1378.17 416.246 1387.31 426.929 1393.12 433.727C1398.01 441.346 1387.57 455.757 1384.7 460.013C1385.53 460.984 1368.63 464.041 1352.46 469.861C1333.62 476.353 1314.68 484.637 1308.86 494.941C1305.8 502.782 1287.24 503.897 1269.7 502.398Z" stroke="#E9EDF4" stroke-width="0.594577" stroke-miterlimit="10"/>
<path d="M1251.95 521.577C1201.26 513.645 1161.65 495.858 1151.51 470.687C1150.78 467.923 1149.11 465.981 1149.21 464.189C1146.45 449.55 1151.44 438.274 1154.96 421.471C1158.39 406.461 1169.85 389.437 1186.58 372.862C1226.41 335.756 1151.81 313.179 1240.84 295.581C1268.46 289.839 1293.37 318.973 1305.17 346.087C1308.31 353.556 1311.44 361.026 1310.33 365.432C1308.66 380.592 1322.31 406.063 1346.31 418.916C1366.9 429.677 1378.71 439.688 1384.52 446.486C1393.94 451.792 1378.87 470.309 1381.46 471.43C1385.89 470.908 1364.65 472.694 1344.05 479.036C1320.78 486.049 1297.31 496.647 1296.56 510.986C1296.74 524.504 1274.67 525.319 1251.95 521.577Z" stroke="#E3E9F3" stroke-width="0.586929" stroke-miterlimit="10"/>
<path d="M1235.04 541.742C1180.01 532.539 1136.16 511.689 1126.2 482.933C1125.47 480.169 1124.73 477.406 1124.82 475.614C1122.99 460.153 1129.83 447.235 1132.52 429.461C1135.12 413.48 1147.6 393.842 1167 376.596C1207.75 338.669 1138.51 314.749 1227.55 297.151C1256.92 291.559 1283.4 324.428 1295.94 354.305C1299.9 362.746 1301.28 370.065 1300.17 374.471C1294.99 389.332 1307.62 417.416 1335.96 431.54C1357.38 443.272 1370.95 453.433 1379.53 457.768C1391.72 460.61 1374.71 482.561 1380.9 482.19C1388.93 480.176 1363.35 480.691 1339.15 488.525C1311.44 496.059 1284.28 509.942 1286.86 528.166C1287.77 544.447 1261.26 545.783 1235.04 541.742Z" stroke="#DDE5F3" stroke-width="0.579282" stroke-miterlimit="10"/>
<path d="M1216.37 561.753C1157.92 550.458 1108.9 527.366 1100.89 495.175C1100.15 492.411 1099.42 489.648 1098.68 486.884C1096.94 469.632 1106.37 457.835 1109.15 438.268C1111.84 420.494 1125.25 400.035 1146.59 379.354C1189.19 339.785 1123.46 316.165 1214.25 298.717C1245.37 293.274 1274.25 330.849 1286.7 362.519C1290.57 372.752 1291.95 380.071 1289.08 384.327C1278.64 398.738 1293.76 429.736 1323.76 445.803C1346.93 457.684 1361.33 468.817 1371.76 471.508C1387.46 474.65 1367.78 497.273 1377.66 493.617C1389.3 490.11 1360.21 490.325 1330.74 497.71C1299.43 506.737 1267.84 521.141 1273.64 545.042C1277.87 565.208 1247.77 568.037 1216.37 561.753Z" stroke="#D8E1F3" stroke-width="0.571635" stroke-miterlimit="10"/>
<path d="M1199.45 581.909C1136.67 569.343 1084.23 544.159 1076.4 508.383C1075.67 505.619 1074.93 502.856 1075.12 499.271C1075.22 480.376 1085.58 467.758 1087.53 447.22C1089.39 428.475 1104.74 404.581 1127.84 384.05C1171.36 343.66 1110.15 317.726 1200.85 302.07C1232.9 295.807 1265.01 339.058 1277.36 372.52C1281.23 382.753 1281.59 392.686 1277.89 395.971C1262.19 409.932 1279.8 443.844 1312.39 461.031C1335.56 472.913 1353.47 484.345 1364.82 486.216C1384.12 487.865 1360.74 513.773 1375.15 507.802C1389.56 501.832 1356.04 502.569 1322.14 510.475C1286.4 520.023 1250.28 536.742 1260.32 563.705C1269.73 586.113 1235.19 589.464 1199.45 581.909Z" stroke="#D2DEF3" stroke-width="0.563987" stroke-miterlimit="10"/>
<path d="M1182.54 602.083C1116.25 589.217 1058.73 559.998 1051.93 521.609C1051.19 518.845 1051.38 515.261 1050.64 512.497C1050.84 491.81 1062.95 479.342 1065.92 456.191C1067.87 435.653 1084.14 410.938 1108.26 387.793C1152.71 346.581 1096.86 319.305 1187.55 303.649C1220.43 298.357 1255.86 345.493 1268.12 380.747C1271.9 392.772 1272.26 402.706 1267.73 405.02C1247.59 419.502 1265.11 455.206 1301.21 472.693C1326.13 484.725 1345.8 496.307 1359 496.535C1381.9 496.691 1355.75 525.063 1374.69 516.779C1392.7 509.316 1354.84 508.782 1317.34 518.18C1277.16 528.25 1237.34 548.253 1250.71 579.102C1259.83 606.887 1221.78 609.937 1182.54 602.083Z" stroke="#CDDAF2" stroke-width="0.55634" stroke-miterlimit="10"/>
<path d="M1163.87 622.086C1094.16 607.128 1031.48 575.667 1025.69 534.664C1025.88 531.079 1024.31 527.344 1025.33 524.731C1026.45 503.222 1040.41 489.111 1042.55 464.989C1043.67 443.48 1060.96 416.152 1087.76 392.336C1133.13 350.303 1082.63 321.683 1174.16 306.999C1208.8 301.856 1245.79 352.727 1257.86 391.566C1261.64 403.592 1261.08 414.346 1255.63 417.481C1230.22 431.514 1250.23 470.131 1288.92 488.74C1314.67 501.742 1336.09 513.474 1351.14 512.06C1376.82 509.752 1348.72 541.559 1371.26 531.783C1392.87 522.827 1350.67 521.022 1308.74 530.942C1264.13 541.533 1220.71 563.029 1237.31 599.554C1250.77 628.61 1209.21 631.361 1163.87 622.086Z" stroke="#C7D6F2" stroke-width="0.548693" stroke-miterlimit="10"/>
<path d="M1146.97 642.246C1073.75 626.988 1006.82 592.464 1002.14 547.055C1002.33 543.47 1001.69 538.914 1001.87 535.329C1004.01 511.207 1020.55 498.217 1021.03 472.152C1022.25 448.851 1040.46 420.701 1068.28 394.272C1114.57 351.418 1068.51 322.277 1160.04 307.592C1195.6 301.628 1235.82 358.176 1247.8 398.808C1251.48 412.626 1250.92 423.38 1243.72 426.365C1213.97 439.127 1234.63 482.3 1275.89 502.029C1303.4 515.182 1325.74 526.093 1343.48 524.007C1372.75 520.207 1341.89 554.478 1368.95 542.387C1393.34 530.968 1347.63 528.863 1301.17 541.097C1252.96 553.181 1205.01 576.99 1224.93 617.4C1241.81 648.548 1196.65 652.791 1146.97 642.246Z" stroke="#C1D3F2" stroke-width="0.541045" stroke-miterlimit="10"/>
<path d="M1129.21 661.428C1051.65 644.899 980.474 607.311 975.984 558.317C975.34 553.761 975.528 550.176 975.715 546.591C978.78 521.648 996.243 507.837 996.817 479.98C997.203 455.708 1016.43 424.944 1046.93 397.843C1095.07 353.347 1053.44 323.685 1144.97 309C1182.28 303.186 1224.91 364.44 1236.79 406.864C1240.47 420.682 1239.82 433.228 1231.78 435.242C1196.77 447.554 1219.09 492.67 1263.77 514.491C1292.11 528.615 1317.13 538.855 1335.79 535.948C1367.84 529.684 1335.03 567.389 1365.7 553.806C1393.69 540.895 1343.64 537.519 1292.74 550.274C1240.1 562.879 1187.62 589.002 1211.79 632.476C1232.73 670.272 1183.22 673.244 1129.21 661.428Z" stroke="#BCCFF2" stroke-width="0.533398" stroke-miterlimit="10"/>
<path d="M1110.46 683.246C1029.49 664.624 953.143 624.795 949.67 573.187C949.027 568.631 949.214 565.046 950.325 560.64C953.484 533.905 973.626 519.422 974.293 489.773C974.773 463.709 995.851 431.302 1026.44 402.409C1075.51 357.091 1039.24 326.087 1131.59 312.373C1169.74 307.53 1215.68 372.668 1227.47 416.885C1231.06 432.495 1229.58 444.071 1220.62 446.906C1181.27 457.947 1204.23 507.619 1252.42 529.74C1282.51 544.014 1308.36 555.224 1329.79 549.853C1365.44 542.097 1328.94 583.087 1365.06 566.369C1396.65 551.965 1341.34 548.139 1286.93 560.594C1229.85 573.721 1173.69 603.13 1201.17 650.487C1222.85 691.047 1168.82 696.333 1110.46 683.246Z" stroke="#B6CBF1" stroke-width="0.525751" stroke-miterlimit="10"/>
<path d="M1092.62 704.223C1008.14 685.302 927.55 642.409 925.188 586.396C924.545 581.84 925.656 577.434 925.843 573.849C930.85 545.471 951.916 530.167 951.753 499.547C951.402 472.511 973.498 437.491 1006.76 407.927C1056.76 361.788 1025.01 328.469 1117.28 316.548C1156.34 310.884 1204.69 380.728 1217.21 427.708C1221.63 444.289 1219.22 456.686 1208.51 459.371C1163.9 469.962 1189.35 522.548 1239.2 546.611C1269.29 560.885 1297.82 571.424 1321.01 566.203C1360.26 556.955 1320.98 600.408 1361.63 581.377C1396.82 565.48 1338 561.354 1279.17 574.331C1218.48 588.95 1156.96 619.701 1188.6 671.915C1212.86 713.596 1155.32 718.582 1092.62 704.223Z" stroke="#B0C8F1" stroke-width="0.518104" stroke-miterlimit="10"/>
<path d="M1073.03 725.047C984.209 704.855 899.373 658.898 898.029 600.271C898.31 594.894 897.667 590.338 898.778 585.932C903.878 555.761 927.529 541.579 927.46 509.166C928.033 481.309 950.223 444.497 984.506 412.319C1035.42 365.358 1008.11 331.518 1101.3 318.776C1142.12 313.262 1192.86 387.812 1205.29 436.584C1209.71 453.165 1207.21 467.355 1195.67 469.069C1146.72 478.389 1171.98 534.559 1225.34 558.922C1257.19 573.346 1287.47 584.035 1312.5 577.172C1354.53 565.459 1313.31 612.348 1357.56 591.824C1395.53 573.463 1333.2 569.038 1269 583.357C1203.89 598.498 1138.76 630.741 1173.63 688.632C1202.04 735.168 1140.9 741.647 1073.03 725.047Z" stroke="#ABC4F1" stroke-width="0.510456" stroke-miterlimit="10"/>
<path d="M1054.26 746.841C962.023 724.557 872.018 676.358 871.691 615.118C871.972 609.74 871.329 605.185 872.44 600.779C878.465 569.787 903.964 553.962 903.064 520.578C902.807 491.75 926.014 452.324 962.976 419.474C1014.82 371.693 992.863 336.51 1086.88 324.739C1128.53 320.196 1182.59 398.63 1194.93 449.195C1199.26 467.569 1195.93 480.787 1183.46 483.322C1130.07 493.164 1157 551.276 1212.94 576.76C1245.62 592.155 1277.66 602.994 1304.54 594.489C1350.17 581.284 1306.18 630.636 1354.95 607.798C1396.52 587.945 1329.85 582.248 1262.06 598.06C1192.51 613.723 1123.69 649.251 1161.97 709.234C1192.04 757.713 1125.64 763.742 1054.26 746.841Z" stroke="#A5C0F1" stroke-width="0.502809" stroke-miterlimit="10"/>
<path d="M1035.5 768.647C939.752 746.063 845.501 694.801 845.455 628.183C845.736 622.806 846.017 617.429 847.128 613.023C854.17 579.417 880.5 564.563 880.618 528.566C880.454 497.945 904.585 457.698 942.565 422.235C996.254 372.811 978.733 337.107 1071.83 326.157C1114.4 320.793 1171.69 404.904 1183.94 457.261C1188.27 475.635 1184.84 490.645 1170.62 493.031C1112.89 501.601 1140.46 564.27 1198.99 590.875C1233.43 606.42 1266.39 616.438 1295.94 607.261C1344.35 591.592 1297.49 645.2 1350.79 620.048C1395.96 598.703 1324.03 592.556 1252.72 608.069C1178.74 624.252 1105.39 662.094 1147.83 726.933C1180.3 780.118 1111.21 786.818 1035.5 768.647Z" stroke="#9FBCF0" stroke-width="0.495162" stroke-miterlimit="10"/>
<path d="M1016.73 790.446C916.644 766.591 818.147 712.265 819.119 643.034C819.4 637.657 819.681 632.28 820.792 627.874C828.758 593.447 856.936 576.951 856.223 539.982C855.229 508.391 881.302 464.709 921.037 429.395C975.65 379.15 962.562 342.924 1056.58 331.153C1100.91 325.939 1160.69 412.964 1171.83 469.727C1176.06 489.893 1172.63 504.903 1157.58 506.317C1094.59 514.439 1123.82 579.049 1185.77 607.746C1221.03 624.262 1256.67 633.609 1287.15 623.611C1339.16 606.449 1289.53 662.521 1347.36 635.056C1396.13 612.217 1319.86 604.8 1244.12 620.834C1166.54 638.51 1088.66 678.666 1134.41 747.389C1170.3 802.666 1096.79 809.888 1016.73 790.446Z" stroke="#9AB9F0" stroke-width="0.487515" stroke-miterlimit="10"/>
<path d="M997.154 811.288C894.481 786.312 789.983 728.774 791.973 656.929C792.254 651.552 792.534 646.174 793.739 639.976C801.799 603.757 833.486 587.56 831.112 548.649C830.212 515.265 857.209 470.762 897.961 432.835C953.498 381.769 945.767 344.201 1038.86 333.251C1084.95 328.186 1147.13 419.917 1158.17 478.472C1162.4 498.638 1158.88 515.441 1142.07 516.706C1074.74 523.556 1104.62 592.722 1170.07 621.719C1206.26 637.414 1243.56 648.703 1276.81 636.241C1331.59 616.616 1280.02 676.123 1341.45 647.165C1393 621.863 1313.22 614.146 1232.95 632.493C1150.93 650.691 1069.45 692.339 1118.44 766.739C1160.32 825.23 1083.3 832.151 997.154 811.288Z" stroke="#94B5F0" stroke-width="0.479867" stroke-miterlimit="10"/>
<path d="M978.391 833.085C871.378 806.838 763.465 747.207 765.642 671.778C765.923 666.4 766.297 659.231 767.409 654.825C777.316 616.963 809.003 600.767 806.723 560.063C804.993 525.708 833.838 479.563 876.438 439.993C932.899 388.106 930.525 349.195 1024.45 339.216C1070.54 334.152 1136.87 430.738 1147.81 491.086C1151.95 513.044 1147.6 528.875 1129.87 530.961C1057.28 537.362 1089.64 609.441 1155.93 639.41C1192.95 656.076 1232.1 665.722 1267.11 653.41C1325.48 632.293 1271.14 694.263 1337.1 662.991C1392.25 636.196 1308.13 627.209 1223.43 646.078C1136.98 664.797 1051.8 709.73 1104.2 786.222C1149.5 846.805 1068.88 855.219 978.391 833.085Z" stroke="#8FB1F0" stroke-width="0.47222" stroke-miterlimit="10"/>
<path d="M959.626 854.895C848.274 827.377 736.115 764.683 740.234 685.818C740.608 678.649 740.889 673.271 742.924 668.044C752.925 628.39 787.291 611.522 785.104 569.027C783.468 532.879 812.406 484.941 856.854 443.729C914.24 391.02 916.299 351.588 1011.15 340.788C1058.99 335.874 1127.72 437.166 1138.57 499.306C1143.54 522.235 1138.26 538.888 1119.7 540.003C1042.77 545.132 1074.95 620.797 1145.57 652.036C1184.35 668.852 1225.25 678.648 1262.11 664.694C1323.26 641.112 1266.05 707.339 1337.46 672.932C1396.21 644.645 1307.65 636.178 1219.45 654.747C1129.4 674.959 1038.86 721.235 1095.41 802.583C1139.51 869.364 1054.45 878.3 959.626 854.895Z" stroke="#89AEEF" stroke-width="0.464573" stroke-miterlimit="10"/>
<path d="M940.859 876.684C826.921 848.045 708.762 782.138 713.899 700.66C714.273 693.49 715.478 687.292 717.513 682.064C728.439 641.589 763.728 623.9 762.466 580.583C759.998 543.465 790.785 493.884 836.251 450.059C894.56 396.528 901.977 355.753 995.902 345.775C1045.5 341.01 1115.79 446.037 1127.38 510.941C1131.43 534.691 1126.98 552.315 1106.67 553.28C1025.3 558.931 1059.14 636.538 1132.35 668.898C1171.96 686.685 1214.61 696.631 1253.32 681.034C1318.07 655.96 1258.09 724.651 1333.1 688.751C1395.55 657.179 1302.56 649.234 1209.92 668.325C1115.44 689.058 1021.21 738.619 1081.08 823.851C1129.52 891.903 1040.02 901.36 940.859 876.684Z" stroke="#83AAEF" stroke-width="0.456925" stroke-miterlimit="10"/>
<path d="M923.019 897.672C804.742 867.763 682.337 798.792 687.661 713.729C688.035 706.559 689.24 700.361 690.445 694.163C702.388 651.074 740.262 634.505 737.339 589.246C734.965 550.335 766.77 498.141 813.99 454.466C874.148 399.293 885.997 357.996 980.753 348.989C1031.27 343.403 1104.79 454.107 1116.29 520.803C1121.17 545.525 1114.97 562.999 1093.73 564.785C1008.03 569.165 1042.51 651.327 1118.3 684.809C1158.74 703.567 1203.24 711.871 1244.62 695.602C1312.15 668.065 1250.23 740.19 1328.93 701.006C1394.99 667.941 1297.66 658.725 1199.66 679.158C1100.74 700.413 1002.91 751.466 1065.18 841.405C1118.69 913.491 1025.6 924.441 923.019 897.672Z" stroke="#7EA6EF" stroke-width="0.449278" stroke-miterlimit="10"/>
<path d="M904.259 919.468C781.643 888.287 655.822 817.225 662.257 727.756C662.631 720.586 663.836 714.388 665.965 707.368C678.832 663.458 718.555 645.247 714.801 599.017C711.597 559.135 745.249 505.298 793.488 459.009C854.569 403.015 870.851 361.197 966.531 351.368C1017.88 346.754 1094.73 461.342 1106.13 529.831C1110.08 555.374 1103.79 574.64 1082.64 574.634C991.675 578.564 1027.82 662.669 1107.03 698.243C1149.22 717.151 1195.48 725.604 1237.78 708.515C1308.91 679.484 1244.22 754.073 1326.53 713.396C1396.18 678.839 1294.51 668.352 1192.92 690.278C1090.39 713.025 987.204 765.421 1054.55 859.394C1108.71 936.036 1012.1 946.686 904.259 919.468Z" stroke="#78A2EF" stroke-width="0.441631" stroke-miterlimit="10"/>
<path d="M885.501 941.278C760.3 908.976 628.479 834.7 635.931 742.618C636.306 735.448 637.604 727.457 639.639 722.23C653.524 675.706 694.077 658.467 691.341 609.623C688.23 567.949 721.976 512.319 772.893 465.359C834.899 408.544 855.708 364.412 951.294 356.376C1004.4 351.911 1082.81 470.234 1094.95 541.486C1099.73 568 1092.52 588.088 1069.61 587.931C974.309 590.591 1011.09 679.251 1093.81 715.125C1136 734.033 1184.85 743.608 1229.93 724.054C1304.66 693.532 1236.27 771.406 1324.03 727.593C1397.28 691.544 1291.28 679.786 1185.25 702.233C1078.29 725.501 971.405 781.183 1042.07 879.04C1097.8 959.417 997.684 969.767 885.501 941.278Z" stroke="#729FEE" stroke-width="0.433984" stroke-miterlimit="10"/>
<path d="M866.745 963.071C737.205 929.498 601.138 852.159 609.608 757.462C610.906 749.472 611.281 742.302 613.41 735.283C628.219 687.938 670.62 669.056 667.053 619.24C663.112 576.595 698.706 519.323 750.641 469.749C812.74 411.142 839.737 366.638 936.153 359.573C990.18 354.287 1071.82 478.287 1082.94 552.153C1086.8 579.488 1079.59 599.576 1056.68 599.42C956.115 601.629 995.391 693.204 1079.86 729.227C1123.81 748.285 1173.58 757.038 1220.41 737.635C1297.92 704.649 1227.58 785.957 1318.95 740.652C1394.98 702.139 1284.53 690.903 1175.82 714.021C1064.44 737.811 953.024 795.806 1027.85 898.519C1087.81 981.959 983.268 992.831 866.745 963.071Z" stroke="#6D9BEE" stroke-width="0.426336" stroke-miterlimit="10"/>
<path d="M847.974 984.872C714.924 950.999 573.688 871.418 584.193 771.494C585.492 763.503 585.866 756.334 587.995 749.314C602.898 700.177 648.808 681.595 643.58 629.837C639.733 585.399 675.42 526.335 730.034 476.09C793.057 416.661 824.487 371.636 921.827 363.75C976.685 359.435 1061.65 487.32 1072.68 562.978C1077.37 591.284 1069.23 612.193 1044.57 611.887C940.491 613.797 979.673 707.164 1066.64 746.1C1111.41 766.129 1163.86 774.211 1212.54 753.165C1293.65 718.686 1220.54 802.459 1316.43 754.84C1396.07 714.834 1281.29 702.327 1167.22 726.788C1051.4 751.099 937.212 811.558 1013.6 918.006C1077.82 1004.51 969.667 1016.87 847.974 984.872Z" stroke="#6797EE" stroke-width="0.418689" stroke-miterlimit="10"/>
<path d="M829.21 1006.68C691.821 971.539 546.338 888.894 557.031 785.385C558.329 777.395 559.628 769.404 561.757 762.384C578.507 711.605 624.418 693.023 619.284 639.473C614.606 594.064 653.066 532.536 708.696 479.677C773.568 418.606 809.431 373.06 905.847 365.994C962.459 361.829 1049.82 494.42 1060.76 571.87C1065.35 601.969 1057.21 622.878 1030.8 622.422C922.382 623.061 962.207 720.983 1052.68 760.22C1099.21 780.399 1152.49 789.452 1203.02 766.764C1286.9 729.821 1211.85 817.029 1312.27 767.096C1395.5 725.597 1277.21 712.79 1157.88 736.801C1038.46 762.605 918.916 824.407 1000.38 934.889C1067.82 1027.07 955.242 1039.96 829.21 1006.68Z" stroke="#6294EE" stroke-width="0.411042" stroke-miterlimit="10"/>
<path d="M810.452 1028.49C669.647 991.257 518.995 906.37 530.705 800.248C531.173 791.286 533.302 784.267 535.431 777.247C552.275 724.675 600.864 705.422 595.824 650.079C592.07 603.849 629.793 539.558 688.102 486.027C753.897 424.135 795.118 377.246 892.365 371.152C950.731 367.137 1039.66 503.462 1051.33 583.676C1055.93 613.775 1046.86 635.505 1020.45 635.049C906.77 635.238 948.163 736.895 1042.15 776.432C1089.51 797.582 1144.63 804.993 1196.92 782.454C1284.4 744.019 1205.65 834.511 1310.6 782.265C1397.44 739.274 1274.81 725.196 1151.87 750.7C1028.02 777.025 904.778 842.111 989.566 956.478C1057.84 1049.63 940.823 1063.04 810.452 1028.49Z" stroke="#5C90ED" stroke-width="0.403394" stroke-miterlimit="10"/>
<path d="M792.519 1051.25C648.205 1013.71 493.307 925.765 505.205 816.058C505.673 807.096 508.726 799.255 510.024 791.264C527.792 737.871 578.229 716.975 573.189 661.633C568.605 614.431 608.176 548.498 667.503 492.354C734.222 429.64 779.875 382.23 878.046 375.315C936.413 371.3 1029.49 512.48 1041.07 594.487C1045.57 626.378 1036.51 648.108 1008.34 647.502C890.323 646.42 932.453 750.841 1028.93 793.291C1077.21 813.62 1134 822.973 1189.05 797.971C1279.31 757.072 1198.62 850.999 1308.09 796.439C1397.7 750.984 1271.56 736.606 1143.27 763.453C1014.98 790.299 887.219 857.699 976.159 976.922C1047.85 1072.17 927.323 1085.27 792.519 1051.25Z" stroke="#568CED" stroke-width="0.395747" stroke-miterlimit="10"/>
<path d="M773.754 1073.05C625.1 1034.24 465.956 943.23 479.795 830.089C480.263 821.127 482.486 812.315 484.615 805.295C503.401 749.288 555.498 730.335 549.721 672.229C545.231 623.235 584.895 555.509 646.901 498.694C714.544 435.159 765.555 386.406 862.802 380.312C922.923 376.447 1018.4 522.334 1029.89 606.132C1034.39 638.024 1025.23 661.546 995.309 660.79C872.025 659.258 916.646 766.593 1015.71 810.164C1064.82 831.464 1124.29 840.145 1180.27 814.322C1274.12 771.93 1190.66 868.321 1303.74 812.269C1396.95 765.321 1265.55 750.494 1134.58 778.012C1002.69 806.351 870.396 876.065 962.751 997.379C1037.85 1094.72 913.728 1109.32 773.754 1073.05Z" stroke="#5188ED" stroke-width="0.3881" stroke-miterlimit="10"/>
<path d="M755.922 1094.03C604.683 1054.1 439.539 959.873 454.396 844.118C455.788 834.335 457.086 826.344 460.139 818.503C479.849 761.675 533.795 741.079 527.188 682.002C521.866 632.037 563.38 562.669 626.403 503.24C694.97 438.884 751.338 388.788 848.584 382.694C910.46 378.979 1007.51 528.6 1019.73 615.162C1024.14 648.846 1014.98 672.368 984.226 670.641C857.434 668.81 901.868 779.729 1003.61 822.628C1054.47 844.078 1114.86 851.939 1173.52 825.444C1270.15 780.589 1184.75 880.415 1302.35 822.048C1399.17 773.608 1263.43 757.51 1128.02 785.549C991.698 814.41 855.804 885.616 951.387 1012.61C1026.95 1118.08 899.311 1132.38 755.922 1094.03Z" stroke="#4B85ED" stroke-width="0.380453" stroke-miterlimit="10"/>
<path d="M737.988 1116.81C582.41 1075.61 413.02 978.318 428.064 858.978C429.456 849.195 431.678 840.383 434.731 832.542C454.535 773.922 510.235 753.475 504.645 691.785C499.418 640.027 541.949 568.045 606.726 508.766C677.142 442.768 737.018 392.972 836.02 387.028C899.65 383.463 999.093 537.789 1011.22 626.144C1015.63 659.828 1005.55 684.171 974.703 684.237C842.646 681.956 888.741 794.817 992.97 840.63C1044.67 863.051 1106.81 871.061 1167.32 842.924C1267.55 796.576 1178.46 899.687 1300.58 839.007C1401 789.074 1260.92 771.705 1121.09 800.266C980.326 829.648 840.736 904.139 939.641 1035.02C1017.79 1141.61 885.717 1156.43 737.988 1116.81Z" stroke="#4581EC" stroke-width="0.372805" stroke-miterlimit="10"/>
<path d="M719.222 1138.61C559.305 1096.14 386.499 996.754 402.654 873.008C404.046 863.225 406.269 854.413 408.491 845.601C430.143 785.338 487.598 765.042 480.347 701.409C474.289 648.681 518.668 575.056 584.463 513.164C655.803 446.344 721.036 395.205 819.114 390.082C882.744 386.517 986.339 545.7 997.45 636.668C1001.77 672.144 991.682 696.488 959.083 696.403C822.688 692.851 869.426 810.268 977.163 856.381C1030.62 878.952 1093.69 886.141 1156.87 857.332C1259.87 808.521 1168.84 915.067 1295.49 852.072C1398.68 799.676 1255.09 782.007 1110.73 812.881C965.537 842.785 821.42 919.59 924.478 1055.32C1007.79 1164.16 871.29 1179.5 719.222 1138.61Z" stroke="#407DEC" stroke-width="0.365158" stroke-miterlimit="10"/>
<path d="M700.474 1160.42C537.972 1116.83 359.166 1014.24 376.339 887.878C377.731 878.095 379.953 869.283 383.1 859.65C404.845 797.594 464.979 776.627 456.897 712.023C450.933 657.502 495.405 582.085 563.879 519.521C636.143 451.88 706.734 399.399 804.811 394.276C870.196 390.86 975.358 553.778 987.205 647.509C992.351 683.957 981.344 709.122 947.915 708.066C806.256 704.064 855.485 824.395 965.808 871.629C1020.09 895.171 1085.84 901.688 1149.95 872.059C1256.55 821.755 1162.75 930.764 1293.93 865.456C1400.72 811.567 1251.87 793.448 1103.99 824.023C955.199 855.419 805.725 933.567 913.029 1072.36C997.816 1186.73 858.636 1202.74 700.474 1160.42Z" stroke="#3A7AEC" stroke-width="0.357511" stroke-miterlimit="10"/>
<path d="M682.538 1183.19C515.696 1138.32 332.644 1032.67 350.835 903.693C352.227 893.91 354.543 883.305 357.596 875.464C380.266 812.588 441.323 790.799 433.335 724.403C426.541 668.911 472.861 591.851 542.353 526.674C615.54 458.211 690.564 405.209 790.396 400.236C857.535 396.97 965.096 564.593 976.849 660.117C981.071 697.386 970.064 722.551 935.711 722.316C789.712 717.044 838.754 840.959 952.492 890.285C1007.7 913.006 1075.11 921.466 1141.99 889.372C1251.37 836.605 1155.62 949.049 1290.4 882.248C1400.79 826.867 1248.43 808.448 1096.13 839.544C942.901 871.462 790.655 952.074 900.356 1095.57C987.822 1209.27 844.209 1225.81 682.538 1183.19Z" stroke="#3476EC" stroke-width="0.349863" stroke-miterlimit="10"/>
<path d="M663.782 1205C492.601 1158.87 306.134 1051.12 325.436 917.738C327.752 907.133 329.144 897.35 333.121 888.688C356.808 823.198 419.62 801.559 412.556 734.341C405.855 677.057 452.269 598.205 524.439 532.356C598.551 463.073 678.932 408.728 777.84 404.576C844.979 401.31 956.692 573.789 968.352 671.106C973.404 709.345 961.473 735.332 925.365 734.947C774.933 730.196 824.712 856.875 941.129 905.529C997.168 929.221 1066.42 936.039 1135.06 904.095C1248.04 849.835 1148.59 965.564 1288.83 895.629C1401.99 837.783 1246.12 819.065 1089.39 850.682C931.725 883.121 774.952 966.047 888.806 1114.4C978.67 1232.8 830.624 1249.86 663.782 1205Z" stroke="#2F72EB" stroke-width="0.342216" stroke-miterlimit="10"/>
<path d="M645.003 1226.78C470.313 1180.34 278.769 1068.56 299.089 932.565C300.574 920.989 303.721 911.356 305.943 902.544C330.554 836.232 395.214 812.951 387.32 744.762C379.789 686.506 428.975 605.191 501.239 537.55C577.199 466.624 661.088 412.579 760.92 407.605C829.814 404.49 943.924 581.675 955.491 680.784C959.619 719.844 948.518 746.802 911.58 745.446C756.809 739.424 808.155 869.837 927.157 919.613C984.026 944.276 1055.96 950.422 1126.45 916.836C1243.03 861.083 1140.81 979.277 1284.64 907.848C1401.41 848.511 1241.2 828.521 1079.11 861.481C917.016 894.442 756.547 980.652 873.722 1132.89C968.663 1255.33 816.184 1272.91 645.003 1226.78Z" stroke="#296FEB" stroke-width="0.334569" stroke-miterlimit="10"/>
<path d="M627.083 1249.56C448.977 1201.04 252.264 1087.01 272.771 947.434C274.256 935.859 277.403 926.225 280.549 916.592C306.178 847.667 372.499 826.328 363.868 755.376C356.43 695.328 405.71 612.22 480.652 543.907C557.536 472.16 646.783 416.772 747.446 412.77C818.094 409.804 933.771 590.724 946.075 692.596C951.033 732.628 938.178 759.435 900.316 758.901C741.205 751.608 793.195 886.577 914.782 937.474C973.405 962.287 1046.17 969.404 1118.5 934.176C1237.86 875.959 1133.7 997.587 1281.23 922.874C1401.6 862.044 1236.13 841.604 1071.36 875.236C905.659 909.689 739.832 997.242 861.253 1152.55C958.685 1277.9 802.603 1296.97 627.083 1249.56Z" stroke="#246BEB" stroke-width="0.326921" stroke-miterlimit="10"/>
<path d="M608.31 1271.37C426.695 1222.54 224.905 1104.48 246.43 962.289C247.915 950.714 251.062 941.08 254.208 931.447C280.761 861.701 348.93 838.719 339.469 766.796C331.201 705.777 382.329 621.027 458.289 550.1C536.097 477.532 630.701 420.801 730.439 417.62C801.918 415.626 920.917 600.43 933.127 704.094C937.161 744.948 925.137 772.726 885.52 772.042C721.145 764.299 774.796 901.211 899.798 954.2C959.252 979.984 1033.87 985.459 1108.88 949.559C1231.83 889.85 1124.9 1013.94 1276.04 937.736C1400.01 875.413 1230.2 853.703 1060.99 887.856C890.863 922.83 722.264 1012.85 846.083 1172.86C948.684 1300.45 788.17 1320.04 608.31 1271.37Z" stroke="#1E67EB" stroke-width="0.319274" stroke-miterlimit="10"/>
<path d="M591.308 1293.33C405.354 1243.23 200.149 1123.08 222.784 976.479C224.27 964.903 227.51 953.478 231.487 944.816C258.134 873.277 328.058 850.445 319.614 775.908C311.439 713.097 362.661 626.554 441.299 554.956C520.031 481.566 619.069 424.314 719.731 420.312C792.134 417.497 914.362 607.978 926.477 713.435C931.343 755.259 918.394 783.859 877.946 782.204C709.233 773.19 763.526 914.657 892.038 967.946C953.246 993.88 1029.61 999.505 1105.55 962.784C1231.28 900.611 1123.23 1029.11 1278.07 949.618C1404.81 884.831 1231.49 862.821 1058.68 898.467C884.12 933.963 710.994 1026.29 838.965 1191.16C938.701 1323.01 774.584 1344.09 591.308 1293.33Z" stroke="#1863EA" stroke-width="0.311627" stroke-miterlimit="10"/>
<path d="M572.552 1315.12C383.183 1262.94 172.807 1140.54 196.461 991.329C197.947 979.753 201.187 968.328 205.258 957.873C233.752 884.692 305.43 862.01 295.326 785.531C286.32 721.748 340.314 632.742 419.046 559.352C498.702 485.141 603.097 426.546 704.589 423.515C778.747 420.849 902.542 615.065 914.564 722.315C918.505 764.96 906.387 794.531 864.185 792.726C690.208 783.262 746.993 927.643 877.165 982.875C938.373 1008.81 1017.33 1015.55 1096.03 976.37C1225.37 912.704 1113.63 1044.49 1273.91 961.861C1405.18 894.761 1226.6 872.3 1048.43 909.289C870.264 946.277 692.613 1040.92 823.906 1209.67C928.624 1347.35 761.091 1366.34 572.552 1315.12Z" stroke="#E8EEF4" stroke-width="0.30398" stroke-miterlimit="10"/>
<path d="M809.675 1229.16C919.564 1369.08 747.504 1390.38 554.626 1337.9C361.747 1285.41 146.295 1158.98 170.967 1007.15C186.923 904.095 283.901 886.276 271.773 797.921C262.861 732.346 316.949 641.547 398.359 567.486C478.939 492.454 588.691 432.516 689.26 430.307C794.261 427.576 1001.31 816.144 851.066 807.808C588.439 791.67 834.965 1116.1 1086.42 991.752C1218.53 925.622 1104.85 1060.84 1268.73 976.722C1403.61 908.129 1221.51 885.369 1038.08 921.907C855.484 959.417 674.136 1057.35 809.675 1229.16Z" stroke="#E8EEF4" stroke-width="0.296332" stroke-miterlimit="10"/>
</svg>
